<svg width="1024" height="1024" viewBox="0 0 1024 1024" fill="none" xmlns="http://www.w3.org/2000/svg">
<g clip-path="url(#clip0_152_12654)">
<path d="M1024 0H0V1024H1024V0Z" fill="#6B7F9B"/>
<path d="M750.701 403.7H241.301C232.701 403.7 225.801 410.7 225.801 419.2V783C225.801 791.6 232.701 798.5 241.301 798.5H750.701C776.901 798.5 798.201 777.3 798.201 751V702.5C798.201 700.7 796.801 699.3 795.001 699.3H770.201V751C770.201 761.7 761.501 770.5 750.701 770.5H253.801V431.7H750.701C761.401 431.7 770.201 440.4 770.201 451.2V502.9H795.001C796.801 502.9 798.201 501.5 798.201 499.7V451.2C798.201 425 776.901 403.7 750.701 403.7Z" fill="white"/>
<rect y="312" width="1044" height="311" fill="#3B5479"/>
<path d="M0 448.5V1024H1024V561.2C954.9 576.9 879.3 585.8 802.9 585.8C565.8 585.9 242.4 457.6 0 448.5Z" fill="#0E2A59"/>
<path d="M1323 218.01L1306.04 213.622C1289.08 208.902 1255.64 200.622 1220.76 191.513C1187.21 182.405 1153.41 174.124 1119.73 173.876C1085.33 174.124 1051.17 182.405 1017.49 191.513C983.336 200.622 948.936 208.902 915.258 204.762C881.46 200.622 847.903 182.405 813.022 187.124C779.585 191.513 745.667 218.01 711.989 226.871C677.71 235.399 643.431 227.119 609.753 213.622C575.834 200.622 542.397 182.405 507.517 178.264C473.959 174.124 440.161 182.405 406.483 204.762C372.084 227.119 337.925 261.897 304.247 271.005C270.209 280.114 235.689 261.897 202.011 262.145C168.333 261.897 134.656 280.114 100.978 279.865C66.4581 280.114 32.4194 261.897 -1.2583 248.896C-35.4172 235.399 -69.8167 227.119 -103.494 204.762C-137.292 182.405 -170.85 147.627 -205.73 138.518C-239.168 129.41 -273.086 147.627 -306.764 151.767C-341.043 155.907 -375.322 147.627 -392.161 142.907L-409 138.518V324H-392.041C-375.082 324 -341.644 324 -306.764 324C-273.206 324 -239.408 324 -205.73 324C-171.331 324 -137.172 324 -103.494 324C-69.3356 324 -34.936 324 -1.2583 324C32.5398 324 66.0973 324 100.978 324C134.415 324 168.333 324 202.011 324C236.29 324 270.569 324 304.247 324C338.166 324 371.603 324 406.483 324C440.041 324 473.839 324 507.517 324C541.916 324 576.075 324 609.753 324C643.791 324 678.311 324 711.989 324C745.667 324 779.344 324 813.022 324C847.542 324 881.581 324 915.258 324C949.417 324 983.817 324 1017.49 324C1051.29 324 1084.85 324 1119.73 324C1153.17 324 1187.09 324 1220.76 324C1255.04 324 1289.32 324 1306.16 324H1323V218.01Z" fill="#3B5479"/>
<path d="M635.701 502.9H795.001C796.801 502.9 798.201 501.5 798.201 499.7V451.2C798.201 425 777.001 403.7 750.701 403.7H241.301C232.701 403.7 225.801 410.7 225.801 419.2V783C225.801 791.6 232.701 798.5 241.301 798.5H750.701C776.901 798.5 798.201 777.3 798.201 751V702.5C798.201 700.7 796.801 699.3 795.001 699.3H635.701C581.501 699.3 537.501 655.3 537.501 601.1C537.501 546.9 581.501 502.9 635.701 502.9ZM795.001 533.1H640.001C621.201 533.1 604.201 540.7 592.001 553C579.801 565.3 572.001 582.3 572.001 601.1C572.001 638.6 602.401 669.1 640.001 669.1H795.001C796.801 669.1 798.201 667.7 798.201 665.9V536.3C798.201 534.5 796.701 533.1 795.001 533.1ZM634.801 630C622.701 628 612.901 618.2 610.901 606.1C610.601 604.4 610.501 602.8 610.501 601.1C610.501 599.5 610.601 597.8 610.901 596.2C612.901 584 622.701 574.2 634.801 572.3C653.201 569.3 669.001 583.4 669.001 601.2C669.001 619 653.201 633 634.801 630Z" fill="url(#paint0_linear_152_12654)"/>
<path d="M540.49 271.288C546.152 275.245 546.194 283.614 540.571 287.626L439.7 359.6C427 368.7 411.799 373.5 396.2 373.5H269.5C268 373.5 267.8 369.4 269 368.5L471.6 227C472.7 226.2 476 226.2 477.1 227L540.49 271.288Z" fill="#F39331"/>
<path d="M605 274L471.923 369.978C469.855 371.469 468.821 372.214 469.045 372.907C469.269 373.6 470.543 373.6 473.093 373.6H748.3C749.9 373.6 750.3 368.9 749 368L612 274C611 273.2 606.1 273.3 605 274Z" fill="#F39331"/>
</g>
<defs>
<linearGradient id="paint0_linear_152_12654" x1="511.999" y1="798.48" x2="511.999" y2="403.73" gradientUnits="userSpaceOnUse">
<stop stop-color="#E0E0E0"/>
<stop offset="1" stop-color="white"/>
</linearGradient>
<clipPath id="clip0_152_12654">
<rect width="1024" height="1024" fill="white"/>
</clipPath>
</defs>
</svg>
