<svg width="234" height="236" viewBox="0 0 234 236" fill="none" xmlns="http://www.w3.org/2000/svg">
<rect width="234" height="236" fill="#387861"/>
<g clip-path="url(#clip0_349_2023)">
<path d="M195.974 111.804C195.491 112.337 195.99 112.951 196.634 112.068C200.453 106.813 204.817 105.468 206.622 105.391C207.21 105.366 207.398 104.846 206.772 104.885C203.807 105.064 200.798 106.56 198.171 109.314C198.486 105.451 194.792 103.982 191.599 104.711C188.146 105.501 184.166 106.83 182.243 104.739C181.9 104.34 181.346 104.56 181.55 104.885C182.695 106.725 188.224 108.359 192.585 106.934C196.28 105.724 199.601 107.812 195.974 111.804Z" fill="white"/>
<path d="M180.382 101.443C179.993 102.051 180.594 102.464 181.108 101.498C183.71 96.6284 189.81 94.9887 191.306 94.9255C192.206 94.887 192.269 94.2651 191.347 94.3944C186.25 95.0932 183.663 97.3355 182.132 98.9036C182.129 95.1208 177.616 92.5155 172.493 94.2211C165.853 96.4303 163.123 94.2019 162.334 93.3436C161.969 92.9171 161.539 92.9556 161.669 93.5169C161.826 94.2019 168.566 99.2612 174.387 97.2418C181.309 94.8401 182.747 97.7453 180.382 101.443Z" fill="white"/>
<path d="M54.2974 137.425C53.8338 138.042 54.4907 138.622 55.1144 137.502C59.7734 129.155 66.4471 127.131 70.0131 127.15C70.6258 127.152 70.9571 126.44 70.2781 126.467C65.0202 126.677 60.7505 129.007 57.5295 132.82C58.1642 126.558 55.2165 124.28 44.353 126.459C38.7418 127.582 32.2143 126.792 29.6282 122.877C29.2252 122.239 28.6677 122.696 28.9906 123.202C31.6071 127.296 40.0473 131.238 47.5187 129.373C55.9258 127.276 59.9914 129.887 54.2974 137.425Z" fill="white"/>
<path d="M66.5051 64.2998L63.8638 75.2301C71.2855 74.7844 73.9185 69.4582 73.8496 67.0812C73.7336 63.0618 69.3867 60.1841 65.3072 60.3024C57.2782 60.5335 51.3745 63.1636 49.4784 66.7703C48.736 68.1844 50.4914 68.4953 50.1463 70.4238C49.9007 71.7939 48.8933 72.7733 47.4939 72.8146C46.5444 72.8421 44.9437 71.9535 45.1671 69.9286C45.8075 64.077 58.432 57.9199 69.6708 59.4165C75.7651 60.2281 78.5389 62.1236 78.8646 66.2861C79.1212 69.582 76.6787 75.5437 65.1858 76.4351C64.6836 76.4736 64.1287 76.4213 63.6236 76.3883L61.6832 84.3391C61.5259 85.2112 61.4487 85.7174 61.4626 86.174C61.4928 87.2719 62.0531 87.5772 62.5141 87.6074C65.7351 87.8358 65.3322 88.1219 65.3404 88.4411C65.3541 88.8977 65.1307 89.0876 63.9823 89.1205C62.8812 89.1536 61.3218 88.7767 58.6611 88.8538C56.6435 88.9115 53.2679 89.0985 52.4896 89.1205C51.8465 89.1399 51.6561 88.9169 51.645 88.4603C51.6313 88.0037 51.7664 87.9541 52.4951 87.7478C53.497 87.492 55.4512 87.7313 55.7713 86.1191C56.7153 81.8301 60.7531 65.1389 60.7531 65.1389C60.8223 64.7372 60.9961 64.652 61.272 64.6437C62.1249 64.6189 65.0036 64.3053 66.1657 63.9257C66.4968 63.8844 66.5245 64.2475 66.5051 64.2998Z" fill="white"/>
<path d="M103.335 59.6091C104.484 59.6091 105.306 60.2034 105.306 61.7578C105.306 63.6341 103.747 65.5543 101.958 65.5543C100.995 65.5543 100.076 64.9601 100.076 63.3149C100.078 60.8444 102.096 59.6091 103.335 59.6091Z" fill="white"/>
<path d="M134.452 70.3826C136.059 70.3826 138.214 70.9768 138.214 72.8503C138.214 73.8105 137.527 74.5423 136.47 74.5423C135.371 74.5423 134.772 74.0388 134.085 72.9411C133.718 72.3469 133.771 71.4858 132.898 71.4858C131.43 71.4858 130.318 75.043 129.769 76.3718C128.805 78.7487 128.14 81.6623 128.14 82.9442C128.14 84.5646 128.952 85.2167 130.08 85.2167C130.839 85.2167 131.844 85.2167 132.747 84.2759C133.621 83.3596 134.074 82.493 134.397 82.493C134.701 82.493 134.643 82.8068 134.643 82.8756C134.643 83.4698 131.43 89.1812 127.82 89.1812C124.927 89.1812 123.92 86.8317 123.92 84.0888C123.923 77.8712 128.121 70.3826 134.452 70.3826Z" fill="white"/>
<path d="M152.962 89.6103C140.834 89.734 137.379 86.7821 137.266 82.8508C137.075 76.2287 142.971 70.3826 147.321 70.3826C149.829 70.3826 151.102 71.7636 150.944 74.0911C150.613 79.0211 143.526 80.1959 140.777 80.5948C140.857 80.0363 140.851 79.786 140.851 79.786C147.544 78.4324 150.575 71.0924 147.216 71.1199C144.773 71.1364 142.165 76.636 141.207 79.4751C138.522 87.4534 155.018 86.1219 155.112 86.1219C162.89 86.2373 168.421 81.72 167.844 79.7941C167.786 79.6071 167.207 78.7901 165.76 78.57C164.405 78.3609 163.654 76.2067 165.2 75.0292C165.448 74.8422 167.29 74.0058 168.134 75.695C171.109 81.6155 164.839 89.4864 152.962 89.6103Z" fill="white"/>
<path d="M96.9176 84.3996C96.5919 85.0653 96.3104 86.529 97.5331 86.2979C98.1678 86.1795 99.2028 85.1424 99.9289 84.3363C100.66 83.5248 100.98 82.7901 101.21 82.7901C101.439 82.7901 101.585 82.9937 101.585 83.1753C101.585 84.4545 96.821 89.1177 93.1005 89.1177C92.0461 89.1177 91.4941 88.8895 91.4941 88.0669C91.4941 87.5193 91.8612 86.5124 92.3662 85.4616L97.4807 75.2768C97.8008 74.6358 98.0436 74.1708 98.0436 74.0333C98.0436 73.6013 97.6655 73.4087 97.373 73.4087C96.407 73.4087 95.5928 74.1598 94.7867 74.8971C93.8374 75.761 93.5283 75.9728 93.2992 75.9728C93.1695 75.9728 93.1005 75.9233 93.1005 75.8655C93.1005 74.9136 98.499 70.3853 101.019 70.3853C102.258 70.3853 102.761 70.7511 102.761 71.7553C102.761 72.5339 102.394 73.4473 102.026 74.1791L96.9176 84.3996Z" fill="white"/>
<path d="M77.0074 78.2895C77.4158 78.0778 78.876 74.0886 80.485 73.8767C80.8024 73.8327 81.3959 74.2591 81.3959 74.5783C81.3959 75.2193 81.3572 75.6017 80.9902 76.8343C77.8712 86.9419 77.656 86.7603 77.656 87.3545C77.656 87.9021 77.4352 89.1345 79.4998 89.1345C80.6479 89.1345 81.2413 86.4219 84.5451 80.2484C85.3262 78.7848 87.8488 73.2054 89.0411 73.2054C89.3613 73.2054 89.6373 73.5713 89.6373 74.2564C89.6373 75.4008 89.9133 76.1767 90.7856 76.1767C92.207 76.1767 92.7203 74.7984 92.7203 73.4255C92.7203 72.3058 92.5492 70.369 90.6833 70.369C87.9288 70.369 86.4772 74.9277 83.2175 81.3324L83.0712 81.159C84.0207 77.6045 84.5092 75.2716 84.7244 72.3801C84.8321 70.922 84.1283 70.369 83.0712 70.369C80.4299 70.369 76.5547 76.7076 76.5547 78.097C76.5603 78.3225 76.781 78.4079 77.0074 78.2895Z" fill="white"/>
<path d="M107.981 75.6622L104.247 85.8745C104.018 86.4247 103.88 87.0189 103.88 87.6131C103.88 88.2074 103.99 89.0685 105.459 89.0685C106.452 89.0685 106.761 88.2376 107.959 86.2348C113.236 77.4091 115.127 72.4131 117.97 72.4131C118.431 72.4131 118.93 72.8588 118.93 73.2246C118.93 73.7281 118.72 74.3003 117.804 76.1299L113.038 86.0064C112.301 87.5223 111.972 89.1042 113.912 89.1042C118.927 89.1042 122.471 83.8688 122.471 83.0819C122.471 82.7601 122.27 82.6582 122.146 82.7188C121.746 82.9169 121.544 83.5551 120.904 84.1961C120.443 84.6556 119.032 86.2899 118.254 86.2899C117.931 86.2899 117.575 86.045 117.575 85.7231C117.575 85.2197 117.655 84.5896 118.483 83.0351L121.845 76.4958C122.67 74.8946 122.786 73.7226 122.786 73.0376C122.786 70.9962 121.163 70.2947 119.573 70.2947C115.348 70.2947 112.582 77.1725 108.986 83.0876L108.914 82.8757C110.41 78.9222 112.207 75.0101 112.207 72.6084C112.207 71.1448 111.655 70.413 110.189 70.413C107.435 70.413 106.195 73.2026 104.451 75.3045C103.441 76.5398 103.532 76.7846 103.532 76.9662C103.532 77.0762 103.656 77.1587 103.797 77.1725C104.12 77.2001 104.343 76.6222 105.398 75.387C106.59 74.017 107.043 73.3292 107.686 73.3292C108.282 73.3292 108.459 74.3279 107.981 75.6622Z" fill="white"/>
<path d="M29.8285 113.851C28.7273 113.851 27.2976 114.013 26.1494 114.013C25.3959 114.013 25.0205 113.974 25.0012 113.653C24.9736 113.149 25.4125 113.012 26.2405 112.874C27.891 112.599 28.7632 111.273 29.2213 108.849C31.468 96.9586 33.676 89.5911 33.676 88.8621C33.676 87.9458 33.2179 87.811 30.4192 87.58C29.8699 87.5332 29.5995 87.5909 29.5995 87.2251C29.5995 86.7217 29.8755 86.6309 30.2425 86.6309H48.7928C49.6651 86.6309 49.8415 86.7683 49.8415 87.3625C49.8415 87.6817 49.756 87.9293 49.7175 88.3173L49.1213 91.4536C48.9556 92.2623 48.9778 92.8511 48.5167 92.8511C47.9206 92.8511 47.7356 92.6695 47.6915 91.8442C47.5315 89.0243 46.6593 87.7477 43.4107 87.7477H40.1069C39.4169 87.7477 39.2817 87.8853 39.1437 88.4355L37.0433 97.9214C36.9964 98.103 36.9522 98.5322 36.9522 98.7166C36.9522 98.8982 37.0902 98.9916 38.9229 98.9916C44.1698 98.9916 45.0198 97.8115 45.9417 95.6436C46.3088 94.7742 46.3447 94.6283 46.8055 94.6283C47.0429 94.6283 47.1534 94.8127 47.1534 95.2225C47.1534 95.682 46.5931 97.6105 46.2977 98.8651C45.9913 100.166 45.8893 101.047 45.7043 102.739C45.6132 103.561 45.4091 104.431 44.8597 104.431C44.3547 104.428 44.3215 104.2 44.3215 103.743C44.3215 103.239 44.3684 102.736 44.3684 102.235C44.3684 100.224 43.0216 99.9958 40.7252 99.8114L37.3193 99.8171C37.0212 99.8171 36.6817 99.7428 36.621 99.9848L34.3523 109.278C34.2143 109.919 33.952 110.923 33.952 111.564C33.952 112.296 34.4875 112.723 36.0028 112.723H38.3874C45.4642 112.723 45.787 110.117 46.8249 108.054C47.007 107.688 47.1975 107.306 47.5176 107.306C47.9758 107.306 48.1579 107.671 48.1579 108.128C48.1579 108.588 48.0752 108.868 47.9841 109.278L47.1506 113.51C47.0568 113.875 46.9656 114.013 46.2783 114.013L29.8285 113.851Z" fill="white"/>
<path d="M73.3555 110.467C73.4328 107.991 76.3198 102.893 76.9851 100.351C77.065 100.043 76.7007 99.1073 75.8341 99.1073C75.2821 99.1073 74.4954 99.3577 73.3473 100.684C71.8347 102.422 71.7962 102.835 71.4759 102.835C71.3601 102.835 71.2827 102.783 71.2827 102.689C71.2827 101.545 76.353 95.341 79.4139 95.341C80.7442 95.341 81.6606 95.9352 81.6606 97.2613C81.6606 97.9023 81.3403 98.9533 81.0644 99.6384L78.1746 107C77.9455 107.595 77.7495 108.071 77.7495 108.984C77.7495 109.944 78.1609 110.676 79.5849 110.676C82.5217 110.676 86.4298 102.321 87.1696 100.596L88.7953 96.4607C89.1623 95.5446 89.3003 95.363 91.2269 95.363C92.4662 95.363 92.6951 95.5914 92.6951 96.004C92.6951 96.3699 92.4192 97.0551 92.1431 98.0619L89.2672 105.707C88.8064 106.943 88.6132 108.09 88.6132 109.278C88.6132 110.329 89.2644 110.789 90.4099 110.789C91.5111 110.789 93.1479 109.353 93.744 108.618C95.6705 106.285 97.7764 103.732 97.7764 100.623C97.7764 98.7469 96.838 98.0288 96.838 96.9312C96.838 95.6491 97.4811 94.9641 98.4885 94.9641C99.6366 94.9641 100.233 95.7867 100.233 97.2036C100.233 102.246 92.7256 113.994 86.9875 113.994C85.8228 113.994 84.1888 112.965 84.1888 111.278C84.1888 109.496 84.9533 107.259 85.5053 105.93L85.4114 105.839C83.347 108.629 80.4931 113.994 76.8222 113.994C74.0041 114.002 73.339 111.053 73.3555 110.467Z" fill="white"/>
<path d="M119.917 103.231C120.325 103.019 121.783 99.033 123.395 98.8185C123.712 98.7771 124.305 99.2036 124.305 99.5227C124.305 100.161 124.264 100.543 123.9 101.779C120.781 111.884 120.566 111.705 120.566 112.299C120.566 112.846 120.345 114.079 122.409 114.079C123.557 114.079 124.154 111.366 127.457 105.193C128.236 103.729 130.759 98.15 131.953 98.15C132.274 98.15 132.55 98.5158 132.55 99.2008C132.55 100.345 132.826 101.121 133.698 101.121C135.122 101.121 135.633 99.7428 135.633 98.3699C135.633 97.2503 135.462 95.3135 133.599 95.3135C130.847 95.3135 129.392 99.8721 126.133 106.274L125.986 106.103C126.939 102.549 127.427 100.216 127.642 97.3245C127.75 95.8637 127.043 95.3135 125.989 95.3135C123.348 95.3135 119.473 101.652 119.473 103.042C119.47 103.264 119.691 103.35 119.917 103.231Z" fill="white"/>
<path d="M109.533 107.377C107.814 109.556 104.295 113.812 101.181 114.021C99.1691 114.156 98.6061 113.116 98.4736 111.155C98.0843 105.407 106.453 97.1897 111.211 96.8705C112.357 96.7936 112.508 96.9669 113.298 97.0989C114.159 95.5279 114.36 95.4042 115.186 95.4454C116.883 95.5307 118.006 95.6766 118.042 96.2048C118.114 97.253 112.751 108.78 112.851 110.241C112.856 110.321 112.622 111.243 113.477 111.273C114.612 111.317 117.223 107.751 117.424 107.707C117.606 107.663 117.697 107.856 117.714 108.112C117.744 108.571 114.736 113.688 110.207 113.991C108.926 114.076 108.584 113.779 108.526 112.912C108.41 111.223 110.781 106.755 110.747 106.252C110.742 106.161 110.629 106.073 110.554 106.128C110.449 106.202 110.146 106.599 109.525 107.366L108.702 106.761C109.354 106.004 109.817 105.41 110.237 104.819C111.956 102.365 112.699 100.098 112.795 99.2778C112.922 98.1856 112.55 97.6903 111.404 97.7674C107.836 98.0069 102.708 105.68 102.92 108.83C102.978 109.691 103.411 109.988 104.328 109.928C105.548 109.845 107.245 108.434 108.749 106.711L109.533 107.377Z" fill="white"/>
<path d="M69.1047 81.5193C69.5298 81.5138 71.0644 81.5332 72.08 81.5193C73.0957 81.5083 73.6063 81.4313 74.887 81.258C75.6598 81.1534 75.9026 81.4202 75.9054 81.6926C75.9082 81.9678 75.7757 82.3804 75.4638 83.2085L65.5056 108.095C65.2379 108.783 64.8459 110.186 64.8515 110.643C64.8542 111.009 65.1385 111.369 65.5056 111.366C66.3363 111.355 67.1424 110.34 68.6189 108.734C69.4415 107.839 69.3531 107.801 69.5296 107.798C69.6595 107.795 69.7587 107.972 69.7587 108.164C69.767 108.896 66.4579 114.021 62.1438 114.074C61.2248 114.085 60.7638 113.939 60.7224 113.116C60.67 112.071 60.819 111.474 60.9652 110.758C61.1667 109.776 61.9617 107.801 62.4116 107.02L62.3177 106.929C61.9313 107.339 61.3075 108.043 60.8135 108.582L60.267 107.606C63.0161 105.025 65.4144 100.257 65.387 98.0014C65.3787 97.2064 64.6914 96.7056 64.0483 96.7139C59.7675 96.7633 54.6366 105.204 54.6723 108.346C54.689 109.765 55.7765 110.282 56.6183 110.054C57.8217 109.724 59.1519 108.629 60.3223 107.562L60.8107 108.582C58.702 110.874 55.6964 114.049 52.8038 114.082C50.6289 114.107 50.0521 111.611 50.041 110.585C49.9859 105.853 52.2905 102.346 54.1203 100.522C58.8539 95.8527 62.3675 95.4373 63.1264 95.429C64.5506 95.4127 65.3454 95.7867 66.0715 96.359L70.4847 85.2801C70.7082 84.7272 70.929 84.0394 70.9236 83.5828C70.918 83.0792 70.6834 82.7188 70.2722 82.6748C68.7487 82.5372 68.3181 82.4575 68.3125 82.0723C68.307 81.6623 68.5085 81.5249 69.1047 81.5193Z" fill="white"/>
<path d="M151.769 81.4506C152.194 81.4477 153.729 81.4643 154.745 81.4534C155.758 81.4423 156.271 81.3652 157.549 81.1919C158.322 81.0846 158.565 81.3515 158.567 81.6267C158.573 81.9017 158.438 82.3144 158.129 83.1398L148.17 108.029C147.903 108.717 147.513 110.118 147.519 110.577C147.522 110.943 147.806 111.303 148.168 111.298C149.001 111.289 149.807 110.271 151.284 108.665C152.106 107.771 152.018 107.732 152.194 107.729C152.324 107.729 152.421 107.903 152.424 108.095C152.432 108.827 149.125 113.953 144.808 114.002C143.892 114.013 143.431 113.87 143.387 113.047C143.335 112.002 143.484 111.405 143.63 110.69C143.832 109.708 144.626 107.732 145.076 106.951L144.985 106.86C144.596 107.27 143.975 107.971 143.478 108.513L142.935 107.537C145.681 104.956 148.082 100.189 148.054 97.9327C148.043 97.1375 147.356 96.6369 146.716 96.645C142.432 96.6946 137.304 105.132 137.34 108.277C137.359 109.694 138.444 110.214 139.283 109.983C140.489 109.652 141.819 108.558 142.99 107.49L143.478 108.511C141.37 110.803 138.361 113.975 135.474 114.01C133.299 114.035 132.722 111.54 132.708 110.514C132.653 105.782 134.958 102.277 136.791 100.45C141.524 95.7812 145.035 95.3658 145.797 95.3575C147.221 95.3411 148.016 95.7152 148.742 96.2875L153.155 85.2086C153.379 84.6583 153.599 83.9679 153.594 83.5111C153.588 83.0076 153.354 82.6445 152.942 82.6033C151.416 82.4657 150.985 82.386 150.983 82.0008C150.972 81.5964 151.17 81.4588 151.769 81.4506Z" fill="white"/>
<path d="M81.0087 118.291C81.0611 118.076 80.8265 117.551 80.2663 117.713C77.7629 118.426 75.7784 118.519 74.2327 118.313C70.6005 117.82 69.7448 118.354 68.7485 118.778C68.1496 119.034 67.8101 118.717 68.3621 118.34C72.0607 115.807 76.3993 116.151 78.3756 116.354C80.0206 116.525 84.2268 116.858 86.1837 116.483C88.2813 116.085 88.342 116.035 89.3137 116.035C90.0478 116.035 90.4149 116.126 90.4149 116.492C90.4149 116.995 89.9816 116.981 88.7865 117.3C87.8425 117.551 86.2444 118.566 85.7172 120.841L80.0537 144.069C79.8714 144.754 79.7308 145.896 79.7308 146.674C79.7308 147.703 80.418 147.69 81.0611 147.778C83.1559 148.066 83.2636 148.135 83.3078 148.823C83.3078 148.961 83.0787 149.098 82.5737 149.098C80.9203 149.098 78.0305 148.917 75.7838 148.917C73.3992 148.917 72.3146 149.098 71.0753 149.098C70.6641 149.098 70.435 148.87 70.435 148.595C70.435 148.091 70.7248 148.069 71.6438 147.885C72.654 147.703 73.8739 147.266 74.241 145.802L81.0087 118.291Z" fill="white"/>
<path d="M85.74 136.443C86.6123 136.443 87.0705 137.221 87.7134 138.182C88.1717 138.869 89.0163 139.843 90.2997 139.843C91.1718 139.843 91.5832 138.883 91.5832 138.426C91.5832 136.55 90.4183 134.473 89.4551 132.74C88.4449 130.957 87.4817 129.584 87.4817 128.027C87.4817 125.708 90.5867 122.585 93.6752 122.585C95.3727 122.585 96.8659 123.339 96.8659 125.122C96.8659 126.035 96.3137 126.676 95.3975 126.676C94.7572 126.676 94.5253 126.495 93.9761 125.851C93.333 125.075 92.8279 123.958 91.8204 123.958C90.9013 123.958 90.3963 124.555 90.3963 125.381C90.3963 126.797 91.6576 128.437 92.6678 130.085C93.678 131.73 94.7324 133.422 94.7324 135.111C94.7324 138.36 91.1526 141.197 87.7576 141.197C86.1073 141.197 84.3628 140.234 84.3628 138.27C84.3628 137.268 84.6857 136.443 85.74 136.443Z" fill="white"/>
<path d="M117.675 134.553C115.955 136.732 112.433 140.991 109.323 141.197C107.311 141.335 106.748 140.295 106.615 138.33C106.226 132.583 114.594 124.366 119.353 124.049C120.498 123.972 120.65 124.146 121.439 124.272C122.301 122.704 122.505 122.58 123.33 122.619C125.022 122.707 126.148 122.853 126.184 123.381C126.253 124.429 120.893 135.953 120.992 137.417C120.998 137.497 120.761 138.416 121.619 138.449C122.75 138.493 125.364 134.93 125.566 134.881C125.748 134.836 125.839 135.032 125.855 135.285C125.886 135.744 122.878 140.862 118.348 141.167C117.065 141.252 116.723 140.955 116.664 140.086C116.551 138.399 118.92 133.931 118.884 133.428C118.878 133.337 118.768 133.249 118.693 133.301C118.588 133.376 118.288 133.774 117.664 134.539L116.841 133.937C117.495 133.18 117.959 132.583 118.376 131.994C120.095 129.54 120.838 127.271 120.932 126.454C121.061 125.362 120.686 124.866 119.541 124.941C115.969 125.18 110.844 132.853 111.056 136.003C111.114 136.864 111.548 137.164 112.464 137.101C113.684 137.018 115.381 135.607 116.885 133.885L117.675 134.553Z" fill="white"/>
<path d="M107.287 115.672C107.698 115.691 108.159 115.738 108.159 116.379C108.159 116.836 107.546 117.955 107.27 118.687L102.898 131.048C101.568 134.754 100.87 136.583 100.87 137.043C100.87 137.373 101.041 137.722 101.546 137.722C102.186 137.722 103.437 136.589 104.466 135.34C105.073 134.6 105.311 134.171 105.449 134.171C105.678 134.171 105.788 134.281 105.788 134.556C105.788 134.74 104.654 136.638 103.453 137.835C101.623 139.659 99.8156 141.249 98.4383 141.249C97.199 141.249 96.6938 140.837 96.6938 139.329C96.6938 138.46 96.8899 137.359 97.486 135.623L102.821 120.151C103.05 119.466 103.188 118.828 103.188 118.506C103.188 117.911 102.672 117.457 100.975 117.229C100.285 117.136 100.103 117.048 100.103 116.816C100.103 116.313 100.428 115.911 101.386 116.019C104.278 116.338 105.504 116.211 107.287 115.672Z" fill="white"/>
<path d="M131.91 127.843L128.176 138.052C127.947 138.6 127.809 139.197 127.809 139.791C127.809 140.385 127.919 141.247 129.388 141.247C130.379 141.247 130.688 140.416 131.886 138.413C137.163 129.587 139.053 124.591 141.896 124.591C142.357 124.591 142.862 125.037 142.862 125.403C142.862 125.906 142.65 126.478 141.733 128.308L136.967 138.184C136.23 139.7 135.899 141.282 137.842 141.282C142.86 141.282 146.401 136.047 146.401 135.26C146.401 134.941 146.199 134.836 146.075 134.897C145.675 135.095 145.473 135.736 144.833 136.374C144.372 136.831 142.962 138.468 142.18 138.468C141.86 138.468 141.502 138.223 141.502 137.904C141.502 137.398 141.584 136.773 142.41 135.216L145.771 128.677C146.597 127.075 146.713 125.901 146.713 125.216C146.713 123.174 145.09 122.473 143.5 122.473C139.274 122.473 136.509 129.353 132.91 135.265L132.84 135.054C134.336 131.1 136.133 127.188 136.133 124.789C136.133 123.326 135.584 122.594 134.116 122.594C131.361 122.594 130.122 125.383 128.38 127.485C127.37 128.718 127.459 128.963 127.459 129.147C127.459 129.257 127.585 129.34 127.723 129.35C128.049 129.378 128.27 128.8 129.327 127.568C130.519 126.195 130.972 125.51 131.612 125.51C132.214 125.504 132.391 126.506 131.91 127.843Z" fill="white"/>
<path d="M166.166 108.742C166.591 108.736 168.126 108.753 169.139 108.742C170.154 108.731 170.665 108.654 171.945 108.478C172.715 108.373 172.961 108.64 172.964 108.915C172.967 109.19 172.834 109.603 172.522 110.428L162.567 135.315C162.299 136.005 161.907 137.406 161.913 137.865C161.918 138.228 162.2 138.592 162.564 138.586C163.395 138.578 164.204 137.563 165.677 135.956C166.503 135.062 166.411 135.021 166.591 135.021C166.721 135.018 166.817 135.194 166.82 135.386C166.828 136.118 163.519 141.246 159.205 141.293C158.289 141.304 157.828 141.161 157.784 140.339C157.728 139.293 157.878 138.693 158.027 137.981C158.228 137.001 159.023 135.026 159.473 134.242L159.379 134.151C158.993 134.564 158.371 135.263 157.875 135.807L157.331 134.831C160.077 132.25 162.478 127.482 162.451 125.229C162.44 124.434 161.753 123.933 161.112 123.942C156.829 123.991 151.701 132.429 151.736 135.571C151.753 136.99 152.84 137.51 153.679 137.279C154.886 136.949 156.216 135.854 157.383 134.787L157.875 135.807C155.766 138.096 152.758 141.271 149.871 141.307C147.696 141.332 147.116 138.836 147.105 137.81C147.05 133.078 149.354 129.571 151.187 127.747C155.921 123.078 159.431 122.663 160.193 122.651C161.617 122.635 162.412 123.012 163.135 123.584L167.551 112.505C167.775 111.955 167.996 111.264 167.99 110.808C167.985 110.304 167.75 109.941 167.339 109.9C165.813 109.762 165.382 109.683 165.379 109.297C165.368 108.885 165.57 108.747 166.166 108.742Z" fill="white"/>
<path d="M46.9093 150.62C56.1086 155.954 68.3825 157.979 94.7658 153.28C115.629 149.563 147.306 145.469 167.766 157.588C168.379 157.951 168.042 158.752 167.421 158.441C146.034 147.698 125.286 151.577 111.743 154.078C74.4794 160.953 54.5795 157.423 46.3215 151.258C45.2645 150.471 45.6894 149.915 46.9093 150.62Z" fill="white"/>
<path d="M82.9359 168.373C82.8062 168.373 82.7923 168.315 82.762 168.1C82.6902 167.583 81.4951 167.195 80.6313 167.195C77.9815 167.195 76.4526 169.204 76.4526 171.707C76.4526 174.379 78.4702 175.828 80.2558 175.828C81.553 175.828 82.98 175.237 83.0795 174.434C83.0932 174.321 83.1069 174.172 83.267 174.172C83.383 174.172 83.4106 174.274 83.4106 174.359C83.4106 174.491 83.383 174.706 83.3223 175.608C82.3563 176.081 81.1198 176.343 80.0075 176.343C77.1425 176.343 75.1387 174.849 75.1387 171.861C75.1387 168.775 77.7193 166.678 80.714 166.678C81.5917 166.678 82.4142 166.862 83.1926 167.165C83.0932 168.332 83.0795 168.373 82.9359 168.373Z" fill="white"/>
<path d="M92.4956 172.136H89.6279L91.2288 168.315L92.4956 172.136ZM92.6944 172.651C93.2849 174.39 93.6881 175.394 93.6881 175.496C93.6881 175.595 93.5858 175.639 93.4866 175.639H92.711V176.071H95.9374V175.639H95.5042C95.1287 175.639 94.9548 175.438 94.6265 174.535C93.9198 172.623 92.1342 167.828 92.1342 167.209C92.1342 166.937 92.3935 166.95 92.3935 166.763C92.3935 166.664 92.3217 166.62 92.2499 166.62C92.1616 166.62 91.7587 166.722 91.3999 166.807L87.7566 175.41C87.6711 175.595 87.4531 175.639 87.2379 175.639H86.9507V176.071H89.8625V175.639H88.9517C88.7365 175.639 88.5929 175.567 88.5929 175.264C88.5929 174.863 89.1118 173.454 89.4293 172.651H92.6944Z" fill="white"/>
<path d="M107.171 174.059H107.199V168.89C107.199 168.23 107.171 167.382 106.738 167.382H105.976V166.95H108.615V167.382H108.082C107.908 167.382 107.751 167.451 107.751 167.669V175.969C107.751 176.098 107.737 176.197 107.635 176.197C107.591 176.197 107.533 176.153 107.433 176.04L107.259 175.837L101.019 168.342H100.991V174.131C100.991 174.791 101.019 175.639 101.452 175.639H102.214V176.071H99.5782V175.639H100.111C100.285 175.639 100.442 175.567 100.442 175.352V169.033C100.442 167.869 100.312 167.382 99.6361 167.382H99.189V166.95H101.278L107.171 174.059Z" fill="white"/>
<path d="M117.295 172.136H114.428L116.028 168.315L117.295 172.136ZM117.5 172.651C118.09 174.39 118.493 175.394 118.493 175.496C118.493 175.595 118.391 175.639 118.292 175.639H117.511V176.071H120.737V175.639H120.307C119.931 175.639 119.757 175.438 119.429 174.535C118.725 172.623 116.937 167.828 116.937 167.209C116.937 166.937 117.196 166.95 117.196 166.763C117.196 166.664 117.124 166.62 117.053 166.62C116.967 166.62 116.564 166.722 116.202 166.807L112.556 175.41C112.468 175.595 112.253 175.639 112.037 175.639H111.75V176.071H114.659V175.639H113.752C113.536 175.639 113.393 175.567 113.393 175.264C113.393 174.863 113.912 173.454 114.229 172.651H117.5Z" fill="white"/>
<path d="M126.711 167.723C126.711 167.465 126.885 167.465 127.834 167.465C129.924 167.465 131.9 168.747 131.9 171.905C131.9 173.526 131.006 175.55 128.455 175.55H127.302C126.868 175.55 126.711 175.55 126.711 173.77V167.723ZM124.232 167.382H125.085C125.458 167.382 125.488 167.927 125.488 169.404V175.41C125.488 175.537 125.43 175.639 125.27 175.639H124.597V176.07H128.483C131.469 176.07 133.214 173.903 133.214 171.327C133.214 170.018 132.535 166.948 128.469 166.948H124.235V167.382H124.232Z" fill="white"/>
<path d="M141.311 172.136H138.446L140.047 168.315L141.311 172.136ZM141.512 172.651C142.103 174.39 142.506 175.394 142.506 175.496C142.506 175.595 142.407 175.639 142.304 175.639H141.529V176.071H144.755V175.639H144.325C143.949 175.639 143.778 175.438 143.447 174.535C142.741 172.623 140.955 167.828 140.955 167.209C140.955 166.937 141.214 166.95 141.214 166.763C141.214 166.664 141.143 166.62 141.071 166.62C140.982 166.62 140.579 166.722 140.218 166.807L136.572 175.41C136.489 175.595 136.274 175.639 136.053 175.639H135.763V176.071H138.675V175.639H137.767C137.552 175.639 137.408 175.567 137.408 175.264C137.408 174.863 137.927 173.454 138.244 172.651H141.512Z" fill="white"/>
</g>
<defs>
<clipPath id="clip0_349_2023">
<rect width="183" height="117.894" fill="white" transform="translate(25 59)"/>
</clipPath>
</defs>
</svg>
