<svg width="75" height="75" viewBox="0 0 75 75" fill="none" xmlns="http://www.w3.org/2000/svg">
<mask id="mask0_156_6376" style="mask-type:alpha" maskUnits="userSpaceOnUse" x="4" y="0" width="67" height="75">
<path d="M44.1347 8.22686C44.3315 8.29219 44.5332 8.14219 44.5238 7.93506C44.307 3.17856 40.4999 0 36.3303 0C32.1355 0 28.354 3.21943 28.137 7.93799C28.1275 8.14512 28.3294 8.29512 28.526 8.22978C33.3328 6.63032 39.4114 6.65625 44.1347 8.22686Z" fill="black"/>
<path d="M65.8812 55.0912C61.9965 51.7616 59.7684 46.9174 59.7684 41.8022V39.8264C59.7684 39.6403 59.5978 39.5038 59.4154 39.5404C49.4653 41.5331 39.8466 33.8708 39.8466 23.4374C39.8466 16.3539 43.7293 12.5608 44.9828 11.4853C45.1492 11.3425 45.1059 11.0728 44.9022 10.992C29.7201 4.96821 12.8934 16.1599 12.8934 32.8124V41.8022C12.8934 46.8141 10.7406 51.6986 6.78064 55.0912C6.12732 55.6508 5.59412 56.3583 5.23816 57.1347C3.4156 61.0961 6.32581 65.6249 10.6786 65.6249H61.8786C65.0373 65.6249 67.7322 63.2188 67.9563 60.0679C68.0977 58.0785 67.25 56.2635 65.8812 55.0912Z" fill="black"/>
<path d="M36.3306 74.9999C40.68 74.9999 44.4226 72.354 46.0327 68.5865C46.1577 68.2941 45.9489 67.9688 45.6309 67.9688H27.0303C26.7123 67.9688 26.5036 68.2941 26.6285 68.5865C28.2387 72.354 31.9813 74.9999 36.3306 74.9999Z" fill="black"/>
<path d="M56.252 37.5C64.0555 37.5 70.3145 31.1821 70.3145 23.4375C70.3145 15.6841 64.0054 9.375 56.252 9.375C48.4546 9.375 42.1895 15.7074 42.1895 23.4375C42.1895 31.1909 48.4985 37.5 56.252 37.5ZM54.4326 19.7988C53.8525 20.0874 53.1494 19.853 52.8594 19.2744C52.5708 18.6958 52.8052 17.9912 53.3838 17.7012L55.7275 16.5293C56.501 16.1426 57.4238 16.7017 57.4238 17.5781V27.9785C57.4238 28.0594 57.4895 28.125 57.5703 28.125H58.5559C59.1802 28.125 59.7251 28.5964 59.7651 29.2194C59.8089 29.902 59.2688 30.4688 58.5957 30.4688H53.948C53.3237 30.4688 52.7788 29.9974 52.7388 29.3744C52.695 28.6917 53.2351 28.125 53.9082 28.125H54.9336C55.0145 28.125 55.0801 28.0594 55.0801 27.9785V19.7111C55.0801 19.6021 54.9652 19.5312 54.8678 19.5801L54.4326 19.7988Z" fill="black"/>
</mask>
<g mask="url(#mask0_156_6376)">
<path d="M75 -1H0V77H75V-1Z" fill="#0E2A59"/>
<path d="M56.5 38C64.5081 38 71 31.5081 71 23.5C71 15.4919 64.5081 9 56.5 9C48.4919 9 42 15.4919 42 23.5C42 31.5081 48.4919 38 56.5 38Z" fill="#0E2A59"/>
</g>
</svg>
