<svg width="75" height="75" viewBox="0 0 75 75" fill="none" xmlns="http://www.w3.org/2000/svg">
<g clip-path="url(#clip0_156_6296)">
<mask id="mask0_156_6296" style="mask-type:alpha" maskUnits="userSpaceOnUse" x="0" y="0" width="75" height="75">
<mask id="mask1_156_6296" style="mask-type:luminance" maskUnits="userSpaceOnUse" x="0" y="0" width="75" height="75">
<path d="M75 0H0V75H75V0Z" fill="white"/>
</mask>
<g mask="url(#mask1_156_6296)">
<path d="M69.8853 61.3637H57.9536C50.4348 61.3637 44.3175 55.2465 44.3175 47.7277C44.3175 40.2088 50.4348 34.0916 57.9536 34.0916H69.8853C70.8275 34.0916 71.5899 33.3292 71.5899 32.387V27.2734C71.5899 23.6991 68.8173 20.7922 65.3144 20.5103L55.5251 3.41185C54.618 1.83048 53.1531 0.700227 51.4003 0.230898C49.6557 -0.235234 47.8315 0.00957775 46.2701 0.918352L12.7119 20.4553H6.81813C3.05791 20.4553 0 23.5131 0 27.2734V68.1819C0 71.9421 3.05775 75 6.81813 75H64.7717C68.5319 75 71.5899 71.9423 71.5899 68.1819V63.0683C71.5899 62.1261 70.8275 61.3637 69.8853 61.3637ZM57.6391 13.9681L61.3532 20.4553H46.4965L57.6391 13.9681ZM19.4874 20.4553L47.9862 3.86456C48.7569 3.41345 49.6573 3.2936 50.518 3.52339C51.3886 3.75637 52.1144 4.31902 52.5655 5.10635L52.569 5.11258L26.2167 20.4553H19.4874Z" fill="black"/>
<path d="M69.8854 37.5005H57.9537C52.3141 37.5005 47.7266 42.088 47.7266 47.7276C47.7266 53.3672 52.3141 57.9547 57.9537 57.9547H69.8854C72.7052 57.9547 74.999 55.661 74.999 52.8412V42.614C74.999 39.7942 72.7052 37.5005 69.8854 37.5005ZM57.9537 51.1366C56.0745 51.1366 54.5447 49.6068 54.5447 47.7276C54.5447 45.8484 56.0745 44.3186 57.9537 44.3186C59.833 44.3186 61.3627 45.8484 61.3627 47.7276C61.3629 49.6068 59.8331 51.1366 57.9537 51.1366Z" fill="black"/>
</g>
</mask>
<g mask="url(#mask0_156_6296)">
<path d="M75 2H0V77H75V2Z" fill="#0E2A59"/>
<path d="M63 -5H14C10.6863 -5 8 -2.31371 8 1V15C8 18.3137 10.6863 21 14 21H63C66.3137 21 69 18.3137 69 15V1C69 -2.31371 66.3137 -5 63 -5Z" fill="#0E2A59"/>
</g>
</g>
<defs>
<clipPath id="clip0_156_6296">
<rect width="75" height="75" fill="white"/>
</clipPath>
</defs>
</svg>
