<svg width="75" height="75" viewBox="0 0 75 75" fill="none" xmlns="http://www.w3.org/2000/svg">
<g clip-path="url(#clip0_156_6435)">
<mask id="mask0_156_6435" style="mask-type:alpha" maskUnits="userSpaceOnUse" x="6" y="0" width="63" height="75">
<mask id="mask1_156_6435" style="mask-type:luminance" maskUnits="userSpaceOnUse" x="0" y="0" width="75" height="75">
<path d="M75 0H0V75H75V0Z" fill="white"/>
</mask>
<g mask="url(#mask1_156_6435)">
<path d="M36.9649 36.1277C41.9282 36.1277 46.2261 34.3476 49.7377 30.8354C53.2493 27.3238 55.0294 23.0271 55.0294 18.0633C55.0294 13.1011 53.2493 8.8039 49.7371 5.29115C46.2249 1.78012 41.9277 0 36.9649 0C32.001 0 27.7044 1.78012 24.1927 5.29173C20.6811 8.80333 18.9004 13.1006 18.9004 18.0633C18.9004 23.0271 20.6811 27.3244 24.1933 30.836C27.7055 34.347 32.0028 36.1277 36.9649 36.1277Z" fill="black"/>
<path d="M68.5736 57.6713C68.4723 56.2099 68.2674 54.6157 67.9659 52.9323C67.6615 51.2363 67.2695 49.633 66.8003 48.1676C66.3157 46.6529 65.6565 45.1572 64.8417 43.7238C63.9959 42.2361 63.0026 40.9406 61.8879 39.8746C60.7224 38.7594 59.2953 37.8628 57.645 37.2087C56.0005 36.5581 54.178 36.2286 52.2285 36.2286C51.4629 36.2286 50.7225 36.5427 49.2926 37.4737C48.4125 38.0476 47.3831 38.7113 46.2341 39.4455C45.2517 40.0715 43.9207 40.658 42.2768 41.189C40.6729 41.708 39.0444 41.9712 37.4371 41.9712C35.8297 41.9712 34.2018 41.708 32.5962 41.189C30.954 40.6585 29.623 40.072 28.6417 39.446C27.5036 38.7188 26.4736 38.055 25.5804 37.4731C24.1522 36.5421 23.4112 36.228 22.6456 36.228C20.6955 36.228 18.8736 36.5581 17.2297 37.2093C15.5806 37.8622 14.1529 38.7588 12.9862 39.8752C11.8721 40.9418 10.8782 42.2367 10.0336 43.7238C9.21936 45.1572 8.56018 46.6524 8.07495 48.1681C7.60632 49.6335 7.21436 51.2363 6.90994 52.9323C6.60839 54.6134 6.40354 56.2081 6.30226 57.673C6.2027 59.1081 6.15234 60.5975 6.15234 62.1018C6.15234 66.0168 7.39689 69.1863 9.85107 71.5237C12.2749 73.8303 15.4821 75.0004 19.3823 75.0004H55.4953C59.3954 75.0004 62.6015 73.8308 65.0259 71.5237C67.4807 69.188 68.7252 66.018 68.7252 62.1013C68.7246 60.5901 68.6737 59.0995 68.5736 57.6713Z" fill="black"/>
</g>
</mask>
<g mask="url(#mask0_156_6435)">
<path d="M75 2H0V77H75V2Z" fill="#F39331"/>
<path d="M37.5 -5H36.5C25.7304 -5 17 3.73045 17 14.5V17.5C17 28.2696 25.7304 37 36.5 37H37.5C48.2696 37 57 28.2696 57 17.5V14.5C57 3.73045 48.2696 -5 37.5 -5Z" fill="#F39331"/>
</g>
</g>
<defs>
<clipPath id="clip0_156_6435">
<rect width="75" height="75" fill="white"/>
</clipPath>
</defs>
</svg>
