<svg width="75" height="75" viewBox="0 0 75 75" fill="none" xmlns="http://www.w3.org/2000/svg">
<g clip-path="url(#clip0_156_6398)">
<mask id="mask0_156_6398" style="mask-type:alpha" maskUnits="userSpaceOnUse" x="0" y="0" width="75" height="75">
<mask id="mask1_156_6398" style="mask-type:luminance" maskUnits="userSpaceOnUse" x="0" y="0" width="75" height="75">
<path d="M75 0H0V75H75V0Z" fill="white"/>
</mask>
<g mask="url(#mask1_156_6398)">
<path d="M19.0779 20.2539L12.5802 20.7559C10.7721 20.8957 9.16183 21.8433 8.16194 23.3557L0.668293 34.6894C-0.0900508 35.8364 -0.210606 37.2718 0.345591 38.5292C0.901934 39.7866 2.04524 40.6628 3.40387 40.8733L9.35328 41.7947C10.745 34.409 14.0766 27.0415 19.0779 20.2539Z" fill="black"/>
<path d="M33.2051 65.6465L34.1266 71.5959C34.3371 72.9545 35.2134 74.0978 36.4706 74.654C36.9937 74.8855 37.5474 74.9997 38.0984 74.9997C38.8722 74.9997 39.6407 74.7743 40.3106 74.3313L51.6445 66.8378C53.157 65.8378 54.1046 64.2274 54.244 62.4196L54.746 55.9219C47.9583 60.9233 40.5909 64.2549 33.2051 65.6465Z" fill="black"/>
<path d="M30.9671 61.5231C31.1736 61.5231 31.3813 61.5061 31.5886 61.4715C34.6829 60.9542 37.6653 60.0826 40.5103 58.9418L16.0579 34.4893C14.9171 37.3342 14.0455 40.3166 13.5281 43.411C13.3242 44.6308 13.7333 45.8734 14.6077 46.7479L28.2517 60.392C28.9777 61.1178 29.9575 61.5231 30.9671 61.5231Z" fill="black"/>
<path d="M69.0209 33.2521C75.0046 21.6838 75.2262 9.45886 74.9134 3.72551C74.8064 1.76102 73.2402 0.194823 71.2755 0.0877435C70.342 0.0367673 69.2356 0 67.9886 0C61.5776 0 51.4335 0.971038 41.7489 5.98032C34.0524 9.9613 23.9601 18.727 18.0059 30.2467C18.0762 30.3017 18.1449 30.36 18.2096 30.4247L44.5766 56.7917C44.6414 56.8564 44.6995 56.925 44.7545 56.9953C56.2742 51.0409 65.0399 40.9487 69.0209 33.2521ZM43.609 15.8553C47.8923 11.572 54.8621 11.5716 59.1457 15.8553C61.2208 17.9303 62.3635 20.6893 62.3635 23.6238C62.3635 26.5583 61.2208 29.3173 59.1457 31.3922C57.0043 33.5337 54.1903 34.6046 51.3774 34.6049C48.5636 34.6051 45.751 33.5343 43.609 31.3922C41.5339 29.3173 40.391 26.5583 40.391 23.6238C40.391 20.6893 41.5339 17.9303 43.609 15.8553Z" fill="black"/>
<path d="M46.7159 28.2849C49.286 30.855 53.4681 30.8551 56.0382 28.2849C57.2831 27.0398 57.9688 25.3845 57.9688 23.6238C57.9688 21.863 57.2831 20.2077 56.0382 18.9628C54.7532 17.6777 53.0651 17.0352 51.377 17.0352C49.6891 17.0352 48.001 17.6777 46.716 18.9628C45.4711 20.2077 44.7852 21.863 44.7852 23.6238C44.7852 25.3845 45.4709 27.0399 46.7159 28.2849Z" fill="black"/>
<path d="M2.24226 61.8067C2.80461 61.8067 3.36696 61.5922 3.79587 61.163L10.9696 53.9893C11.8277 53.1312 11.8277 51.74 10.9696 50.8819C10.1117 50.0238 8.72038 50.0238 7.86228 50.8819L0.688501 58.0557C-0.169605 58.9138 -0.169605 60.3049 0.688501 61.163C1.11755 61.5921 1.6799 61.8067 2.24226 61.8067Z" fill="black"/>
<path d="M17.5432 57.4566C16.6852 56.5985 15.2939 56.5985 14.4358 57.4566L0.643579 71.2489C-0.214526 72.107 -0.214526 73.4982 0.643579 74.3563C1.07263 74.7853 1.63498 74.9998 2.19734 74.9998C2.75969 74.9998 3.32204 74.7853 3.75095 74.3561L17.543 60.564C18.4013 59.7059 18.4013 58.3148 17.5432 57.4566Z" fill="black"/>
<path d="M21.0105 64.0308L13.8369 71.2046C12.9788 72.0627 12.9788 73.4538 13.8369 74.3119C14.266 74.741 14.8283 74.9556 15.3905 74.9556C15.9527 74.9556 16.5152 74.7411 16.9441 74.3119L24.1179 67.1382C24.976 66.2801 24.976 64.8889 24.1179 64.0308C23.26 63.1727 21.8687 63.1727 21.0105 64.0308Z" fill="black"/>
</g>
</mask>
<g mask="url(#mask0_156_6398)">
<path d="M75 0H0V75H75V0Z" fill="#F39331"/>
<path d="M30.9998 69.4785L1.75586 42L-15.3863 60.2435L13.8576 87.7221L30.9998 69.4785Z" fill="#F39331"/>
<path d="M52 32C56.4183 32 60 27.9706 60 23C60 18.0294 56.4183 14 52 14C47.5817 14 44 18.0294 44 23C44 27.9706 47.5817 32 52 32Z" fill="#F39331"/>
</g>
</g>
<defs>
<clipPath id="clip0_156_6398">
<rect width="75" height="75" fill="white"/>
</clipPath>
</defs>
</svg>
