<svg width="428" height="389" viewBox="0 0 428 389" fill="none" xmlns="http://www.w3.org/2000/svg">
<path d="M205.801 31.0001C128.001 66.0001 198.601 128.3 153.701 162.3C108.801 196.3 -13.2991 157 33.3009 245.2C88.0009 348.8 327.301 334.4 378.901 207.3C430.501 80.2001 283.601 -3.99988 205.801 31.0001Z" fill="#0A429F"/>
<path opacity="0.9" d="M205.801 31.0001C128.001 66.0001 198.601 128.3 153.701 162.3C108.801 196.3 -13.2991 157 33.3009 245.2C88.0009 348.8 327.301 334.4 378.901 207.3C430.501 80.2001 283.601 -3.99988 205.801 31.0001Z" fill="white"/>
<path d="M210 369.8C317.088 369.8 403.9 364.741 403.9 358.5C403.9 352.259 317.088 347.2 210 347.2C102.912 347.2 16.0996 352.259 16.0996 358.5C16.0996 364.741 102.912 369.8 210 369.8Z" fill="#E4EDF5"/>
<path d="M255.6 113.5H370.4C372.3 113.5 373.9 115 373.9 117V306.7C373.9 308.6 372.4 310.2 370.4 310.2H255.6C253.7 310.2 252.1 308.7 252.1 306.7V117C252.2 115.1 253.7 113.5 255.6 113.5Z" fill="#2D5186"/>
<path d="M280.899 112.6H345.299C345.699 112.6 345.899 112.9 345.899 113.2V119.6H280.199V113.2C280.199 112.9 280.499 112.6 280.899 112.6Z" fill="#273645"/>
<path opacity="0.9" d="M369.1 119.7H257V304H369.1V119.7Z" fill="white"/>
<path d="M334.999 128.1H315.299L315.099 127.4C314.699 126.3 313.499 125.7 312.399 126C311.799 126.2 311.199 126.7 310.999 127.4L310.799 128.1H291.099C289.499 128.1 288.199 126.8 288.199 125.2V118C288.199 116.4 289.499 115.1 291.099 115.1H335.099C336.699 115.1 337.999 116.4 337.999 118V125.3C337.899 126.9 336.599 128.2 334.999 128.1ZM316.699 126.1H334.999C335.499 126.1 335.899 125.7 335.899 125.2V118C335.899 117.5 335.499 117.1 334.999 117.1H290.999C290.499 117.1 290.099 117.5 290.099 118V125.3C290.099 125.8 290.499 126.2 290.999 126.2H309.399C310.499 124.2 312.999 123.4 314.999 124.5C315.699 124.9 316.299 125.4 316.699 126.1Z" fill="#273645"/>
<g opacity="0.5">
<path d="M334.999 128.1H315.299L315.099 127.4C314.699 126.3 313.499 125.7 312.399 126C311.799 126.2 311.199 126.7 310.999 127.4L310.799 128.1H291.099C289.499 128.1 288.199 126.8 288.199 125.2V118C288.199 116.4 289.499 115.1 291.099 115.1H335.099C336.699 115.1 337.999 116.4 337.999 118V125.3C337.899 126.9 336.599 128.2 334.999 128.1ZM316.699 126.1H334.999C335.499 126.1 335.899 125.7 335.899 125.2V118C335.899 117.5 335.499 117.1 334.999 117.1H290.999C290.499 117.1 290.099 117.5 290.099 118V125.3C290.099 125.8 290.499 126.2 290.999 126.2H309.399C310.499 124.2 312.999 123.4 314.999 124.5C315.699 124.9 316.299 125.4 316.699 126.1Z" fill="white"/>
</g>
<path d="M294.199 114H331.999C332.499 114 332.999 114.4 332.999 115V117.4C332.999 117.9 332.599 118.4 331.999 118.4H294.199C293.699 118.4 293.199 118 293.199 117.4V115C293.199 114.4 293.599 114 294.199 114Z" fill="#273645"/>
<path opacity="0.2" d="M294.199 114H331.999C332.499 114 332.999 114.4 332.999 115V117.4C332.999 117.9 332.599 118.4 331.999 118.4H294.199C293.699 118.4 293.199 118 293.199 117.4V115C293.199 114.4 293.599 114 294.199 114Z" fill="white"/>
<path d="M339.599 290.5C351.363 290.5 360.899 280.964 360.899 269.2C360.899 257.436 351.363 247.9 339.599 247.9C327.835 247.9 318.299 257.436 318.299 269.2C318.299 280.964 327.835 290.5 339.599 290.5Z" fill="#2D5186"/>
<path opacity="0.3" d="M339.599 269.2H360.899C360.899 281 351.399 290.5 339.599 290.5C327.799 290.5 318.299 281 318.299 269.2C318.299 257.4 327.799 247.9 339.599 247.9H339.699L339.599 269.2Z" fill="white"/>
<path opacity="0.3" d="M339.599 269.2L351.099 287.1C341.199 293.4 327.999 290.6 321.699 280.7C315.399 270.8 318.199 257.6 328.099 251.3C331.499 249.1 335.499 247.9 339.599 247.9H339.699L339.599 269.2Z" fill="white"/>
<path opacity="0.3" d="M339.599 269.2L321.699 280.6C315.399 270.7 318.299 257.5 328.199 251.2C331.599 249 335.599 247.9 339.599 247.9H339.699L339.599 269.2Z" fill="white"/>
<g opacity="0.5">
<path d="M265.1 152.7V202.9H361.1V152.7H265.1ZM360.3 160.5H343.7V153.4H360.3V160.5ZM307.2 160.5H290.1V153.4H307.2V160.5ZM308 153.4H325.1V160.5H308.1L308 153.4ZM307.2 161.3V202.2H290.1V161.3H307.2ZM308 161.3H325.1V202.2H308.1L308 161.3ZM325.8 161.3H342.9V202.2H325.8V161.3ZM325.8 160.5V153.4H342.9V160.5H325.8ZM289.4 153.4V160.5H265.8V153.4H289.4ZM265.8 161.3H289.4V202.2H265.8V161.3ZM343.7 202.2V161.3H360.3V202.2H343.7Z" fill="#273645"/>
<path d="M295.6 168.3H302.5C303.1 168.3 303.5 167.9 303.5 167.3C303.5 166.7 303.1 166.3 302.5 166.3H295.6C295 166.3 294.6 166.7 294.6 167.3C294.6 167.9 295 168.3 295.6 168.3Z" fill="#273645"/>
<path d="M313 177.3H320.5C321.1 177.3 321.5 176.9 321.5 176.3C321.5 175.7 321.1 175.3 320.5 175.3H313C312.4 175.3 312 175.7 312 176.3C312 176.9 312.5 177.3 313 177.3Z" fill="#273645"/>
<path d="M320.9 193.5H313C312.4 193.5 312 193.9 312 194.5C312 195.1 312.4 195.5 313 195.5H320.8C321.4 195.5 321.8 195.1 321.8 194.5C321.8 193.9 321.4 193.5 320.9 193.5Z" fill="#273645"/>
<path d="M338.3 184.4H330C329.4 184.4 329 184.8 329 185.4C329 186 329.4 186.4 330 186.4H338.3C338.9 186.4 339.3 186 339.3 185.4C339.3 184.8 338.9 184.4 338.3 184.4Z" fill="#273645"/>
<path d="M356.199 166.3H347.799C347.199 166.3 346.799 166.7 346.799 167.3C346.799 167.9 347.199 168.3 347.799 168.3H356.199C356.799 168.3 357.199 167.9 357.199 167.3C357.199 166.7 356.699 166.3 356.199 166.3Z" fill="#273645"/>
<path d="M355.099 193.5H347.799C347.199 193.5 346.799 193.9 346.799 194.5C346.799 195.1 347.199 195.5 347.799 195.5H355.099C355.699 195.5 356.099 195.1 356.099 194.5C356.099 193.9 355.599 193.5 355.099 193.5Z" fill="#273645"/>
<path d="M295.6 186.4H301.5C302.1 186.4 302.5 186 302.5 185.4C302.5 184.8 302.1 184.4 301.5 184.4H295.6C295 184.4 294.6 184.8 294.6 185.4C294.6 186 295 186.4 295.6 186.4Z" fill="#273645"/>
<path d="M302.5 193.5H295.6C295 193.5 294.6 193.9 294.6 194.5C294.6 195.1 295 195.5 295.6 195.5H302.5C303.1 195.5 303.5 195.1 303.5 194.5C303.5 193.9 303 193.5 302.5 193.5Z" fill="#273645"/>
<path d="M269.4 168.3H285.2C285.8 168.3 286.2 167.9 286.2 167.3C286.2 166.7 285.8 166.3 285.2 166.3H269.4C268.8 166.3 268.4 166.7 268.4 167.3C268.4 167.9 268.9 168.3 269.4 168.3Z" fill="#273645"/>
<path d="M269.4 177.3H280C280.6 177.3 281 176.9 281 176.3C281 175.7 280.6 175.3 280 175.3H269.5C268.9 175.3 268.5 175.7 268.5 176.3C268.5 176.9 268.9 177.3 269.4 177.3Z" fill="#273645"/>
<path d="M285.2 184.4H269.4C268.8 184.4 268.4 184.8 268.4 185.4C268.4 186 268.8 186.4 269.4 186.4H285.2C285.8 186.4 286.2 186 286.2 185.4C286.2 184.8 285.8 184.4 285.2 184.4Z" fill="#273645"/>
<path d="M277.3 193.5H269.4C268.8 193.5 268.4 193.9 268.4 194.5C268.4 195.1 268.8 195.5 269.4 195.5H277.3C277.9 195.5 278.3 195.1 278.3 194.5C278.3 193.9 277.9 193.5 277.3 193.5Z" fill="#273645"/>
</g>
<g opacity="0.5">
<path d="M303.5 142.1H266.1C265.5 142.1 265.1 141.7 265.1 141.1C265.1 140.5 265.5 140.1 266.1 140.1H303.5C304.1 140.1 304.5 140.5 304.5 141.1C304.5 141.7 304.1 142.1 303.5 142.1Z" fill="#273645"/>
</g>
<g opacity="0.5">
<path d="M290.4 147.7H266.1C265.5 147.7 265.1 147.3 265.1 146.7C265.1 146.1 265.5 145.7 266.1 145.7H290.4C291 145.7 291.4 146.1 291.4 146.7C291.4 147.3 290.9 147.7 290.4 147.7Z" fill="#273645"/>
</g>
<g opacity="0.5">
<path d="M314.4 211.6H266.1C265.5 211.6 265.1 211.2 265.1 210.6C265.1 210 265.5 209.6 266.1 209.6H314.4C315 209.6 315.4 210 315.4 210.6C315.4 211.2 314.9 211.6 314.4 211.6Z" fill="#273645"/>
</g>
<path d="M271.1 251.2H265.1V257.2H271.1V251.2Z" fill="#2D5186"/>
<g opacity="0.5">
<path d="M305 255.2H275.4C274.8 255.2 274.4 254.8 274.4 254.2C274.4 253.6 274.8 253.2 275.4 253.2H305C305.6 253.2 306 253.6 306 254.2C306 254.8 305.6 255.2 305 255.2Z" fill="#273645"/>
</g>
<path d="M271.1 261.2H265.1V267.2H271.1V261.2Z" fill="#2D5186"/>
<g opacity="0.5">
<path d="M305 265.2H275.4C274.8 265.2 274.4 264.8 274.4 264.2C274.4 263.6 274.8 263.2 275.4 263.2H305C305.6 263.2 306 263.6 306 264.2C306 264.8 305.6 265.2 305 265.2Z" fill="#273645"/>
</g>
<path d="M271.1 271.2H265.1V277.2H271.1V271.2Z" fill="#2D5186"/>
<g opacity="0.5">
<path d="M305 275.2H275.4C274.8 275.2 274.4 274.8 274.4 274.2C274.4 273.6 274.8 273.2 275.4 273.2H305C305.6 273.2 306 273.6 306 274.2C306 274.8 305.6 275.2 305 275.2Z" fill="#273645"/>
</g>
<path d="M271.1 281.2H265.1V287.2H271.1V281.2Z" fill="#2D5186"/>
<g opacity="0.5">
<path d="M305 285.2H275.4C274.8 285.2 274.4 284.8 274.4 284.2C274.4 283.6 274.8 283.2 275.4 283.2H305C305.6 283.2 306 283.6 306 284.2C306 284.8 305.6 285.2 305 285.2Z" fill="#273645"/>
</g>
<g opacity="0.5">
<path d="M359.7 220.5H273C272.4 220.5 272 220.1 272 219.5C272 218.9 272.4 218.5 273 218.5H359.7C360.3 218.5 360.7 218.9 360.7 219.5C360.7 220.1 360.2 220.5 359.7 220.5Z" fill="#273645"/>
<path d="M359.8 225.5H266.1C265.5 225.5 265.1 225.1 265.1 224.5C265.1 223.9 265.5 223.5 266.1 223.5H359.8C360.4 223.5 360.8 223.9 360.8 224.5C360.8 225.1 360.4 225.5 359.8 225.5Z" fill="#273645"/>
<path d="M359.899 230.5H266.199C265.599 230.5 265.199 230.1 265.199 229.5C265.199 228.9 265.599 228.5 266.199 228.5H359.899C360.499 228.5 360.899 228.9 360.899 229.5C360.899 230.1 360.499 230.5 359.899 230.5Z" fill="#273645"/>
<path d="M345.999 235.5H266.299C265.699 235.5 265.299 235.1 265.299 234.5C265.299 233.9 265.699 233.5 266.299 233.5H345.999C346.599 233.5 346.999 233.9 346.999 234.5C346.999 235.1 346.599 235.5 345.999 235.5Z" fill="#273645"/>
</g>
<path opacity="0.3" d="M271.1 261.2H265.1V267.2H271.1V261.2Z" fill="white"/>
<path opacity="0.5" d="M271.1 271.2H265.1V277.2H271.1V271.2Z" fill="white"/>
<path opacity="0.7" d="M271.1 281.2H265.1V287.2H271.1V281.2Z" fill="white"/>
<path d="M367.4 335.5C367.4 335.5 362.6 325.1 368.1 314.9C373.6 304.7 375.1 302.3 371.6 300.2C368.1 298.1 366.6 308.4 366.6 308.4C364.9 303.8 364.7 298.7 366.1 293.9C368.5 286.5 370 274.5 366.7 273.2C363.4 271.9 366.1 288.2 363.2 293.8C361.7 289.9 360.8 285.8 360.4 281.7C360 275.8 360.6 266.3 358 263.9C355.4 261.5 353.7 263.1 356.3 276.3C357.8 284.1 358.7 292.1 358.8 300.1C358.8 300.1 353.2 282.9 349.4 282.4C345.6 281.9 345.6 287.5 348.9 292.3C352.2 297.1 358.4 305.8 359.4 310.2C359.4 310.2 353.2 297.3 347.6 301.2C342 305.1 352.4 313 357.1 315.8C361.8 318.6 364.9 336.3 364.9 336.3L367.4 335.5Z" fill="#0A429F"/>
<path opacity="0.2" d="M367.4 335.5C367.4 335.5 362.6 325.1 368.1 314.9C373.6 304.7 375.1 302.3 371.6 300.2C368.1 298.1 366.6 308.4 366.6 308.4C364.9 303.8 364.7 298.7 366.1 293.9C368.5 286.5 370 274.5 366.7 273.2C363.4 271.9 366.1 288.2 363.2 293.8C361.7 289.9 360.8 285.8 360.4 281.7C360 275.8 360.6 266.3 358 263.9C355.4 261.5 353.7 263.1 356.3 276.3C357.8 284.1 358.7 292.1 358.8 300.1C358.8 300.1 353.2 282.9 349.4 282.4C345.6 281.9 345.6 287.5 348.9 292.3C352.2 297.1 358.4 305.8 359.4 310.2C359.4 310.2 353.2 297.3 347.6 301.2C342 305.1 352.4 313 357.1 315.8C361.8 318.6 364.9 336.3 364.9 336.3L367.4 335.5Z" fill="#273645"/>
<path d="M363.7 339.8C363.7 339.8 368.3 329.4 362.8 319.2C357.3 309 355.7 306.7 359.1 304.5C362.5 302.3 364.2 312.6 364.2 312.6C365.9 307.9 366 302.9 364.5 298.1C362 290.7 360.4 278.7 363.6 277.4C366.8 276.1 364.4 292.4 367.3 297.9C368.7 294 369.6 289.9 370 285.7C370.3 279.7 369.6 270.3 372.2 267.8C374.8 265.3 376.4 267 374.1 280.1C372.7 287.9 371.9 295.9 371.9 303.9C371.9 303.9 377.3 286.6 381.1 286.1C384.9 285.6 384.9 291.1 381.8 296C378.7 300.9 372.5 309.6 371.5 314.1C371.5 314.1 377.5 301.1 383.1 305C388.7 308.9 378.4 316.9 373.8 319.7C369.2 322.5 366.2 340.3 366.2 340.3L363.7 339.8Z" fill="#0A429F"/>
<path d="M385.001 332.3H346.801L349.901 359.7H381.901L385.001 332.3Z" fill="#273645"/>
<path d="M248.8 281.7H99.9004V305.7H248.8V281.7Z" fill="#0A429F"/>
<path opacity="0.8" d="M248.8 281.7H99.9004V305.7H248.8V281.7Z" fill="white"/>
<path opacity="0.2" d="M248.801 288.1V286.1L146.801 286.9L248.801 288.1Z" fill="#273645"/>
<path opacity="0.2" d="M248.8 296.5V295L203 296.6L248.8 296.5Z" fill="#273645"/>
<path opacity="0.2" d="M248.8 302.1V300.1L175 301.3L248.8 302.1Z" fill="#273645"/>
<path opacity="0.2" d="M133.202 281.7L131.102 299.6L133.702 296.9C134.602 300.2 136.202 303.2 138.402 305.7C140.002 303.6 141.302 301.3 142.202 298.8L211.802 298L142.902 296.5C143.102 295.5 143.202 294.5 143.202 293.5C143.202 292.7 143.102 291.8 143.002 291L245.102 290.7L142.502 290C142.102 288.7 141.602 287.3 141.002 286.1C142.502 284.8 144.402 284.1 146.302 284.1H248.802V281.7H133.202Z" fill="#273645"/>
<path d="M135.501 293.6C135.501 299.6 140.401 304.4 146.401 304.4H250.601C251.001 304.4 251.401 304.8 251.401 305.2V306.1C251.401 306.5 251.001 306.9 250.601 306.9H96.6008C89.3008 306.9 83.3008 300.9 83.3008 293.6V293.5C83.5008 286.1 89.6008 280.2 96.9008 280.3H250.501C250.901 280.3 251.301 280.7 251.301 281.1V282C251.301 282.4 250.901 282.8 250.501 282.8H146.601C140.601 282.7 135.601 287.5 135.501 293.6Z" fill="#0A429F"/>
<path opacity="0.4" d="M135.501 293.6C135.501 299.6 140.401 304.4 146.401 304.4H250.601C251.001 304.4 251.401 304.8 251.401 305.2V306.1C251.401 306.5 251.001 306.9 250.601 306.9H96.6008C89.3008 306.9 83.3008 300.9 83.3008 293.6V293.5C83.5008 286.1 89.6008 280.2 96.9008 280.3H250.501C250.901 280.3 251.301 280.7 251.301 281.1V282C251.301 282.4 250.901 282.8 250.501 282.8H146.601C140.601 282.7 135.601 287.5 135.501 293.6Z" fill="white"/>
<path d="M135.5 293.6C135.5 299.6 140.4 304.4 146.4 304.4H250.6C251 304.4 251.4 304.8 251.4 305.2V306.1C251.4 306.5 251 306.9 250.6 306.9H145.7C138.3 306.9 132.4 300.9 132.4 293.6V293.5C132.6 286.1 138.6 280.3 146 280.3H250.5C250.9 280.3 251.3 280.7 251.3 281.1V282C251.3 282.4 250.9 282.8 250.5 282.8H146.6C140.6 282.7 135.6 287.5 135.5 293.6Z" fill="#0A429F"/>
<path d="M155.102 287.1V296.7L158.602 293.3L161.902 296.6V287.1H155.102Z" fill="#273645"/>
<path opacity="0.6" d="M135.5 293.6C135.5 299.6 140.4 304.4 146.4 304.4H250.6C251 304.4 251.4 304.8 251.4 305.2V306.1C251.4 306.5 251 306.9 250.6 306.9H145.7C138.3 306.9 132.4 300.9 132.4 293.6V293.5C132.6 286.1 138.6 280.3 146 280.3H250.5C250.9 280.3 251.3 280.7 251.3 281.1V282C251.3 282.4 250.9 282.8 250.5 282.8H146.6C140.6 282.7 135.6 287.5 135.5 293.6Z" fill="white"/>
<path d="M255.9 334.6H107V358.6H255.9V334.6Z" fill="#0A429F"/>
<path opacity="0.7" d="M255.9 334.6H107V358.6H255.9V334.6Z" fill="white"/>
<path opacity="0.2" d="M256 340.9V338.9L154 339.8L256 340.9Z" fill="#273645"/>
<path opacity="0.2" d="M256.001 349.3V347.8L210.201 349.4L256.001 349.3Z" fill="#273645"/>
<path opacity="0.2" d="M256.001 354.9V353L182.201 354.1L256.001 354.9Z" fill="#273645"/>
<path opacity="0.2" d="M140.302 334.6L138.102 352.5L140.702 349.8C141.602 353.1 143.202 356.1 145.402 358.6C147.002 356.5 148.202 354.2 149.202 351.7L218.802 350.9L149.902 349.4C150.102 348.4 150.202 347.4 150.202 346.4C150.202 345.6 150.102 344.7 150.002 343.9L252.102 343.7L149.802 342.9C149.402 341.6 148.902 340.3 148.302 339C149.802 337.7 151.702 337 153.602 337H256.002V334.7L140.302 334.6Z" fill="#273645"/>
<path d="M142.601 346.4C142.601 352.4 147.401 357.3 153.401 357.3C153.401 357.3 153.401 357.3 153.501 357.3H257.701C258.101 357.3 258.501 357.7 258.501 358.1V359C258.501 359.4 258.101 359.8 257.701 359.8H95.6008C88.2008 359.8 82.3008 353.8 82.3008 346.5C82.3008 346.5 82.3008 346.5 82.3008 346.4C82.5008 339 88.6008 333.1 95.9008 333.2H257.701C258.101 333.2 258.501 333.6 258.501 334V334.9C258.501 335.3 258.101 335.7 257.701 335.7H153.801C147.801 335.6 142.801 340.4 142.601 346.4Z" fill="#273645"/>
<path opacity="0.2" d="M142.601 346.4C142.601 352.4 147.401 357.3 153.401 357.3C153.401 357.3 153.401 357.3 153.501 357.3H257.701C258.101 357.3 258.501 357.7 258.501 358.1V359C258.501 359.4 258.101 359.8 257.701 359.8H95.6008C88.2008 359.8 82.3008 353.8 82.3008 346.5C82.3008 346.5 82.3008 346.5 82.3008 346.4C82.5008 339 88.6008 333.1 95.9008 333.2H257.701C258.101 333.2 258.501 333.6 258.501 334V334.9C258.501 335.3 258.101 335.7 257.701 335.7H153.801C147.801 335.6 142.801 340.4 142.601 346.4Z" fill="white"/>
<path d="M142.602 346.4C142.602 352.4 147.402 357.3 153.402 357.3C153.402 357.3 153.402 357.3 153.502 357.3H257.702C258.102 357.3 258.502 357.7 258.502 358.1V359C258.502 359.4 258.102 359.8 257.702 359.8H152.902C145.602 359.8 139.602 353.8 139.602 346.5V346.4C139.802 339 145.802 333.1 153.202 333.2H257.702C258.102 333.2 258.502 333.6 258.502 334V334.9C258.502 335.3 258.102 335.7 257.702 335.7H153.802C147.802 335.6 142.802 340.4 142.602 346.4Z" fill="#273645"/>
<path d="M154 343.4V353L157.5 349.5L160.9 352.9V343.4H154Z" fill="#0A429F"/>
<path opacity="0.4" d="M142.602 346.4C142.602 352.4 147.402 357.3 153.402 357.3C153.402 357.3 153.402 357.3 153.502 357.3H257.702C258.102 357.3 258.502 357.7 258.502 358.1V359C258.502 359.4 258.102 359.8 257.702 359.8H152.902C145.602 359.8 139.602 353.8 139.602 346.5V346.4C139.802 339 145.802 333.1 153.202 333.2H257.702C258.102 333.2 258.502 333.6 258.502 334V334.9C258.502 335.3 258.102 335.7 257.702 335.7H153.802C147.802 335.6 142.802 340.4 142.602 346.4Z" fill="white"/>
<path d="M148.802 308.1H93.6016V332H148.802V308.1Z" fill="#0A429F"/>
<path opacity="0.8" d="M148.802 308.1H93.6016V332H148.802V308.1Z" fill="white"/>
<path opacity="0.2" d="M144.402 310.5H93.6016V308.1H144.302L144.402 310.5Z" fill="#273645"/>
<path opacity="0.2" d="M144.402 312.5L98.6016 313.5L144.402 314.5V312.5Z" fill="#273645"/>
<path opacity="0.2" d="M144.4 321.4L95.9004 322.2L144.4 322.9V321.4Z" fill="#273645"/>
<path opacity="0.2" d="M144.401 326.6L96.3008 327.5L144.401 328.5V326.6Z" fill="#273645"/>
<path opacity="0.2" d="M93.6016 315.9L140.102 317.3L93.6016 318.3V315.9Z" fill="#273645"/>
<path d="M216.801 320C216.801 326 211.901 330.8 205.901 330.8H91.1008C90.7008 330.8 90.3008 331.2 90.3008 331.6V332.5C90.3008 332.9 90.7008 333.3 91.1008 333.3H206.601C213.901 333.3 219.901 327.4 219.901 320V319.9C219.701 312.5 213.701 306.6 206.301 306.7H91.1008C90.7008 306.7 90.3008 307.1 90.3008 307.5V308.4C90.3008 308.8 90.7008 309.2 91.1008 309.2H205.601C211.701 309.1 216.601 313.9 216.801 320Z" fill="#273645"/>
<path opacity="0.4" d="M216.801 320C216.801 326 211.901 330.8 205.901 330.8H91.1008C90.7008 330.8 90.3008 331.2 90.3008 331.6V332.5C90.3008 332.9 90.7008 333.3 91.1008 333.3H206.601C213.901 333.3 219.901 327.4 219.901 320V319.9C219.701 312.5 213.701 306.6 206.301 306.7H91.1008C90.7008 306.7 90.3008 307.1 90.3008 307.5V308.4C90.3008 308.8 90.7008 309.2 91.1008 309.2H205.601C211.701 309.1 216.601 313.9 216.801 320Z" fill="white"/>
<path d="M258.7 320.1C258.7 326.7 253.3 332.1 246.7 332.1H144.4V308.1H246.7C253.3 308.1 258.7 313.5 258.7 320.1Z" fill="#0A429F"/>
<path opacity="0.7" d="M144.4 308.1V332.1H246.7C253.3 332.1 258.7 326.7 258.7 320.1C258.7 313.5 253.3 308.1 246.7 308.1H144.4Z" fill="white"/>
<path opacity="0.2" d="M144.4 314.5V312.5L246.4 313.3L144.4 314.5Z" fill="#273645"/>
<path opacity="0.2" d="M144.4 322.9V321.4L190.2 323L144.4 322.9Z" fill="#273645"/>
<path opacity="0.2" d="M144.4 328.5V326.6L218.2 327.7L144.4 328.5Z" fill="#273645"/>
<path opacity="0.2" d="M246.9 310.5C248.9 310.5 250.8 311.2 252.2 312.5C251.6 313.7 251.1 315 250.7 316.4L148.4 317.2L250.5 317.4C250.3 318.2 250.3 319.1 250.3 319.9C250.3 320.9 250.4 321.9 250.7 322.9L181.8 324.4L251.3 325.2C251.9 326.9 252.7 328.5 253.6 330C259 326.2 260.4 318.7 256.6 313.3C254.4 310.1 250.7 308.2 246.8 308.2H144.4V310.5H246.9Z" fill="#273645"/>
<path d="M257.7 320C257.7 326 252.8 330.8 246.8 330.8H142.7C142.3 330.8 141.9 331.2 141.9 331.6V332.5C141.9 332.9 142.3 333.3 142.7 333.3H247.5C254.8 333.3 260.8 327.4 260.8 320V319.9C260.6 312.5 254.6 306.6 247.2 306.7H142.7C142.3 306.7 141.9 307.1 141.9 307.5V308.4C141.9 308.8 142.3 309.2 142.7 309.2H246.6C252.6 309.1 257.6 313.9 257.7 320Z" fill="#273645"/>
<path d="M246.4 316.9V326.6L242.9 323.1L239.5 326.4V316.9H246.4Z" fill="#0A429F"/>
<path d="M273.4 181.9H270.9C270 181.9 269.1 182.4 268.5 183.2L266 186.8C265 188.3 264.8 190.1 265.4 191.7L265.8 192.7C269.9 192.9 274.6 190.1 274.6 190.1L276 189.4C277.2 188.9 277.8 187.4 277.3 186.2L276 183.5C275.5 182.5 274.5 181.8 273.4 181.9Z" fill="#EEB16D"/>
<path d="M226.001 186.3C232.401 191.5 239.401 196.5 247.001 199.5L246.001 199.3C246.701 199.5 248.501 198.8 249.501 198.3C254.801 195.7 259.901 191.8 264.701 188.2C265.801 187.4 267.401 187.6 268.201 188.8C268.801 189.7 268.801 190.9 268.201 191.8C263.401 197.8 252.601 210 244.101 208.2C234.701 205.4 226.501 200.2 219.101 193.8C214.401 189.3 220.801 182.1 226.001 186.3Z" fill="#EEB16D"/>
<path d="M212.501 179.2C210.201 185.7 213.901 192.2 223.001 199.8C227.501 199.1 233.601 189.9 233.601 189.9C233.601 189.9 220.901 177.2 212.501 179.2Z" fill="#0A429F"/>
<path d="M220.301 138.7C220.301 138.7 211.401 129.6 199.701 141C188.001 152.4 185.801 190.5 185.801 190.5L216.201 196.4C216.201 196.4 220.101 191.9 222.201 178.9C224.301 165.9 225.301 153.5 227.801 150.5C230.301 147.5 220.301 138.7 220.301 138.7Z" fill="#273645"/>
<path d="M246.4 331.1L239.9 328.5L242.4 318.9L244.8 310.1L253.1 312L249.6 322.1L246.4 331.1Z" fill="#EEB16D"/>
<path d="M196.601 244.7C196.601 244.7 251.601 237.3 266.901 247C282.201 256.8 252.601 316.2 252.601 316.2L243.301 314.2C243.301 314.2 250.201 267.1 249.701 265.1C249.201 263.1 223.301 276 187.801 277.2L196.601 244.7Z" fill="#273645"/>
<path opacity="0.2" d="M196.601 244.7C196.601 244.7 251.601 237.3 266.901 247C282.201 256.8 252.601 316.2 252.601 316.2L243.301 314.2C243.301 314.2 250.201 267.1 249.701 265.1C249.201 263.1 223.301 276 187.801 277.2L196.601 244.7Z" fill="#273645"/>
<path d="M242.801 311.3L254.501 315.1L252.401 320.4L241.701 316.7L242.801 311.3Z" fill="#273645"/>
<path d="M252.5 332.6C251.2 332.6 249 330.6 248.6 330.1C248.6 330.1 248.6 330 248.5 330C248.5 329.9 248.5 329.9 248.5 329.8C248.6 329.7 250 327.8 251.4 327.7C251.8 327.7 252.3 327.8 252.6 328.1C253 328.4 253.1 328.7 253 329.1C252.8 329.6 252 329.8 251.1 330C251.8 330.1 252.5 330.4 253.1 330.9C253.3 331.1 253.4 331.4 253.4 331.7C253.4 332.3 253.1 332.5 252.9 332.6C252.8 332.6 252.6 332.6 252.5 332.6ZM249.4 330.3C250.6 331.3 252.1 332.4 252.6 332.2C252.6 332.2 252.8 332.1 252.8 331.7C252.8 331.5 252.8 331.4 252.6 331.3C252.2 330.6 250.5 330.4 249.4 330.3ZM251.6 328.3C250.6 328.5 249.8 329 249.3 329.8C250.8 329.7 252.4 329.4 252.5 329C252.5 328.9 252.4 328.7 252.3 328.6C252.1 328.4 251.9 328.3 251.6 328.3Z" fill="#4498C3"/>
<path d="M238.6 324.4C238.9 323.7 247.8 327.2 247.8 327.2C247.8 327.2 251.6 334.7 256.6 337.8C261.6 340.9 257.5 343.1 251.4 341.2L236.3 336.3C232 334.9 235.9 332.1 238.6 324.4Z" fill="#273645"/>
<path opacity="0.4" d="M242.801 311.3L254.501 315.1L252.401 320.4L241.701 316.7L242.801 311.3Z" fill="white"/>
<path d="M275.102 350.2L268.302 352.1L264.502 342.9L261.102 334.5L268.802 330.9L272.102 341.1L275.102 350.2Z" fill="#EEB16D"/>
<path d="M265.301 347.3C265.301 346.5 274.901 347.4 274.901 347.4C274.901 347.4 280.701 353.5 286.401 355C292.101 356.5 288.801 359.9 282.401 359.7L266.501 359.3C262.001 359.2 264.901 355.4 265.301 347.3Z" fill="#273645"/>
<path d="M280 349.9C278.6 349.7 277.2 349.3 276 348.6H275.9V348.5C275.9 348.5 275.9 348.5 275.9 348.4V348.3C275.9 348.2 276.8 346 278.1 345.5C278.5 345.3 279 345.4 279.3 345.6C279.7 345.8 279.9 346.1 279.9 346.4C279.9 346.9 279.1 347.4 278.3 347.8C279 347.7 279.8 347.8 280.5 348.1C280.7 348.2 280.9 348.5 281 348.7C281.1 349.1 281 349.5 280.8 349.7C280.5 349.9 280.2 350 280 349.9ZM276.8 348.5C278.2 349.1 280 349.7 280.4 349.4C280.4 349.4 280.6 349.3 280.5 348.9C280.5 348.7 280.4 348.6 280.2 348.5C279.5 348 277.9 348.3 276.8 348.5ZM278.6 345.9C278.5 345.9 278.3 345.9 278.2 346C277.4 346.5 276.8 347.2 276.5 348C278 347.5 279.4 346.8 279.4 346.3C279.4 346.2 279.2 346 279.1 346C278.9 345.9 278.7 345.9 278.6 345.9Z" fill="#4498C3"/>
<path d="M212.201 251.8C212.201 251.8 211.401 240.9 211.001 238.7C210.701 236.5 210.201 234.3 209.601 232.2C207.201 225 174.901 233.5 174.901 233.5L174.001 238.5C174.001 238.5 159.401 266 169.201 275.9C172.201 278.9 178.001 280.3 183.901 280.2C183.901 280.2 202.001 281.1 235.801 279.5C235.801 279.5 233.301 299.1 261.101 337.6L270.401 334.6C270.401 334.6 252.001 264.7 250.501 263.5C237.001 252.7 212.201 251.8 212.201 251.8Z" fill="#273645"/>
<path d="M259.4 337.2L270.9 333.1L272.5 338.6L261.8 342.2L259.4 337.2Z" fill="#273645"/>
<path d="M223.101 184.4C223.101 184.4 221.901 187.2 220.301 192.2C219.901 193.4 219.501 194.6 219.101 196C218.601 197.8 218.001 199.8 217.401 202C217.001 203.6 216.501 205.2 216.101 206.9C215.701 208.6 215.201 210.5 214.801 212.4C214.801 212.6 214.701 212.9 214.701 213.1C212.901 220.8 211.501 228.7 210.701 236.6L175.201 233.5C175.201 225.7 175.601 217.9 176.401 210.2C177.001 203.5 178.301 196.8 180.101 190.3C181.501 185.6 183.301 181.6 185.701 179C185.601 179 204.901 172.7 223.101 184.4Z" fill="#0A429F"/>
<path d="M205.001 173.9C194.301 170.5 190.201 178.9 190.201 178.9L195.901 178.3L207.501 192.8L214.301 184L218.601 186.3C218.401 186.3 214.301 176.8 205.001 173.9Z" fill="#0A429F"/>
<path opacity="0.6" d="M205.001 173.9C194.301 170.5 190.201 178.9 190.201 178.9L195.901 178.3L207.501 192.8L214.301 184L218.601 186.3C218.401 186.3 214.301 176.8 205.001 173.9Z" fill="white"/>
<path d="M207.101 192L197.301 177.3C201.901 175.2 205.001 166.4 205.701 161.4L212.601 171.9C210.301 175.3 208.801 179.1 214.001 182L207.101 192Z" fill="#EEB16D"/>
<path opacity="0.2" d="M208.5 165.7L212.6 171.9C212.1 172.7 211.6 173.5 211.2 174.3C209.1 173.4 207 170.3 207.5 168.2C207.6 167.3 208 166.5 208.5 165.7Z" fill="#273645"/>
<path d="M174.6 234.6L185.7 235.3L185.3 238.5L173.5 237.6L174.6 234.6Z" fill="#273645"/>
<path d="M211.601 240.3L186.701 238.6L187.101 235.4L211.201 237L211.601 240.3Z" fill="#273645"/>
<path d="M202.4 240.3H202.3L199.3 240.1C198.6 240.1 198 239.4 198 238.7L198.1 236.7C198.1 236.3 198.3 236 198.5 235.7C198.8 235.4 199.1 235.3 199.5 235.3L202.6 235.5C203.4 235.5 203.9 236.2 203.9 236.9L203.8 239C203.8 239.8 203.2 240.4 202.4 240.3ZM199.1 236.7L199 238.7C199 238.9 199.1 239.1 199.4 239.1L202.4 239.3C202.6 239.3 202.8 239.2 202.8 238.9L202.9 236.8C202.9 236.7 202.9 236.6 202.8 236.5C202.7 236.4 202.6 236.4 202.5 236.4L199.4 236.2C199.3 236.2 199.2 236.2 199.1 236.3C199.1 236.5 199 236.6 199.1 236.7Z" fill="white"/>
<path opacity="0.5" d="M259.4 337.2L270.9 333.1L272.5 338.6L261.8 342.2L259.4 337.2Z" fill="white"/>
<path d="M229.902 158.8C229.802 158.8 229.702 158.7 229.702 158.7C229.102 157.6 228.102 156.8 226.902 156.6C226.802 156.6 226.602 156.5 226.602 156.3C226.602 156.2 226.802 156 226.902 156.1C228.302 156.3 229.502 157.2 230.102 158.5C230.202 158.6 230.102 158.8 230.002 158.9L229.902 158.8Z" fill="#273645"/>
<path d="M226.6 163.1C226.7 164.5 227 165.9 227.4 167.2C226.7 167.6 225.8 167.6 225 167.2L226.6 163.1Z" fill="#F39331"/>
<path d="M228.801 161.6C228.501 162.2 228.001 162.6 227.601 162.4C227.201 162.2 227.101 161.6 227.301 161C227.501 160.4 228.101 160 228.501 160.2C228.901 160.4 229.101 161 228.801 161.6Z" fill="#273645"/>
<path d="M228.301 160.1H229.901C229.901 160.1 228.801 161 228.301 160.1Z" fill="#273645"/>
<path d="M205.8 167C205.8 167.1 205.9 167.2 205.9 167.3C206 167.5 206.1 167.7 206.2 167.9C206.8 169.1 207.7 170.2 208.8 171.1C212.2 173.9 215.2 174.8 217.8 174.1C217.9 174.1 218 174 218.2 174C222.1 172.5 225.2 168 227.8 161.9C228.9 159.5 229.7 157 230 154.4V154.3C230 154.3 230 154.1 230 154C230.3 151 229 148 226.6 146.1C225.6 145.3 224.5 144.6 223.3 144C211.9 138.1 200.3 156 205.8 167Z" fill="#EEB16D"/>
<path d="M230 154.3C230 154.3 226.6 162.7 217.2 162.3C217.2 162.3 209.7 169 204.8 166.7C198.2 163.6 197.1 151.3 204.1 142.9C213.4 132 232.6 140.5 230 154.3Z" fill="#273645"/>
<path d="M222.302 161.9C222.902 160.6 223.002 158 220.902 157.3C218.802 156.6 215.102 161 219.502 164.6C220.102 165.2 221.002 164.5 222.302 161.9Z" fill="#EEB16D"/>
<path d="M220.302 138.7C220.302 138.7 228.902 140.6 231.602 145.8C234.702 151.9 234.702 156.6 226.002 159.4C226.002 159.4 215.202 148.7 210.502 147.5C207.702 146.7 204.902 146.2 202.102 145.9C205.502 137 216.902 134.8 220.302 138.7Z" fill="#273645"/>
<path d="M217.301 162.3C211.901 173.2 199.901 191.6 187.201 178.6C187.201 178.6 191.801 163.9 201.001 157.8C210.201 151.7 217.301 162.3 217.301 162.3Z" fill="#273645"/>
<path d="M215.301 180.4C220.001 183.8 214.001 195.2 219.901 197.7C218.801 196.1 218.501 194.1 219.301 192.4C220.501 189.3 225.501 181.2 223.501 170.2L215.301 180.4Z" fill="#273645"/>
<path opacity="0.2" d="M191.2 204.3C191.2 204.3 183.6 209.4 176.4 210.1C177 203.4 178.3 196.8 180.1 190.3C181 189.8 182 189.5 183.1 189.4C188.4 189.5 190.4 194.5 190.4 194.5C190.9 197.7 191.2 201 191.2 204.3Z" fill="#273645"/>
<path d="M218.902 239.9L217.302 238C216.702 237.3 215.802 236.9 214.802 237L210.402 237.3C208.602 237.4 207.102 238.4 206.202 239.9L205.602 240.8C208.002 244.2 213.202 246 213.202 246L214.602 246.7C215.802 247.3 217.202 246.9 217.902 245.7L219.302 242.9C219.802 242 219.702 240.8 218.902 239.9Z" fill="#EEB16D"/>
<path d="M188.101 194C188.001 200.3 188.401 206.6 189.501 212.8C189.901 214.8 190.401 216.8 190.901 218.7L190.501 217.8C192.801 221.3 196.201 224.6 199.101 227.8L204.001 232.9L209.001 238C210.001 239 210.001 240.6 209.001 241.6C208.201 242.4 206.801 242.6 205.801 241.9C203.701 240.6 201.801 239.2 199.801 237.8C193.701 233.2 187.601 228.9 182.801 222.8C178.701 213.6 177.701 203.4 178.001 193.5C178.601 186.9 188.201 187.3 188.101 194Z" fill="#EEB16D"/>
<path d="M185.301 179C178.701 181.2 176.001 188.2 175.701 200.1C179.101 203.2 190.101 202.2 190.101 202.2C190.101 202.2 192.101 184.3 185.301 179Z" fill="#0A429F"/>
<path d="M255.901 249.1V252.2C255.901 253 254.901 253.3 254.101 253.3H191.001C190.201 253.3 189.201 253 189.201 252.2V249L255.901 249.1Z" fill="#273645"/>
<path opacity="0.4" d="M255.901 249.1V252.2C255.901 253 254.901 253.3 254.101 253.3H191.001C190.201 253.3 189.201 253 189.201 252.2V249L255.901 249.1Z" fill="white"/>
<path opacity="0.2" d="M255.901 249.1V252.2C255.901 253 254.901 253.3 254.101 253.3H212.501C211.701 253.3 210.701 253 210.701 252.2V249L255.901 249.1Z" fill="#273645"/>
<path d="M266.4 216.4L258.9 250.5C258.6 251.6 257.6 252.4 256.5 252.4H215.5C214.6 252.4 213.9 251.6 213.9 250.7C213.9 250.6 213.9 250.4 214 250.3L221.5 216.5C221.8 215.4 222.8 214.7 223.9 214.8H264.9C266 214.7 266.7 215.3 266.4 216.4Z" fill="#273645"/>
<path opacity="0.4" d="M266.401 216.4L258.901 250.5C258.601 251.6 257.601 252.4 256.501 252.4H216.901C216.001 252.4 215.301 251.6 215.301 250.7C215.301 250.6 215.301 250.4 215.401 250.3L222.901 216.5C223.201 215.4 224.201 214.7 225.301 214.8H264.901C266.001 214.7 266.701 215.3 266.401 216.4Z" fill="white"/>
<path opacity="0.2" d="M246.2 233.7C246.2 236.6 243.1 239 240.8 239C238.5 239 237.2 236.6 237.8 233.7C238.4 230.8 240.7 228.5 243 228.4C242.4 231.3 243.8 233.7 246 233.7H246.2Z" fill="#273645"/>
</svg>
