<svg width="125" height="197" viewBox="0 0 125 197" fill="none" xmlns="http://www.w3.org/2000/svg">
<path d="M42 10.34C42 10.34 31.12 7.14999 20.81 18.34C11.16 28.77 11.68 43.75 11.19 56.19C10.85 64.85 9.93 75.19 6.39 83.19C4.99 86.37 2.14 88.29 1.39 91.84C1.02148 93.7394 1.06374 95.6958 1.51391 97.5775C1.96409 99.4593 2.81177 101.223 4 102.75C7.69 107.47 13.86 109.75 19.89 110.37L23.89 101.7C25.9828 104.358 27.3599 107.508 27.89 110.85C28.47 114.52 52.65 113.29 55.73 113.3C68.96 113.36 83.21 113.71 96.13 110.66C97.3433 110.494 98.4716 109.943 99.35 109.09C99.8373 108.42 100.163 107.647 100.3 106.83C100.973 103.962 101.308 101.026 101.3 98.08C102.571 99.6639 103.392 101.56 103.68 103.57C103.82 104.62 103.89 105.83 104.74 106.47C105.59 107.11 106.9 106.86 107.97 106.54C114.09 104.72 123.09 101.89 123.69 94.54C123.883 91.7273 122.964 88.9513 121.13 86.81C120.31 85.81 119.32 85.02 118.56 84.01C116.86 81.78 116.38 78.91 115.95 76.16C114.648 68.3713 113.933 60.4958 113.81 52.6C113.75 42.13 111.33 31.6 105.51 22.6C92.42 2.26999 57.25 -7 42 10.34Z" fill="#725858"/>
<path d="M44.77 114.48C32.31 114.48 27.31 113.48 26.92 111C26.5054 108.387 25.5408 105.892 24.09 103.68L20.82 110.78C20.7339 110.968 20.5914 111.125 20.4123 111.229C20.2332 111.333 20.0262 111.379 19.82 111.36C15.64 110.95 7.93001 109.36 3.24001 103.36C1.95988 101.718 1.04668 99.8199 0.561954 97.7947C0.077227 95.7696 0.0322268 93.664 0.429996 91.62C0.971676 89.5921 1.97441 87.7167 3.36 86.14C4.20886 85.1067 4.93068 83.9753 5.51 82.77C9.09 74.64 9.91 64.26 10.23 56.11C10.28 54.94 10.31 53.74 10.35 52.53C10.71 40.72 11.13 27.34 20.11 17.62C29.42 7.54 39.11 8.69 41.69 9.22C47.69 2.69 56.95 -0.470001 67.84 0.319999C83.23 1.43 98.73 10.14 106.41 21.98C111.88 30.42 114.8 40.98 114.87 52.55C114.981 60.4095 115.693 68.2491 117 76C117.39 78.49 117.84 81.32 119.42 83.4C119.837 83.9378 120.292 84.4457 120.78 84.92C121.18 85.32 121.58 85.73 121.95 86.17C123.956 88.5099 124.962 91.545 124.75 94.62C124.08 102.83 114.21 105.77 108.32 107.53C107.43 107.79 105.58 108.34 104.2 107.3C103.756 106.885 103.401 106.384 103.159 105.826C102.916 105.269 102.791 104.668 102.79 104.06V103.74C102.684 103.006 102.499 102.285 102.24 101.59C102.082 103.444 101.781 105.282 101.34 107.09C101.174 108.06 100.776 108.976 100.18 109.76C99.1745 110.791 97.8557 111.459 96.43 111.66C84.43 114.5 71.51 114.42 59.01 114.35H55.8H53.48C50.21 114.44 47.33 114.48 44.77 114.48ZM23.9 100.7C24.0502 100.701 24.1983 100.735 24.3334 100.801C24.4684 100.867 24.5869 100.962 24.68 101.08C26.8881 103.868 28.3414 107.178 28.9 110.69C29.24 111.36 32.34 112.91 53.37 112.35H55.76H58.97C71.35 112.42 84.16 112.49 95.92 109.72C96.9178 109.586 97.8519 109.154 98.6 108.48C98.9866 107.928 99.243 107.295 99.35 106.63C100.013 103.838 100.348 100.979 100.35 98.11C100.354 97.9058 100.42 97.7076 100.539 97.5421C100.659 97.3765 100.826 97.2516 101.019 97.1841C101.212 97.1166 101.421 97.1097 101.618 97.1644C101.814 97.2191 101.99 97.3327 102.12 97.49C103.518 99.2154 104.417 101.29 104.72 103.49V103.83C104.83 104.64 104.93 105.41 105.36 105.74C105.79 106.07 106.82 105.9 107.7 105.64C113.1 104.03 122.14 101.34 122.7 94.49C122.878 91.9406 122.04 89.4243 120.37 87.49C120.04 87.09 119.67 86.72 119.3 86.35C118.755 85.8128 118.244 85.2416 117.77 84.64C115.89 82.16 115.38 78.93 114.97 76.34C113.653 68.5026 112.934 60.5764 112.82 52.63C112.76 41.45 109.94 31.25 104.68 23.14C97.33 11.79 82.45 3.45 67.68 2.38C57.17 1.63 48.33 4.7 42.77 11.06C42.6471 11.1973 42.4887 11.2979 42.3123 11.3509C42.1358 11.4038 41.9482 11.407 41.77 11.36C41.32 11.23 31.31 8.52 21.59 19.04C13.11 28.22 12.71 41.2 12.36 52.66C12.36 53.88 12.29 55.08 12.24 56.26C11.92 64.58 11.07 75.26 7.36 83.65C6.71738 84.9971 5.91132 86.2599 4.96001 87.41C3.76296 88.765 2.88477 90.371 2.39 92.11C2.05227 93.8669 2.09532 95.6759 2.51624 97.4148C2.93716 99.1536 3.72616 100.782 4.83 102.19C8.83 107.3 15.35 108.87 19.32 109.35L23.01 101.35C23.0822 101.196 23.1926 101.062 23.3309 100.962C23.4692 100.863 23.6307 100.8 23.8 100.78L23.9 100.7Z" fill="#093F68"/>
<path d="M112.45 159.34V177.55C107.594 181.487 102.295 184.844 96.66 187.55C94.7733 188.463 92.8467 189.297 90.88 190.05C87.3404 191.429 83.7039 192.546 80 193.39C78.92 193.65 77.84 193.87 76.74 194.06C74.48 194.493 72.1833 194.827 69.85 195.06C67.85 195.27 65.75 195.38 63.66 195.42C63.1 195.42 62.55 195.42 61.99 195.42C61.43 195.42 60.81 195.42 60.23 195.42C58.17 195.38 56.1367 195.26 54.13 195.06C51.8033 194.84 49.5067 194.507 47.24 194.06C46.14 193.87 45.06 193.65 43.98 193.39C40.2798 192.549 36.6466 191.436 33.11 190.06C31.15 189.3 29.2233 188.467 27.33 187.56C21.6949 184.854 16.3955 181.497 11.54 177.56V159.34C11.54 136.87 26.82 118.64 45.68 118.64H78.3C97.17 118.64 112.45 136.87 112.45 159.34Z" fill="#FCBA19"/>
<path d="M62 196.43C61.4 196.43 60.8 196.43 60.21 196.43C58.21 196.43 56.1 196.27 54.04 196.06C51.73 195.84 49.38 195.51 47.04 195.06C45.87 194.85 44.79 194.63 43.74 194.38C39.9958 193.523 36.3193 192.394 32.74 191C30.74 190.21 28.74 189.36 26.89 188.47C21.1815 185.722 15.812 182.319 10.89 178.33C10.7753 178.237 10.6826 178.12 10.6186 177.986C10.5547 177.853 10.521 177.708 10.52 177.56V159.34C10.52 136.34 26.28 117.64 45.66 117.64H78.28C97.66 117.64 113.42 136.35 113.42 159.34V177.55C113.419 177.698 113.385 177.843 113.321 177.977C113.257 178.11 113.165 178.227 113.05 178.32C108.13 182.313 102.761 185.716 97.05 188.46C95.22 189.35 93.25 190.2 91.2 190.99C87.6207 192.384 83.9442 193.513 80.2 194.37C79.15 194.62 78.07 194.84 76.89 195.05C74.58 195.48 72.23 195.81 69.89 196.05C67.89 196.26 65.81 196.38 63.63 196.42C63.13 196.42 62.57 196.43 62 196.43ZM12.55 177.07C17.2465 180.834 22.356 184.051 27.78 186.66C29.57 187.52 31.49 188.35 33.48 189.13C36.9714 190.488 40.5577 191.587 44.21 192.42C45.21 192.66 46.28 192.88 47.42 193.08C49.69 193.5 51.98 193.83 54.24 194.08C56.24 194.29 58.24 194.41 60.24 194.44C61.37 194.44 62.49 194.44 63.62 194.44C65.76 194.44 67.81 194.28 69.73 194.08C72 193.87 74.29 193.54 76.55 193.08C77.7 192.88 78.75 192.66 79.76 192.42C83.4131 191.59 86.9996 190.49 90.49 189.13C92.49 188.35 94.41 187.52 96.2 186.66C101.623 184.049 106.732 180.832 111.43 177.07V159.34C111.43 137.45 96.56 119.64 78.29 119.64H45.69C27.42 119.64 12.55 137.45 12.55 159.34V177.07Z" fill="#093F68"/>
<path d="M112.85 159.34V177.55C107.994 181.487 102.695 184.844 97.06 187.55C95.1667 188.463 93.24 189.297 91.28 190.05C87.7434 191.426 84.1102 192.539 80.41 193.38C79.33 193.64 78.25 193.86 77.15 194.05C74.89 194.483 72.5933 194.817 70.26 195.05C68.26 195.26 66.16 195.37 64.07 195.41C63.51 195.41 62.96 195.41 62.4 195.41C61.84 195.41 61.22 195.41 60.64 195.41C58.58 195.37 56.5467 195.25 54.54 195.05C52.2133 194.83 49.9167 194.497 47.65 194.05C46.55 193.86 45.46 193.64 44.39 193.38C40.6898 192.539 37.0566 191.426 33.52 190.05C31.56 189.29 29.6333 188.457 27.74 187.55C22.1049 184.844 16.8056 181.487 11.95 177.55V159.34C11.95 136.87 27.23 118.64 46.09 118.64H78.71C97.57 118.64 112.85 136.87 112.85 159.34Z" fill="#FCBA19"/>
<path d="M62.4 196.43C61.8 196.43 61.2 196.43 60.61 196.43C58.54 196.43 56.46 196.27 54.44 196.07C52.12 195.85 49.77 195.51 47.44 195.07C46.29 194.87 45.17 194.64 44.13 194.39C40.3856 193.538 36.709 192.412 33.13 191.02C31.13 190.24 29.13 189.38 27.28 188.49C21.5684 185.752 16.1983 182.352 11.28 178.36C11.164 178.266 11.0705 178.147 11.0065 178.012C10.9425 177.877 10.9095 177.729 10.91 177.58V159.34C10.91 136.34 26.67 117.64 46.05 117.64H78.67C98.05 117.64 113.81 136.35 113.81 159.34V177.55C113.811 177.699 113.778 177.847 113.714 177.982C113.649 178.117 113.556 178.236 113.44 178.33C108.522 182.322 103.152 185.722 97.44 188.46C95.59 189.35 93.62 190.21 91.59 190.99C88.0104 192.383 84.334 193.512 80.59 194.37C79.52 194.62 78.43 194.85 77.28 195.05C74.99 195.48 72.64 195.82 70.28 196.05C68.33 196.25 66.28 196.37 64.02 196.41C63.53 196.42 63 196.43 62.4 196.43ZM13 177.07C17.693 180.834 22.7992 184.051 28.22 186.66C30.03 187.53 31.95 188.36 33.93 189.13C37.4237 190.481 41.0095 191.581 44.66 192.42C45.66 192.66 46.74 192.88 47.87 193.07C50.13 193.51 52.42 193.83 54.68 194.07C56.68 194.27 58.68 194.39 60.68 194.43C61.81 194.43 62.93 194.43 64.05 194.43C66.27 194.43 68.27 194.27 70.18 194.08C72.45 193.86 74.74 193.54 76.98 193.08C78.11 192.88 79.16 192.67 80.2 192.42C83.8542 191.582 87.4434 190.483 90.94 189.13C92.94 188.36 94.84 187.53 96.65 186.66C102.071 184.051 107.177 180.834 111.87 177.07V159.34C111.87 137.45 97 119.64 78.73 119.64H46.09C27.82 119.64 12.95 137.45 12.95 159.34L13 177.07Z" fill="#093F68"/>
<path d="M30.31 188.56C30.0448 188.56 29.7904 188.455 29.6029 188.267C29.4154 188.08 29.31 187.825 29.31 187.56V160.84C28.86 159.31 25.49 147.34 28.26 139.84C28.306 139.717 28.3758 139.603 28.4655 139.507C28.5552 139.41 28.663 139.333 28.7828 139.278C28.9026 139.223 29.032 139.192 29.1636 139.188C29.2953 139.183 29.4266 139.204 29.55 139.25C29.6734 139.296 29.7866 139.366 29.8831 139.455C29.9795 139.545 30.0574 139.653 30.1122 139.773C30.167 139.893 30.1976 140.022 30.2024 140.154C30.2072 140.285 30.186 140.417 30.14 140.54C27.47 147.72 31.23 160.23 31.27 160.36C31.2804 160.456 31.2804 160.554 31.27 160.65V187.51C31.2767 187.642 31.2571 187.774 31.2124 187.899C31.1676 188.023 31.0986 188.138 31.0093 188.236C30.92 188.333 30.8122 188.412 30.6922 188.468C30.5721 188.524 30.4422 188.555 30.31 188.56Z" fill="#093F68"/>
<path d="M93.69 188.56C93.4248 188.56 93.1704 188.455 92.9829 188.267C92.7954 188.08 92.69 187.825 92.69 187.56V160.7C92.6796 160.604 92.6796 160.506 92.69 160.41C92.69 160.28 96.49 147.76 93.82 140.59C93.7272 140.341 93.7372 140.065 93.8478 139.823C93.9585 139.581 94.1607 139.393 94.41 139.3C94.6593 139.207 94.9353 139.217 95.1772 139.328C95.4191 139.438 95.6072 139.641 95.7 139.89C98.47 147.34 95.1 159.31 94.65 160.89V187.61C94.6377 187.86 94.5323 188.096 94.3546 188.272C94.1769 188.447 93.9398 188.55 93.69 188.56Z" fill="#093F68"/>
<path d="M76 118.64V194.06C73.9083 194.5 71.7956 194.834 69.67 195.06C67.79 195.27 65.9 195.38 63.98 195.42C63.46 195.42 62.98 195.42 62.44 195.42H60.82C58.93 195.42 57.07 195.26 55.22 195.06C53.0943 194.835 50.9816 194.501 48.89 194.06V118.64H76Z" fill="white"/>
<path d="M62.44 196.43C61.89 196.43 61.33 196.43 60.79 196.43C58.89 196.43 56.97 196.27 55.11 196.06C52.9512 195.835 50.8051 195.501 48.68 195.06C48.4526 195.011 48.2493 194.885 48.1051 194.702C47.9609 194.52 47.8848 194.293 47.89 194.06V118.64C47.89 118.375 47.9954 118.12 48.1829 117.933C48.3704 117.745 48.6248 117.64 48.89 117.64H76C76.2652 117.64 76.5196 117.745 76.7071 117.933C76.8946 118.12 77 118.375 77 118.64V194.06C77.0047 194.294 76.9272 194.522 76.7811 194.705C76.6349 194.888 76.4293 195.013 76.2 195.06C74.0749 195.501 71.9288 195.835 69.77 196.06C67.96 196.27 66.07 196.39 64 196.43C63.4933 196.43 62.9733 196.43 62.44 196.43ZM49.89 193.24C51.69 193.59 53.51 193.86 55.32 194.05C57.13 194.24 58.99 194.36 60.85 194.4C61.85 194.4 62.91 194.4 63.94 194.4C65.94 194.4 67.8 194.24 69.55 194.05C71.3 193.86 73.2 193.59 75 193.24V119.64H49.89V193.24Z" fill="#093F68"/>
<path d="M48.89 175.59C48.7074 175.591 48.5279 175.543 48.371 175.449C48.2141 175.356 48.0858 175.221 48 175.06L36.82 154.06C36.7322 153.908 36.686 153.736 36.686 153.56C36.686 153.384 36.7322 153.212 36.82 153.06L42.82 142.58L35.82 134.11C35.6729 133.931 35.5925 133.707 35.5925 133.475C35.5925 133.243 35.6729 133.019 35.82 132.84L48.11 118C48.194 117.898 48.2973 117.814 48.4139 117.752C48.5305 117.69 48.6581 117.652 48.7895 117.639C48.9209 117.627 49.0535 117.64 49.1797 117.679C49.3059 117.718 49.4232 117.781 49.525 117.865C49.6268 117.949 49.711 118.052 49.7729 118.169C49.8347 118.286 49.873 118.413 49.8856 118.545C49.8981 118.676 49.8846 118.809 49.8459 118.935C49.8072 119.061 49.744 119.178 49.66 119.28L38 133.48L44.9 141.85C45.0335 142.008 45.1148 142.203 45.1327 142.409C45.1506 142.615 45.1042 142.821 45 143L38.9 153.59L49.82 174.13C49.901 174.282 49.9413 174.453 49.937 174.625C49.9327 174.797 49.8839 174.966 49.7953 175.114C49.7068 175.262 49.5815 175.384 49.4316 175.469C49.2818 175.555 49.1124 175.6 48.94 175.6L48.89 175.59Z" fill="#093F68"/>
<path d="M76.94 175.59C76.7759 175.589 76.6144 175.548 76.47 175.47C76.2371 175.345 76.0632 175.133 75.9863 174.88C75.9095 174.627 75.936 174.354 76.06 174.12L87 153.58L80.88 143C80.7767 142.824 80.7299 142.62 80.746 142.416C80.7621 142.212 80.8402 142.018 80.97 141.86L87.87 133.49L76.17 119.29C76.0859 119.188 76.0228 119.071 75.9841 118.945C75.9454 118.819 75.9319 118.686 75.9444 118.555C75.957 118.423 75.9953 118.296 76.0571 118.179C76.119 118.062 76.2032 117.959 76.305 117.875C76.4068 117.791 76.5241 117.728 76.6503 117.689C76.7765 117.65 76.9091 117.637 77.0405 117.649C77.1719 117.662 77.2995 117.7 77.4161 117.762C77.5327 117.824 77.636 117.908 77.72 118.01L89.94 132.86C90.0871 133.039 90.1675 133.263 90.1675 133.495C90.1675 133.727 90.0871 133.951 89.94 134.13L82.94 142.6L88.94 153.08C89.0278 153.232 89.074 153.404 89.074 153.58C89.074 153.756 89.0278 153.928 88.94 154.08L77.76 175.08C77.6775 175.227 77.559 175.351 77.4156 175.441C77.2722 175.53 77.1086 175.581 76.94 175.59Z" fill="#093F68"/>
<path d="M75.21 118.64C73.83 124.92 62.44 137.7 62.44 137.7C62.44 137.7 51.06 124.92 49.68 118.64H75.21Z" fill="#FFC9B0"/>
<path d="M62.44 138.7C62.3005 138.7 62.1625 138.67 62.0351 138.613C61.9076 138.556 61.7935 138.474 61.7 138.37C61.22 137.84 50.12 125.32 48.7 118.85C48.6685 118.704 48.6701 118.553 48.7047 118.407C48.7393 118.262 48.806 118.126 48.9 118.01C48.9941 117.894 49.113 117.801 49.248 117.737C49.383 117.672 49.5306 117.639 49.68 117.64H75.21C75.3594 117.639 75.507 117.672 75.642 117.737C75.777 117.801 75.8959 117.894 75.99 118.01C76.0823 118.127 76.1472 118.263 76.1801 118.408C76.2129 118.554 76.2129 118.705 76.18 118.85C74.76 125.32 63.66 137.85 63.18 138.37C63.0865 138.474 62.9724 138.556 62.8449 138.613C62.7175 138.67 62.5796 138.7 62.44 138.7ZM51 119.64C52.94 124.9 60.08 133.46 62.42 136.18C64.76 133.46 71.91 124.9 73.85 119.64H51Z" fill="#093F68"/>
<path d="M56 121.66V109.6H68.8V121.66" fill="#FFC9B0"/>
<path d="M68.8 122.66C68.5348 122.66 68.2804 122.555 68.0929 122.367C67.9054 122.18 67.8 121.925 67.8 121.66V110.6H57V121.66C57 121.925 56.8946 122.18 56.7071 122.367C56.5196 122.555 56.2652 122.66 56 122.66C55.7348 122.66 55.4804 122.555 55.2929 122.367C55.1054 122.18 55 121.925 55 121.66V109.6C55 109.335 55.1054 109.08 55.2929 108.893C55.4804 108.705 55.7348 108.6 56 108.6H68.8C69.0652 108.6 69.3196 108.705 69.5071 108.893C69.6946 109.08 69.8 109.335 69.8 109.6V121.66C69.8 121.925 69.6946 122.18 69.5071 122.367C69.3196 122.555 69.0652 122.66 68.8 122.66Z" fill="#093F68"/>
<path d="M25.81 87.06C32.6804 87.06 38.25 82.2605 38.25 76.34C38.25 70.4195 32.6804 65.62 25.81 65.62C18.9396 65.62 13.37 70.4195 13.37 76.34C13.37 82.2605 18.9396 87.06 25.81 87.06Z" fill="#FFC9B0"/>
<path d="M25.81 88.06C18.4 88.06 12.37 82.8 12.37 76.34C12.37 69.88 18.37 64.62 25.81 64.62C33.25 64.62 39.25 69.88 39.25 76.34C39.25 82.8 33.22 88.06 25.81 88.06ZM25.81 66.62C19.51 66.62 14.37 70.98 14.37 76.34C14.37 81.7 19.51 86.06 25.81 86.06C32.11 86.06 37.25 81.7 37.25 76.34C37.25 70.98 32.12 66.62 25.81 66.62Z" fill="#093F68"/>
<path d="M98.32 87.06C105.19 87.06 110.76 82.2605 110.76 76.34C110.76 70.4195 105.19 65.62 98.32 65.62C91.4496 65.62 85.88 70.4195 85.88 76.34C85.88 82.2605 91.4496 87.06 98.32 87.06Z" fill="#FFC9B0"/>
<path d="M98.33 88.06C90.92 88.06 84.89 82.8 84.89 76.34C84.89 69.88 90.89 64.62 98.33 64.62C105.77 64.62 111.76 69.88 111.76 76.34C111.76 82.8 105.73 88.06 98.33 88.06ZM98.33 66.62C92.02 66.62 86.89 70.98 86.89 76.34C86.89 81.7 92.02 86.06 98.33 86.06C104.64 86.06 109.76 81.7 109.76 76.34C109.76 70.98 104.63 66.62 98.33 66.62Z" fill="#093F68"/>
<path d="M85.21 44.55L73.08 29C73.08 29 70.35 38.6 68.67 44.55H49.54L45 30.52L39.7 44.42H24.86V73.81C24.8587 78.7367 25.8279 83.6154 27.7124 88.1675C29.5969 92.7196 32.3596 96.8559 35.8429 100.34C39.3262 103.824 43.4617 106.588 48.0132 108.474C52.5648 110.359 57.4433 111.33 62.37 111.33C67.2967 111.33 72.1752 110.359 76.7268 108.474C81.2783 106.588 85.4139 103.824 88.8971 100.34C92.3804 96.8559 95.1431 92.7196 97.0276 88.1675C98.9121 83.6154 99.8813 78.7367 99.88 73.81V44.59L85.21 44.55Z" fill="#FFC9B0"/>
<path d="M62.4 112.28C52.1888 112.267 42.3999 108.204 35.1804 100.983C27.961 93.7612 23.9006 83.9712 23.89 73.76V44.37C23.8911 44.1077 23.9952 43.8563 24.18 43.67C24.2726 43.5755 24.3831 43.5003 24.5049 43.4488C24.6268 43.3973 24.7577 43.3705 24.89 43.37H39.04L44.1 30.11C44.1701 29.9169 44.2979 29.7501 44.466 29.6323C44.6342 29.5144 44.8346 29.4512 45.04 29.4512C45.2454 29.4512 45.4458 29.5144 45.6139 29.6323C45.7821 29.7501 45.9099 29.9169 45.98 30.11L50.27 43.35H67.92C69.6 37.35 72.12 28.52 72.12 28.52C72.1717 28.3439 72.271 28.1854 72.4068 28.0619C72.5426 27.9385 72.7098 27.8548 72.89 27.82C73.0737 27.7799 73.2649 27.7925 73.4418 27.8561C73.6187 27.9198 73.774 28.0321 73.89 28.18L85.7 43.55H99.92C100.185 43.55 100.44 43.6553 100.627 43.8429C100.815 44.0304 100.92 44.2848 100.92 44.55V73.72C100.92 83.9398 96.8629 93.7416 89.6402 100.972C82.4174 108.202 72.6198 112.269 62.4 112.28ZM25.89 45.38V73.76C25.7761 78.6251 26.636 83.4639 28.4191 87.992C30.2022 92.52 32.8726 96.6459 36.2732 100.127C39.6738 103.608 43.736 106.374 48.2211 108.263C52.7062 110.152 57.5235 111.124 62.39 111.124C67.2565 111.124 72.0738 110.152 76.5589 108.263C81.044 106.374 85.1062 103.608 88.5068 100.127C91.9074 96.6459 94.5778 92.52 96.3609 87.992C98.144 83.4639 99.0039 78.6251 98.89 73.76V45.59H85.19C85.0381 45.5908 84.888 45.557 84.7511 45.4912C84.6143 45.4253 84.4942 45.3292 84.4 45.21L73.48 31.21L69.61 44.86C69.5495 45.0763 69.418 45.2659 69.2366 45.3984C69.0552 45.5308 68.8344 45.5983 68.61 45.59H49.48C49.2679 45.5892 49.0615 45.5209 48.8907 45.3951C48.72 45.2692 48.5936 45.0923 48.53 44.89L45 33.52L40.71 44.77C40.6391 44.9598 40.5122 45.1236 40.3461 45.2397C40.18 45.3557 39.9826 45.4186 39.78 45.42L25.89 45.38Z" fill="#093F68"/>
<path d="M43.7 74.87C45.6606 74.87 47.25 73.2806 47.25 71.32C47.25 69.3594 45.6606 67.77 43.7 67.77C41.7394 67.77 40.15 69.3594 40.15 71.32C40.15 73.2806 41.7394 74.87 43.7 74.87Z" fill="#093F68"/>
<path d="M80.3 74.87C82.2606 74.87 83.85 73.2806 83.85 71.32C83.85 69.3594 82.2606 67.77 80.3 67.77C78.3394 67.77 76.75 69.3594 76.75 71.32C76.75 73.2806 78.3394 74.87 80.3 74.87Z" fill="#093F68"/>
<path d="M62 84.25C60.848 84.2414 59.6982 84.1478 58.56 83.97C58.4306 83.9471 58.307 83.8989 58.1963 83.8281C58.0856 83.7574 57.9898 83.6656 57.9146 83.5579C57.8394 83.4501 57.7861 83.3286 57.7579 83.2003C57.7296 83.072 57.727 82.9393 57.75 82.81C57.7729 82.6806 57.8211 82.557 57.8918 82.4463C57.9626 82.3355 58.0544 82.2398 58.1621 82.1646C58.2699 82.0894 58.3914 82.0361 58.5197 82.0079C58.648 81.9796 58.7806 81.977 58.91 82C60.6885 82.2869 62.5015 82.2869 64.28 82C64.59 81.08 63.28 77.18 61.28 73.48C61.2153 73.3635 61.1744 73.2352 61.16 73.1027C61.1455 72.9702 61.1577 72.8361 61.1958 72.7084C61.2339 72.5806 61.2972 72.4618 61.3819 72.3589C61.4666 72.2559 61.571 72.171 61.689 72.109C61.807 72.047 61.9362 72.0092 62.069 71.9979C62.2018 71.9865 62.3355 72.0018 62.4623 72.0429C62.5892 72.084 62.7065 72.15 62.8074 72.2371C62.9083 72.3242 62.9908 72.4306 63.05 72.55C64.05 74.4 67.05 80.61 66.05 82.89C65.9372 83.1392 65.7684 83.3591 65.5568 83.5325C65.3452 83.706 65.0965 83.8283 64.83 83.89C63.9046 84.1237 62.9544 84.2446 62 84.25Z" fill="#093F68"/>
<path d="M62.4 96.07C57.6979 96.1357 53.0029 95.683 48.4 94.72C48.2655 94.6962 48.1374 94.6451 48.0234 94.5698C47.9095 94.4945 47.8121 94.3967 47.7374 94.2824C47.6627 94.1681 47.6122 94.0397 47.589 93.9051C47.5658 93.7705 47.5705 93.6326 47.6026 93.4999C47.6348 93.3672 47.6938 93.2424 47.776 93.1334C47.8582 93.0243 47.9619 92.9333 48.0806 92.8658C48.1993 92.7984 48.3307 92.756 48.4664 92.7412C48.6022 92.7264 48.7395 92.7396 48.87 92.78C53.3182 93.6879 57.8504 94.1204 62.39 94.07C66.6532 94.1659 70.912 93.736 75.07 92.79C75.1984 92.7458 75.3344 92.7282 75.4698 92.7382C75.6051 92.7483 75.7371 92.7858 75.8575 92.8485C75.9779 92.9112 76.0843 92.9978 76.1702 93.1029C76.256 93.2081 76.3196 93.3296 76.357 93.4601C76.3944 93.5906 76.4048 93.7274 76.3876 93.862C76.3704 93.9967 76.326 94.1265 76.2571 94.2434C76.1881 94.3603 76.0961 94.462 75.9865 94.5422C75.877 94.6225 75.7523 94.6795 75.62 94.71C75.43 94.77 70.78 96.07 62.4 96.07Z" fill="#093F68"/>
<path d="M49.75 61.6H33.28C32.8583 61.6 32.4539 61.4325 32.1557 61.1343C31.8575 60.8361 31.69 60.4317 31.69 60.01C31.69 59.5883 31.8575 59.1839 32.1557 58.8857C32.4539 58.5875 32.8583 58.42 33.28 58.42H49.75C50.1717 58.42 50.5761 58.5875 50.8743 58.8857C51.1725 59.1839 51.34 59.5883 51.34 60.01C51.34 60.4317 51.1725 60.8361 50.8743 61.1343C50.5761 61.4325 50.1717 61.6 49.75 61.6Z" fill="#093F68"/>
<path d="M90.72 61.6H74.25C73.8283 61.6 73.4239 61.4325 73.1257 61.1343C72.8275 60.8361 72.66 60.4317 72.66 60.01C72.66 59.5883 72.8275 59.1839 73.1257 58.8857C73.4239 58.5875 73.8283 58.42 74.25 58.42H90.72C91.1417 58.42 91.5461 58.5875 91.8443 58.8857C92.1425 59.1839 92.31 59.5883 92.31 60.01C92.31 60.4317 92.1425 60.8361 91.8443 61.1343C91.5461 61.4325 91.1417 61.6 90.72 61.6Z" fill="#093F68"/>
<path d="M57.49 144.19C57.3489 144.187 57.2101 144.155 57.0826 144.094C56.955 144.034 56.8417 143.947 56.75 143.84C47.91 133.43 47.91 133.09 47.91 132.64C47.9117 132.408 47.9942 132.184 48.1432 132.006C48.2921 131.828 48.4984 131.707 48.7266 131.664C48.9548 131.622 49.1907 131.66 49.3938 131.772C49.597 131.885 49.7547 132.064 49.84 132.28C50.31 133.04 53.99 137.49 57.53 141.68L61.7 137C61.882 136.821 62.1254 136.719 62.3803 136.714C62.6352 136.709 62.8825 136.801 63.0715 136.973C63.2605 137.144 63.377 137.381 63.3972 137.635C63.4173 137.889 63.3396 138.141 63.18 138.34L58.18 143.83C58.0949 143.933 57.99 144.018 57.8715 144.08C57.7529 144.142 57.6232 144.179 57.49 144.19Z" fill="#093F68"/>
<path d="M67 142.19C66.8605 142.19 66.7225 142.16 66.5951 142.103C66.4676 142.046 66.3535 141.964 66.26 141.86L61.26 136.37C61.1003 136.171 61.0227 135.919 61.0428 135.665C61.063 135.411 61.1795 135.174 61.3685 135.003C61.5575 134.831 61.8048 134.739 62.0597 134.744C62.3146 134.749 62.558 134.851 62.74 135.03L66.93 139.68C70.47 135.49 74.15 131.04 74.62 130.28C74.7053 130.064 74.863 129.885 75.0662 129.772C75.2693 129.66 75.5052 129.622 75.7334 129.664C75.9616 129.707 76.1678 129.828 76.3168 130.006C76.4658 130.184 76.5483 130.408 76.55 130.64C76.55 131.09 76.55 131.43 67.71 141.84C67.6183 141.947 67.505 142.034 67.3775 142.094C67.2499 142.155 67.1111 142.187 66.97 142.19H67Z" fill="#093F68"/>
<path d="M62.4 196.43C62.1348 196.43 61.8804 196.325 61.6929 196.137C61.5053 195.95 61.4 195.695 61.4 195.43V140.24C61.4 139.975 61.5053 139.72 61.6929 139.533C61.8804 139.345 62.1348 139.24 62.4 139.24C62.6652 139.24 62.9196 139.345 63.1071 139.533C63.2946 139.72 63.4 139.975 63.4 140.24V195.43C63.4 195.695 63.2946 195.95 63.1071 196.137C62.9196 196.325 62.6652 196.43 62.4 196.43Z" fill="#093F68"/>
</svg>
