<svg width="400" height="300" viewBox="0 0 400 300" fill="none" xmlns="http://www.w3.org/2000/svg">
<path d="M196.24 288.6L23.74 186.65C18.25 183.57 13.54 178.5 18.89 175.19L192 75.41C194.6 73.8 198.54 72.75 201.18 74.28L382.28 179.37C387.77 182.56 388.76 191.47 383.28 194.66L219 288.44C215.548 290.445 211.633 291.514 207.641 291.542C203.65 291.57 199.72 290.556 196.24 288.6Z" fill="#4444A5"/>
<path d="M183 211.06C165 221.36 147 231.79 129 242.14C148.44 254 174.71 269.71 178.94 272L233.19 240.48L183 211.06Z" fill="url(#paint0_linear_103_131)"/>
<path d="M272.92 218.41L320.78 190.61L260.05 155L210.52 180.58C215.72 184.35 267.21 215.34 272.92 218.41Z" fill="url(#paint1_linear_103_131)"/>
<path d="M261.52 7.22C274.71 15.48 307.89 34.67 319.2 41.61C321.76 43.18 322.2 45.52 322.2 48.53V188.94C321.503 189.749 320.539 190.283 319.483 190.444C318.426 190.606 317.347 190.384 316.44 189.82L260.77 158.36C258 156.73 255.82 155.05 255.82 151.84L256.3 9.77C256.27 6.68 258.91 5.58 261.52 7.22Z" fill="#FCBA19"/>
<path d="M256.38 8.76001L274.48 19.21V23.12C274.481 23.4486 274.569 23.7712 274.734 24.0554C274.899 24.3396 275.135 24.5757 275.42 24.74L289.42 32.83C289.608 32.9387 289.822 32.996 290.039 32.9961C290.256 32.9963 290.47 32.9394 290.658 32.831C290.847 32.7226 291.003 32.5666 291.112 32.3786C291.222 32.1907 291.279 31.9773 291.28 31.76V28.91L317.58 44.33C317.83 44.4779 318.037 44.6886 318.181 44.9411C318.325 45.1937 318.4 45.4794 318.4 45.77V186.17C318.404 186.371 318.355 186.569 318.257 186.745C318.159 186.92 318.016 187.067 317.843 187.168C317.67 187.27 317.473 187.324 317.272 187.324C317.071 187.325 316.873 187.271 316.7 187.17L255.79 151.86C255.682 152.951 255.874 154.05 256.347 155.039C256.819 156.028 257.553 156.869 258.47 157.47C261.63 159.47 317.11 190.88 317.11 190.88C317.11 190.88 321.5 192.88 322.78 187.63V46.35C322.782 45.4357 322.568 44.5339 322.154 43.7186C321.741 42.9033 321.139 42.1978 320.4 41.66C317.86 39.82 261.27 6.92001 261.27 6.92001C261.27 6.92001 257.28 5.07001 256.38 8.76001Z" fill="#124577"/>
<path d="M246.06 37.68V50.53C246.182 51.5474 246.615 52.5026 247.298 53.2664C247.981 54.0301 248.882 54.5655 249.88 54.8C253.36 55.59 253.88 51.01 253.88 51.01V41.52L246.06 37.68Z" fill="#C13D3D"/>
<path d="M253.63 42.79L254 56.32C254.122 57.3374 254.555 58.2927 255.238 59.0564C255.921 59.8201 256.822 60.3555 257.82 60.59C261.3 61.38 261.82 56.8 261.82 56.8V47.31L253.63 42.79Z" fill="#DD842A"/>
<path d="M261.73 47.39V60.24C261.852 61.2574 262.284 62.2127 262.968 62.9764C263.651 63.7401 264.552 64.2755 265.55 64.51C269.03 65.3 269.55 60.72 269.55 60.72V51.23L261.73 47.39Z" fill="#C13D3D"/>
<path d="M269.5 52.07V64.92C269.622 65.9374 270.055 66.8927 270.738 67.6564C271.421 68.4201 272.322 68.9555 273.32 69.19C276.8 69.98 277.32 65.4 277.32 65.4V55.91L269.5 52.07Z" fill="#DD842A"/>
<path d="M277.28 56V68.84C277.402 69.8574 277.835 70.8127 278.518 71.5764C279.201 72.3401 280.102 72.8755 281.1 73.11C284.58 73.9 285.1 69.32 285.1 69.32V59.83L277.28 56Z" fill="#C13D3D"/>
<path d="M284.92 61.24V74.09C285.042 75.1074 285.474 76.0627 286.158 76.8264C286.841 77.5901 287.742 78.1255 288.74 78.36C292.22 79.15 292.74 74.57 292.74 74.57V65.08L284.92 61.24Z" fill="#DD842A"/>
<path d="M284.92 61.9L303.39 35.87L310.51 40.22L292.7 66.49" fill="#F29D40"/>
<path d="M277.28 57.34L295.4 31.32L303.39 35.87L284.92 61.9" fill="#E04F4F"/>
<path d="M269.5 52.76L288.33 26.97L295.4 31.32L277.28 57.4" fill="#F29D40"/>
<path d="M261.73 48.03L280.01 22.29L288.33 26.97L269.5 52.7" fill="#E04F4F"/>
<path d="M253.84 43.18L271.33 17.44L280.01 22.29L261.73 48.03" fill="#F29D40"/>
<path d="M246.06 38.47L263.44 12.83L271.33 17.44L253.84 43.18" fill="#E04F4F"/>
<path d="M238.29 33.93L256.38 8.75999L263.44 12.83L246.06 38.47" fill="#F29D40"/>
<path d="M317.58 44.33C317.58 44.33 318.4 44.5 318.4 45.91V70.68L298.22 82.22L301 64.56L317.58 44.33Z" fill="#AA2B2B"/>
<path d="M292.7 66.49V78C292.822 79.0174 293.254 79.9726 293.938 80.7364C294.621 81.5001 295.522 82.0355 296.52 82.27C300 83.06 300.52 78.48 300.52 78.48L300.37 70.9L292.7 66.49Z" fill="#C13D3D"/>
<path d="M300.32 70.91L317.58 44.33L310.51 40.22L292.7 66.49" fill="#E04F4F"/>
<path d="M238.29 33.93V47.43C238.412 48.4474 238.844 49.4026 239.528 50.1664C240.211 50.9301 241.112 51.4655 242.11 51.7C245.59 52.49 246.11 47.91 246.11 47.91V38.42L238.29 33.93Z" fill="#DD842A"/>
<path d="M289.81 167.87C291.191 167.87 292.31 162.403 292.31 155.66C292.31 148.917 291.191 143.45 289.81 143.45C288.429 143.45 287.31 148.917 287.31 155.66C287.31 162.403 288.429 167.87 289.81 167.87Z" fill="#46BBCE"/>
<path d="M251.21 154.67C251.21 154.67 251.74 188.26 253.01 188.81C254.28 189.36 257.54 189.31 258.73 187.7C259.92 186.09 261.46 171.56 261.19 167.52C260.92 163.48 259.34 154.41 259.34 154.41" fill="#FFB288"/>
<path d="M250.75 189.87C251.516 188.677 252.03 187.339 252.26 185.94C254.91 186.6 256.98 187 259.26 185.64C259.7 187.55 261.26 189.94 261.12 191.41C260.94 193.73 258.97 192.98 257 193.58C255.61 194 254.63 195.43 253.78 196.75C252.454 198.175 250.707 199.138 248.794 199.498C246.881 199.858 244.903 199.596 243.15 198.75C242.907 198.192 242.758 197.597 242.71 196.99C242.39 194.32 249.33 191.91 250.75 189.87Z" fill="#29333F"/>
<path d="M268.64 128.13C268.653 125.621 268.83 123.116 269.17 120.63L264.17 119.63C253.29 124.5 251.17 154.63 251.17 154.63C251.17 154.63 258.78 158.63 260.92 158.08C262.66 157.63 267.08 144.26 268.66 139.28C268.59 135.59 268.53 131.86 268.64 128.13Z" fill="#DD842A"/>
<path d="M251.21 154.67L250.73 183.19C250.73 183.19 258.56 184.53 260.17 183.75C261.78 182.97 262.63 155.75 262.63 155.75L251.21 154.67Z" fill="#DD842A"/>
<path d="M266.3 146.55L264.51 129.84L262.63 155.8L266.3 146.55Z" fill="#B5641C"/>
<path d="M142.81 186.7C156.43 179.05 172.64 170.59 186.25 162.94L197.34 156.71C198.58 156.01 199.98 154.95 201.34 154.32C201.784 154.441 202.203 154.637 202.58 154.9C203.98 155.9 205.64 156.61 207.13 157.44L220.45 164.88C227.11 168.6 236.89 173.07 243.55 176.79C244.95 176.79 243.22 175.93 244.61 175.79L244.52 175.72L224.62 164.6L210 156.43C207.84 155.22 204.85 152.68 202.4 152.18C201 151.89 200.46 152.4 199.17 153.12L190.29 158.12L161.63 174.23L141.69 185.4C141.459 185.519 141.283 185.724 141.2 185.97C142.6 186 141.41 186.77 142.81 186.7Z" fill="#D8D8D8"/>
<path d="M199.15 216.69C186.48 207.95 172.75 200.95 159.85 192.57C158.63 191.78 157.5 193.73 158.71 194.51C171.61 202.89 185.34 209.89 198.01 218.63C199.2 219.45 200.33 217.5 199.15 216.69Z" fill="#D8D8D8"/>
<path d="M223.72 202.34C210.33 195.29 197.65 187.02 184.64 179.34C184.385 179.221 184.095 179.201 183.826 179.284C183.557 179.368 183.329 179.548 183.187 179.791C183.044 180.034 182.997 180.321 183.055 180.596C183.113 180.872 183.272 181.115 183.5 181.28C196.5 189 209.19 197.28 222.58 204.28C223.86 204.95 225 203.01 223.72 202.34Z" fill="#D8D8D8"/>
<path d="M188.92 217.82L186.7 216.61C186.426 216.461 186.187 216.254 186.001 216.003C185.815 215.753 185.685 215.465 185.62 215.16C185.22 213.21 184.98 208.97 189.74 207.16L192.08 208.59" fill="#3695C9"/>
<path d="M194.59 214.56C196.153 211.852 196.144 208.921 194.57 208.013C192.997 207.104 190.454 208.562 188.891 211.27C187.328 213.977 187.337 216.908 188.91 217.816C190.484 218.725 193.027 217.267 194.59 214.56Z" fill="#1174B5"/>
<path d="M194.68 209.55V206.91L191.47 205.25L187.36 206.87L186.68 209.28L188.49 207.74L190.68 209.06V211.51L194.68 209.55Z" fill="#747E80"/>
<path d="M194.68 209.55C194.68 209.55 194.19 214.25 192.46 214.55C190.73 214.85 190.39 211.23 190.68 210.55" fill="#747E80"/>
<path d="M149.87 244.47L147.65 243.26C147.376 243.111 147.137 242.904 146.951 242.653C146.765 242.403 146.635 242.115 146.57 241.81C146.17 239.86 145.93 235.62 150.69 233.81L153.03 235.24" fill="#3695C9"/>
<path d="M156.518 240.611C158.081 237.891 158.067 234.95 156.486 234.042C154.905 233.133 152.357 234.601 150.794 237.321C149.231 240.041 149.245 242.982 150.826 243.89C152.407 244.799 154.955 243.331 156.518 240.611Z" fill="#1174B5"/>
<path d="M155.64 236.21V233.57L152.43 231.91L148.32 233.53L147.64 235.94L149.45 234.4L151.64 235.72V238.17L155.64 236.21Z" fill="#747E80"/>
<path d="M155.64 236.21C155.64 236.21 155.15 240.91 153.42 241.21C151.69 241.51 151.35 237.89 151.64 237.21" fill="#747E80"/>
<path d="M184.39 265.47L182.17 264.26C181.896 264.111 181.657 263.904 181.471 263.653C181.285 263.403 181.155 263.115 181.09 262.81C180.69 260.86 180.45 256.62 185.21 254.81L187.55 256.24" fill="#3695C9"/>
<path d="M191.118 261.469C192.681 258.749 192.667 255.808 191.086 254.899C189.505 253.991 186.957 255.459 185.394 258.179C183.831 260.898 183.845 263.839 185.426 264.748C187.007 265.656 189.555 264.188 191.118 261.469Z" fill="#1174B5"/>
<path d="M190.15 257.21V254.57L186.94 252.91L182.83 254.53L182.15 256.93L183.96 255.4L186.15 256.71V259.17L190.15 257.21Z" fill="#747E80"/>
<path d="M190.15 257.21C190.15 257.21 189.66 261.91 187.93 262.21C186.2 262.51 185.86 258.89 186.15 258.21" fill="#747E80"/>
<path d="M230.21 241.52L228 240.31C227.726 240.161 227.487 239.954 227.301 239.703C227.115 239.453 226.985 239.165 226.92 238.86C226.52 236.91 226.28 232.67 231.04 230.86L233.38 232.29" fill="#3695C9"/>
<path d="M236.842 237.34C238.405 234.621 238.39 231.68 236.809 230.771C235.229 229.862 232.68 231.331 231.117 234.05C229.554 236.77 229.569 239.711 231.149 240.619C232.73 241.528 235.279 240.06 236.842 237.34Z" fill="#1174B5"/>
<path d="M235.97 233.26V230.62L232.76 228.96L228.65 230.58L227.97 232.98L229.78 231.45L231.97 232.76V235.22L235.97 233.26Z" fill="#747E80"/>
<path d="M236 233.26C236 233.26 235.51 237.96 233.78 238.26C232.05 238.56 231.71 234.94 232 234.26" fill="#747E80"/>
<path d="M239.77 195.68C226.23 188.01 212.87 179.78 199.06 172.61C195.81 170.92 192.53 174.24 189.57 175.9L163.08 190.77L144.08 201.45C143.852 201.615 143.693 201.858 143.635 202.134C143.577 202.409 143.624 202.696 143.767 202.939C143.909 203.182 144.137 203.362 144.406 203.446C144.675 203.529 144.965 203.509 145.22 203.39L186.33 180.3L195.53 175.13L197.53 174C198.04 173.71 196.24 173.37 197.25 174.15C199.54 175.93 202.58 177.15 205.1 178.6L218.1 185.96L238.65 197.6C238.905 197.719 239.195 197.739 239.464 197.656C239.733 197.572 239.961 197.392 240.103 197.149C240.246 196.906 240.293 196.619 240.235 196.344C240.177 196.068 240.018 195.825 239.79 195.66L239.77 195.68Z" fill="#D8D8D8"/>
<path d="M209.07 122.35L216.26 118.06C217.194 117.367 218.2 116.777 219.26 116.3C218.38 116.57 218.03 115.99 218.89 116.65C222.8 119.65 227.61 121.89 231.82 124.43L259.64 141.17V139.23C256.46 141.02 250.83 142.62 249.51 146.11C247.77 150.73 247.3 156.31 246.26 161.11L235.09 212.67C234.01 217.67 232.32 222.88 231.78 227.96C231.61 229.55 232.46 228.25 231.18 228.8C228.85 229.8 226.6 231.18 224.36 232.36L201 244.52C195.76 247.25 190.53 250.52 185.07 252.82C185.35 252.7 186.07 253.51 185.13 252.48C184.34 251.62 182.56 250.95 181.57 250.35L169.81 243.35L151.11 232.18V234.12L173.76 218.17L187.41 208.56C188.77 207.56 190.53 206.77 191.3 205.31C192.3 203.31 192.44 200.09 192.91 197.92L196.18 182.92L204.43 145.17L209.56 121.68C209.87 120.27 207.7 119.68 207.39 121.08L195.29 176.44C193.36 185.28 191.05 194.13 189.48 203.05C189.413 203.669 189.279 204.28 189.08 204.87C189.59 203.71 188.84 204.78 187.93 205.42L175.82 214L150 232.16C149.835 232.262 149.698 232.405 149.603 232.575C149.509 232.744 149.459 232.936 149.459 233.13C149.459 233.324 149.509 233.516 149.603 233.685C149.698 233.855 149.835 233.998 150 234.1L165.7 243.48L177.52 250.54C179.58 251.77 182.09 253.95 184.4 254.65C187.28 255.52 191.46 252.04 194.02 250.71L217.82 238.31L228 233C229.42 232.26 232 231.51 233.11 230.34C234.77 228.6 234.81 224.55 235.3 222.29L246.1 172.42L251.1 149.54C251.25 148.86 252.02 145.66 251.7 146.09C251.19 146.78 252.7 145.69 253.04 145.52C254.04 144.99 255.04 144.37 256.1 143.8L260.8 141.16C260.965 141.058 261.102 140.915 261.197 140.745C261.291 140.576 261.341 140.384 261.341 140.19C261.341 139.996 261.291 139.804 261.197 139.635C261.102 139.465 260.965 139.322 260.8 139.22L219.3 114.3C219.127 114.199 218.93 114.146 218.73 114.146C218.53 114.146 218.333 114.199 218.16 114.3L207.93 120.41C207.702 120.575 207.543 120.818 207.485 121.094C207.427 121.369 207.474 121.656 207.617 121.899C207.759 122.142 207.987 122.322 208.256 122.406C208.525 122.489 208.815 122.469 209.07 122.35Z" fill="#D8D8D8"/>
<path d="M232.78 148.5L222.78 188.62C222.729 188.898 222.783 189.185 222.933 189.425C223.083 189.664 223.318 189.839 223.59 189.914C223.863 189.99 224.153 189.96 224.405 189.832C224.657 189.703 224.851 189.485 224.95 189.22L234.95 149.1C235.001 148.822 234.947 148.535 234.797 148.295C234.647 148.056 234.412 147.881 234.14 147.806C233.867 147.73 233.577 147.76 233.325 147.888C233.073 148.017 232.879 148.235 232.78 148.5Z" fill="#D8D8D8"/>
<path d="M218.55 140.46L208.72 179.7C208.669 179.978 208.723 180.265 208.873 180.505C209.023 180.744 209.258 180.919 209.53 180.994C209.803 181.07 210.093 181.04 210.345 180.912C210.597 180.783 210.791 180.565 210.89 180.3L220.72 141.06C220.771 140.782 220.717 140.495 220.567 140.255C220.417 140.016 220.182 139.841 219.91 139.766C219.638 139.69 219.347 139.72 219.095 139.848C218.843 139.977 218.649 140.195 218.55 140.46Z" fill="#D8D8D8"/>
<path d="M213.09 209C200.09 201 187.09 192.91 173.84 185.36C173.585 185.241 173.295 185.221 173.026 185.304C172.757 185.387 172.529 185.568 172.387 185.811C172.244 186.054 172.197 186.341 172.255 186.616C172.313 186.892 172.472 187.135 172.7 187.3C186 194.86 199 202.94 212 211C213.24 211.76 214.37 209.82 213.14 209.06L213.09 209Z" fill="#D8D8D8"/>
<path d="M248.68 155.9L226.74 143.48L212.32 135.32C210.78 134.45 207.97 131.99 206.11 131.91C204.77 131.85 202.94 133.41 201.85 134.02L190.52 140.34L159.58 157.6L139.27 168.93C138.01 169.64 139.14 171.58 140.41 170.87L186.62 145.08C193.1 141.47 199.89 138.15 206.16 134.18C206.99 133.66 204.92 133.54 205.86 134.24C207.015 134.978 208.214 135.646 209.45 136.24L222.59 143.68L247.59 157.8C247.845 157.919 248.135 157.939 248.404 157.856C248.673 157.772 248.901 157.592 249.043 157.349C249.186 157.106 249.233 156.819 249.175 156.544C249.117 156.268 248.958 156.025 248.73 155.86L248.68 155.9Z" fill="#D8D8D8"/>
<path d="M152.62 178.46L158.2 211.18C158.44 212.6 160.61 212 160.37 210.58L154.79 177.86C154.55 176.44 152.38 177.04 152.62 178.46Z" fill="#D8D8D8"/>
<path d="M156.9 159.76V194.5C156.926 194.78 157.056 195.04 157.264 195.23C157.472 195.419 157.744 195.524 158.025 195.524C158.306 195.524 158.578 195.419 158.786 195.23C158.994 195.04 159.124 194.78 159.15 194.5V159.76C159.124 159.48 158.994 159.22 158.786 159.03C158.578 158.841 158.306 158.736 158.025 158.736C157.744 158.736 157.472 158.841 157.264 159.03C157.056 159.22 156.926 159.48 156.9 159.76Z" fill="#D8D8D8"/>
<path d="M171.77 151.46L170.86 187.06C170.886 187.34 171.016 187.6 171.224 187.79C171.432 187.979 171.704 188.084 171.985 188.084C172.266 188.084 172.537 187.979 172.746 187.79C172.954 187.6 173.084 187.34 173.11 187.06L174.02 151.46C173.994 151.18 173.864 150.92 173.656 150.73C173.447 150.541 173.176 150.436 172.895 150.436C172.614 150.436 172.342 150.541 172.134 150.73C171.926 150.92 171.796 151.18 171.77 151.46Z" fill="#D8D8D8"/>
<path d="M186.14 143.45L181.78 180.93C181.61 182.37 183.86 182.35 184.03 180.93L188.39 143.45C188.56 142.01 186.31 142.03 186.14 143.45Z" fill="#D8D8D8"/>
<path d="M256.72 137.05C256.72 137.05 255.81 136.51 255.29 137.05C254.77 137.59 255.29 138.38 255.29 138.38L256.08 138.85C255.864 139.089 255.576 139.249 255.259 139.307C254.943 139.365 254.616 139.317 254.33 139.17C253.1 138.75 222.01 120.17 222.01 120.17C222.01 120.17 221.15 119.08 221.62 118.17C221.846 117.588 222.273 117.106 222.823 116.811C223.373 116.516 224.01 116.427 224.62 116.56C226.24 116.91 256.72 135.24 256.72 135.24C256.72 135.24 257.58 136.53 256.72 137.05Z" fill="#F14A24"/>
<path d="M212.56 117.3C223.43 118.05 222.86 135.63 223.56 142.93C223.74 144.76 220.92 145.38 220.73 143.53C220.12 137.45 220.52 129.22 217.15 123.87C216.15 122.21 214.86 120.6 212.73 120.45C212.075 120.427 211.423 120.54 210.814 120.781C210.205 121.022 209.652 121.386 209.19 121.85C208.19 122.71 207.73 126.11 207.57 127.12C207.005 130.888 206.941 134.715 207.38 138.5C207.57 140.33 204.75 140.95 204.55 139.1C204 133.34 202.87 116.63 212.56 117.3Z" fill="#F15A24"/>
<path d="M196.3 129.1L193.03 134.55L186.49 135.91L191.39 152.8L205.29 143.81" fill="#FCBA19"/>
<path opacity="0.28" d="M196.3 129.1L193.03 134.55L186.49 135.91L191.39 152.8L205.29 143.81" fill="#606060"/>
<path d="M229.81 147.63L196.3 129.1L197.39 156.62L223 159.07L229.81 147.63Z" fill="#FCBA19"/>
<path opacity="0.81" d="M229.81 147.63L196.3 129.1L197.39 156.62L223 159.07L229.81 147.63Z" fill="#606060"/>
<path d="M217.82 151.71L212.65 203.75L181.31 184.95L186.49 135.91L217.82 151.71Z" fill="#FCBA19"/>
<path d="M217.82 151.71L221.37 147.63H229.81V193.41L224.26 197.32L212.65 203.75L217.82 151.71Z" fill="#FCBA19"/>
<path opacity="0.28" d="M217.82 151.71L221.37 147.63H229.81V193.41L224.26 197.32L212.65 203.75L217.82 151.71Z" fill="#606060"/>
<path d="M198.56 126C209.46 126.1 209.94 143.69 211.11 150.92C211.4 152.74 208.62 153.52 208.32 151.69C207.32 145.69 207.26 137.42 203.57 132.28C202.06 130.17 199.4 128.4 196.8 129.78C194.46 131.02 194.43 133.78 194.2 136.09C193.861 139.885 194.026 143.708 194.69 147.46C194.99 149.28 192.21 150.06 191.9 148.23C191 142.53 188.86 125.91 198.56 126Z" fill="#F15A24"/>
<path d="M186.57 153.89C194.73 154.45 194.31 167.66 194.86 173.13C195 174.51 192.86 174.97 192.74 173.58C192.28 169.02 192.58 162.83 190.05 158.82C189.27 157.58 188.33 156.36 186.73 156.25C186.242 156.226 185.754 156.303 185.297 156.475C184.839 156.647 184.422 156.911 184.07 157.25C183.35 157.9 182.97 160.45 182.85 161.25C182.427 164.078 182.38 166.95 182.71 169.79C182.86 171.17 180.71 171.63 180.59 170.24C180.12 165.94 179.29 153.39 186.57 153.89Z" fill="#F15A24"/>
<path d="M174.36 162.75L171.9 166.84L166.99 167.87L170.67 180.55L181.11 173.8" fill="#FCBA19"/>
<path opacity="0.28" d="M174.36 162.75L171.9 166.84L166.99 167.87L170.67 180.55L181.11 173.8" fill="#606060"/>
<path d="M199.52 176.66L174.36 162.75L175.18 183.41L194.41 185.25L199.52 176.66Z" fill="#FCBA19"/>
<path opacity="0.81" d="M199.52 176.66L174.36 162.75L175.18 183.41L194.41 185.25L199.52 176.66Z" fill="#606060"/>
<path d="M190.52 179.73L186.63 218.81L163.1 204.69L166.99 167.87L190.52 179.73Z" fill="#FCBA19"/>
<path d="M190.52 179.73L193.18 176.66H199.52V211.04L195.35 213.98L186.63 218.81L190.52 179.73Z" fill="#FCBA19"/>
<path opacity="0.28" d="M190.52 179.73L193.18 176.66H199.52V211.04L195.35 213.98L186.63 218.81L190.52 179.73Z" fill="#606060"/>
<path d="M176.06 160.42C184.24 160.5 184.61 173.7 185.48 179.14C185.7 180.51 183.61 181.14 183.39 179.72C182.66 175.19 182.59 169 179.82 165.14C178.68 163.56 176.69 162.23 174.73 163.26C172.98 164.19 172.95 166.26 172.73 168C172.476 170.851 172.601 173.722 173.1 176.54C173.33 177.91 171.24 178.54 171.01 177.12C170.35 172.83 168.77 160.36 176.06 160.42Z" fill="#F15A24"/>
<path d="M247.55 155.9L201.28 182.14C194.733 185.853 188.187 189.567 181.64 193.28C180.64 193.83 182.7 193.78 181.97 193.28C180.86 192.58 179.69 191.94 178.56 191.28L165.23 183.46L140.4 168.94C140.206 168.835 139.986 168.789 139.767 168.807C139.547 168.824 139.338 168.905 139.163 169.04C138.988 169.174 138.857 169.356 138.783 169.564C138.71 169.771 138.698 169.996 138.75 170.21C140.26 180.49 141.19 191.05 143.31 201.21C143.82 203.67 144.84 203.85 147.06 205.13L162.78 214.2L179.44 223.81C181.44 224.94 184.59 227.81 186.94 227.48C189.13 227.19 192.38 224.4 194.25 223.35L210.78 214L239.78 197.6C240.008 197.435 240.167 197.192 240.225 196.916C240.283 196.641 240.236 196.354 240.093 196.111C239.951 195.868 239.723 195.687 239.454 195.604C239.185 195.521 238.895 195.541 238.64 195.66L215.64 208.66C206.27 213.96 196.12 218.66 187.21 224.74C185.86 225.66 185.7 225.1 186.84 225.49C185.646 224.927 184.504 224.258 183.43 223.49L168.19 214.7L152.19 205.46C150.44 204.46 148.71 203.35 146.92 202.46C146.431 202.241 145.965 201.973 145.53 201.66C144.7 200.97 145.97 202.66 145.63 201.79C144.89 199.87 144.94 197.13 144.63 195.1L143.13 184.89L140.88 169.61L139.23 170.88L161.05 183.68L175.39 192.09C176.91 192.98 179.83 195.61 181.72 195.62C183.09 195.62 185.1 193.87 186.21 193.24L197 187.14L228.57 169.23L248.66 157.84C248.888 157.675 249.047 157.432 249.105 157.156C249.163 156.881 249.116 156.594 248.973 156.351C248.831 156.108 248.603 155.928 248.334 155.844C248.065 155.761 247.775 155.781 247.52 155.9H247.55Z" fill="#D8D8D8"/>
<path d="M243.42 175.69C229.59 183.25 213.42 192.17 199.62 199.69C194.8 202.33 189.57 206.25 184.33 208.17C183.973 208.05 183.636 207.878 183.33 207.66C182.03 206.8 180.54 206.12 179.17 205.37L166 198.16C159.19 194.41 149.62 189.54 142.81 185.79C141.4 185.86 142.75 187.02 141.34 186.98C141.44 187.135 141.577 187.263 141.74 187.35L161.81 198.42L176 206.28C178 207.4 181.13 210.03 183.46 210.39C184.77 210.6 185.39 210.06 186.59 209.39L196.25 204.11L224.87 188.45L244.52 177.7C244.681 177.608 244.816 177.476 244.91 177.316C245.005 177.157 245.057 176.975 245.06 176.79C243.77 176.91 244.75 175.64 243.42 175.69Z" fill="#D8D8D8"/>
<path d="M166.76 186.64L171.71 219C171.93 220.43 174.1 219.82 173.88 218.4L168.93 186C168.71 184.57 166.54 185.18 166.76 186.6V186.64Z" fill="#D8D8D8"/>
<path d="M180.68 194.8L185.3 226.8C185.51 228.23 187.67 227.62 187.47 226.2L182.85 194.2C182.64 192.77 180.48 193.38 180.68 194.8Z" fill="#D8D8D8"/>
<path d="M199.12 184.6C199.12 195.86 199.66 207.1 199.69 218.36C199.716 218.64 199.846 218.9 200.054 219.09C200.262 219.279 200.534 219.384 200.815 219.384C201.096 219.384 201.368 219.279 201.576 219.09C201.784 218.9 201.914 218.64 201.94 218.36C201.94 207.1 201.4 195.86 201.37 184.6C201.344 184.32 201.214 184.06 201.006 183.87C200.798 183.681 200.526 183.576 200.245 183.576C199.964 183.576 199.692 183.681 199.484 183.87C199.276 184.06 199.146 184.32 199.12 184.6Z" fill="#D8D8D8"/>
<path d="M212.91 176.2C212.763 187.38 212.763 198.557 212.91 209.73C212.936 210.01 213.066 210.27 213.274 210.46C213.482 210.649 213.754 210.754 214.035 210.754C214.316 210.754 214.587 210.649 214.796 210.46C215.004 210.27 215.134 210.01 215.16 209.73C215.007 198.55 215.007 187.373 215.16 176.2C215.134 175.92 215.004 175.66 214.796 175.47C214.587 175.281 214.316 175.176 214.035 175.176C213.754 175.176 213.482 175.281 213.274 175.47C213.066 175.66 212.936 175.92 212.91 176.2Z" fill="#D8D8D8"/>
<path d="M228.83 167.1L224.28 203.26C224.1 204.69 226.35 204.68 226.53 203.26L231.08 167.1C231.26 165.67 229.01 165.68 228.83 167.1Z" fill="#D8D8D8"/>
<path d="M264.63 85.61C264.63 85.01 261.23 80.86 263.3 78.71C265.37 76.56 267.7 76.56 269.99 77.33C271.868 77.8948 273.555 78.9664 274.864 80.4272C276.173 81.8879 277.054 83.6812 277.41 85.61C278.173 88.6758 278.704 91.7946 279 94.94L269.61 91.79" fill="#FF9739"/>
<path d="M274.23 113.25C274.23 113.25 267.85 110.59 268.39 102.46C268.813 97.4575 271.041 92.7797 274.66 89.3L279 94.94" fill="#FF9739"/>
<path d="M277.85 87.55C277.85 87.55 283.15 103.73 282.47 108.45C281.79 113.17 274.24 113.25 274.24 113.25" fill="#FF9739"/>
<path d="M290.67 151.93L279 146.2C278.903 138.212 277.698 130.277 275.42 122.62L265.6 120.81C265.103 126.128 264.943 131.472 265.12 136.81C265.174 140.809 265.769 144.781 266.89 148.62C267.89 151.62 269.18 155.05 272.16 156.62C274.75 157.98 278.04 158.46 280.85 159.24C281.75 159.49 290.69 161.55 290.69 161.97L290.67 151.93Z" fill="#DD842A"/>
<path d="M257.87 100.4C256.129 103.672 254.122 106.796 251.87 109.74C250.29 111.57 236.47 117.94 236.47 117.94C236.47 117.94 228.83 117.01 227.79 119.64C226.75 122.27 226.18 123.06 228.79 124.44C231.4 125.82 233.79 122.09 236.29 121.85C238.79 121.61 254.14 118.41 261.22 107.71C262.22 106.22 263.22 101.16 264.51 99.55C264.315 98.7474 264.207 97.9259 264.19 97.1C261.44 97.78 260.57 99.49 257.87 100.4Z" fill="#FFB288"/>
<path d="M277.72 95.87C277.113 95.1796 276.444 94.5469 275.72 93.98C272 92.26 266 90.81 265 90.91C264 91.01 260.49 92.6 259.79 95.14C259.09 97.68 258.7 103.03 258.7 109.14C258.7 115.67 256.7 124.72 256.7 124.72C256.7 124.72 263.09 129.07 268.96 128.49C273.11 128.08 276.12 127.83 277.31 126.49C277.41 117.28 277 104.75 277.72 95.87Z" fill="#AA2B2B"/>
<path d="M270.83 103.91C269.214 107.931 267.13 111.747 264.62 115.28C263.37 117.19 250.05 126.45 250.05 126.45C250.05 126.45 244.36 125.35 243.71 127.94C243.06 130.53 242.28 132.8 244.85 133.76C247.42 134.72 249.55 129.64 251.85 129.1C254.15 128.56 267.18 122.75 273.08 115.4C274.741 113.211 276.019 110.756 276.86 108.14C273.74 107.25 273.42 105.79 270.83 103.91Z" fill="#FFB288"/>
<path d="M265.65 109.81C265.65 109.81 270.8 95.03 272.51 94.31C273.102 94.0489 273.744 93.9208 274.391 93.9345C275.038 93.9483 275.674 94.1036 276.255 94.3895C276.835 94.6755 277.346 95.0852 277.751 95.5897C278.156 96.0943 278.446 96.6815 278.6 97.31C279.49 100.89 276.16 112.31 275.27 113.57C274.38 114.83 265.65 109.81 265.65 109.81Z" fill="#AA2B2B"/>
<path d="M260.44 93.98L252.43 104.01L259.52 111.71L263.32 107.58" fill="#AA2B2B"/>
<path d="M272.88 88.4V93.76C272.129 94.2981 271.229 94.5875 270.305 94.5875C269.381 94.5875 268.481 94.2981 267.73 93.76L266.5 88" fill="#E59770"/>
<path d="M265.52 81.55C265.579 81.5363 265.641 81.5363 265.7 81.55C266.712 81.8874 267.759 82.1121 268.82 82.22C269.88 82.22 270.94 82.15 271.99 82.22C272.69 82.22 273.13 83.91 273.12 85.95C273.57 85.68 274.12 85.56 274.48 86.07C274.636 86.3557 274.683 86.6881 274.613 87.006C274.544 87.3239 274.361 87.6059 274.1 87.8C273.753 88.1039 273.332 88.3108 272.88 88.4C272.727 89.4415 272.25 90.4082 271.515 91.1623C270.781 91.9165 269.827 92.4196 268.79 92.6C267.992 92.7322 267.174 92.5481 266.509 92.087C265.844 91.6258 265.386 90.9239 265.23 90.13C264.624 87.9787 264.454 85.7279 264.73 83.51L264.8 82.42C264.829 82.2551 264.894 82.0986 264.991 81.962C265.088 81.8253 265.214 81.712 265.36 81.63C265.407 81.5916 265.461 81.5643 265.52 81.55Z" fill="#FFB288"/>
<path d="M266 80.77C266 80.77 269.87 86.42 272.82 85.98C275.77 85.54 272.51 81.14 272.51 81.14" fill="#FF9739"/>
<defs>
<linearGradient id="paint0_linear_103_131" x1="170.97" y1="253.24" x2="231.06" y2="182.44" gradientUnits="userSpaceOnUse">
<stop stop-color="#4444A5"/>
<stop offset="1"/>
</linearGradient>
<linearGradient id="paint1_linear_103_131" x1="257.72" y1="194.94" x2="310.73" y2="132.48" gradientUnits="userSpaceOnUse">
<stop stop-color="#4444A5"/>
<stop offset="1"/>
</linearGradient>
</defs>
</svg>
