<svg width="125" height="198" viewBox="0 0 125 198" fill="none" xmlns="http://www.w3.org/2000/svg">
<g clip-path="url(#clip0_227_2163)">
<path d="M41.9988 10.8396C41.9988 10.8396 31.1188 7.64954 20.8088 18.8396C11.1588 29.2696 11.6788 44.2496 11.1888 56.6896C10.8488 65.3496 9.92884 75.6896 6.38884 83.6896C4.98884 86.8696 2.13884 88.7896 1.38884 92.3396C1.02032 94.239 1.06258 96.1954 1.51275 98.0771C1.96293 99.9589 2.81061 101.723 3.99884 103.25C7.68884 107.97 13.8588 110.25 19.8888 110.87L23.8888 102.2C25.9816 104.858 27.3587 108.008 27.8888 111.35C28.4688 115.02 52.6488 113.79 55.7288 113.8C68.9588 113.86 83.2088 114.21 96.1288 111.16C97.3421 110.994 98.4704 110.443 99.3488 109.59C99.8361 108.92 100.162 108.147 100.299 107.33C100.972 104.462 101.307 101.526 101.299 98.5796C102.57 100.163 103.391 102.06 103.679 104.07C103.819 105.12 103.889 106.33 104.739 106.97C105.589 107.61 106.899 107.36 107.969 107.04C114.089 105.22 123.089 102.39 123.689 95.0396C123.882 92.2269 122.963 89.4509 121.129 87.3096C120.309 86.3096 119.319 85.5196 118.559 84.5096C116.859 82.2796 116.379 79.4096 115.949 76.6596C114.647 68.8709 113.932 60.9954 113.809 53.0996C113.749 42.6296 111.329 32.0996 105.509 23.0996C92.4188 2.76954 57.2488 -6.50045 41.9988 10.8396Z" fill="#725858"/>
<path d="M44.7684 114.98C32.3084 114.98 27.3084 113.98 26.9184 111.5C26.5038 108.887 25.5392 106.392 24.0884 104.18L20.8184 111.28C20.7323 111.468 20.5898 111.625 20.4107 111.729C20.2316 111.833 20.0246 111.879 19.8184 111.86C15.6384 111.45 7.92845 109.86 3.23845 103.86C1.95832 102.218 1.04512 100.32 0.560398 98.295C0.0756705 96.2699 0.0306703 94.1643 0.42844 92.1203C0.970119 90.0924 1.97285 88.217 3.35844 86.6403C4.2073 85.607 4.92912 84.4756 5.50844 83.2703C9.08844 75.1403 9.90844 64.7603 10.2284 56.6103C10.2784 55.4403 10.3084 54.2403 10.3484 53.0303C10.7084 41.2203 11.1284 27.8403 20.1084 18.1203C29.4184 8.04026 39.1084 9.19026 41.6884 9.72026C47.6884 3.19026 56.9484 0.0302583 67.8384 0.820258C83.2284 1.93026 98.7284 10.6403 106.408 22.4803C111.878 30.9203 114.798 41.4803 114.868 53.0503C114.979 60.9098 115.691 68.7494 116.998 76.5003C117.388 78.9903 117.838 81.8203 119.418 83.9003C119.835 84.4381 120.29 84.946 120.778 85.4203C121.178 85.8203 121.578 86.2303 121.948 86.6703C123.954 89.0102 124.96 92.0453 124.748 95.1203C124.078 103.33 114.208 106.27 108.318 108.03C107.428 108.29 105.578 108.84 104.198 107.8C103.754 107.385 103.399 106.884 103.157 106.326C102.914 105.769 102.789 105.168 102.788 104.56V104.24C102.682 103.506 102.497 102.785 102.238 102.09C102.08 103.944 101.779 105.782 101.338 107.59C101.172 108.56 100.774 109.476 100.178 110.26C99.1729 111.291 97.8541 111.959 96.4284 112.16C84.4284 115 71.5084 114.92 59.0084 114.85H55.7984H53.4784C50.2084 114.94 47.3284 114.98 44.7684 114.98ZM23.8984 101.2C24.0486 101.201 24.1967 101.235 24.3318 101.301C24.4668 101.367 24.5853 101.462 24.6784 101.58C26.8865 104.368 28.3398 107.678 28.8984 111.19C29.2384 111.86 32.3384 113.41 53.3684 112.85H55.7584H58.9684C71.3484 112.92 84.1584 112.99 95.9184 110.22C96.9162 110.086 97.8503 109.654 98.5984 108.98C98.985 108.428 99.2414 107.795 99.3484 107.13C100.011 104.338 100.346 101.479 100.348 98.6103C100.352 98.4061 100.418 98.2079 100.537 98.0424C100.657 97.8768 100.824 97.7519 101.017 97.6844C101.21 97.6169 101.419 97.61 101.616 97.6647C101.812 97.7194 101.988 97.833 102.118 97.9903C103.516 99.7157 104.415 101.79 104.718 103.99V104.33C104.828 105.14 104.928 105.91 105.358 106.24C105.788 106.57 106.818 106.4 107.698 106.14C113.098 104.53 122.138 101.84 122.698 94.9903C122.876 92.4409 122.038 89.9246 120.368 87.9903C120.038 87.5903 119.668 87.2203 119.298 86.8503C118.753 86.3131 118.242 85.7419 117.768 85.1403C115.888 82.6603 115.378 79.4303 114.968 76.8403C113.651 69.0029 112.932 61.0767 112.818 53.1303C112.758 41.9503 109.938 31.7503 104.678 23.6403C97.3284 12.2903 82.4484 3.95026 67.6784 2.88026C57.1684 2.13026 48.3284 5.20026 42.7684 11.5603C42.6455 11.6976 42.4871 11.7982 42.3107 11.8512C42.1342 11.9041 41.9466 11.9073 41.7684 11.8603C41.3184 11.7303 31.3084 9.02026 21.5884 19.5403C13.1084 28.7203 12.7084 41.7003 12.3584 53.1603C12.3584 54.3803 12.2884 55.5803 12.2384 56.7603C11.9184 65.0803 11.0684 75.7603 7.35844 84.1503C6.71582 85.4974 5.90976 86.7602 4.95845 87.9103C3.7614 89.2653 2.88321 90.8713 2.38844 92.6103C2.05071 94.3672 2.09376 96.1762 2.51468 97.9151C2.9356 99.6539 3.7246 101.282 4.82844 102.69C8.82844 107.8 15.3484 109.37 19.3184 109.85L23.0084 101.85C23.0806 101.696 23.191 101.562 23.3293 101.462C23.4676 101.363 23.6291 101.3 23.7984 101.28L23.8984 101.2Z" fill="#093F68"/>
<path d="M112.449 159.84V178.05C107.593 181.987 102.294 185.344 96.6591 188.05C94.7724 188.963 92.8458 189.797 90.8791 190.55C87.3395 191.929 83.703 193.046 79.9991 193.89C78.9191 194.15 77.8391 194.37 76.7391 194.56C74.4791 194.993 72.1824 195.327 69.8491 195.56C67.8491 195.77 65.7491 195.88 63.6591 195.92C63.0991 195.92 62.5491 195.92 61.9891 195.92C61.4291 195.92 60.8091 195.92 60.2291 195.92C58.1691 195.88 56.1358 195.76 54.1291 195.56C51.8024 195.34 49.5058 195.007 47.2391 194.56C46.1391 194.37 45.0591 194.15 43.9791 193.89C40.2789 193.049 36.6457 191.936 33.1091 190.56C31.1491 189.8 29.2224 188.967 27.3291 188.06C21.694 185.354 16.3946 181.997 11.5391 178.06V159.84C11.5391 137.37 26.8191 119.14 45.6791 119.14H78.2991C97.1691 119.14 112.449 137.37 112.449 159.84Z" fill="#FCBA19"/>
<path d="M61.9995 196.93C61.3995 196.93 60.7995 196.93 60.2095 196.93C58.2095 196.93 56.0995 196.77 54.0395 196.56C51.7295 196.34 49.3795 196.01 47.0395 195.56C45.8695 195.35 44.7895 195.13 43.7395 194.88C39.9953 194.023 36.3188 192.894 32.7395 191.5C30.7395 190.71 28.7395 189.86 26.8895 188.97C21.181 186.222 15.8115 182.819 10.8895 178.83C10.7748 178.737 10.6821 178.62 10.6181 178.486C10.5542 178.353 10.5205 178.208 10.5195 178.06V159.84C10.5195 136.84 26.2795 118.14 45.6595 118.14H78.2795C97.6595 118.14 113.42 136.85 113.42 159.84V178.05C113.419 178.198 113.385 178.343 113.321 178.477C113.257 178.61 113.165 178.727 113.05 178.82C108.13 182.813 102.761 186.216 97.0495 188.96C95.2195 189.85 93.2495 190.7 91.1995 191.49C87.6202 192.884 83.9437 194.013 80.1995 194.87C79.1495 195.12 78.0695 195.34 76.8895 195.55C74.5795 195.98 72.2295 196.31 69.8895 196.55C67.8895 196.76 65.8095 196.88 63.6295 196.92C63.1295 196.92 62.5695 196.93 61.9995 196.93ZM12.5495 177.57C17.246 181.334 22.3555 184.551 27.7795 187.16C29.5695 188.02 31.4895 188.85 33.4795 189.63C36.9709 190.988 40.5572 192.087 44.2095 192.92C45.2095 193.16 46.2795 193.38 47.4195 193.58C49.6895 194 51.9795 194.33 54.2395 194.58C56.2395 194.79 58.2395 194.91 60.2395 194.94C61.3695 194.94 62.4895 194.94 63.6195 194.94C65.7595 194.94 67.8095 194.78 69.7295 194.58C71.9995 194.37 74.2895 194.04 76.5495 193.58C77.6995 193.38 78.7495 193.16 79.7595 192.92C83.4126 192.09 86.9991 190.99 90.4895 189.63C92.4895 188.85 94.4095 188.02 96.1995 187.16C101.623 184.549 106.732 181.332 111.43 177.57V159.84C111.43 137.95 96.5595 120.14 78.2895 120.14H45.6895C27.4195 120.14 12.5495 137.95 12.5495 159.84V177.57Z" fill="#093F68"/>
<path d="M112.849 159.84V178.05C107.993 181.987 102.694 185.344 97.0592 188.05C95.1659 188.963 93.2392 189.797 91.2792 190.55C87.7426 191.926 84.1094 193.039 80.4092 193.88C79.3292 194.14 78.2492 194.36 77.1492 194.55C74.8892 194.983 72.5925 195.317 70.2592 195.55C68.2592 195.76 66.1592 195.87 64.0692 195.91C63.5092 195.91 62.9592 195.91 62.3992 195.91C61.8392 195.91 61.2192 195.91 60.6392 195.91C58.5792 195.87 56.5459 195.75 54.5392 195.55C52.2125 195.33 49.9159 194.997 47.6492 194.55C46.5492 194.36 45.4592 194.14 44.3892 193.88C40.689 193.039 37.0558 191.926 33.5192 190.55C31.5592 189.79 29.6325 188.957 27.7392 188.05C22.1041 185.344 16.8048 181.987 11.9492 178.05V159.84C11.9492 137.37 27.2292 119.14 46.0892 119.14H78.7092C97.5692 119.14 112.849 137.37 112.849 159.84Z" fill="#FCBA19"/>
<path d="M62.4002 196.93C61.8002 196.93 61.2002 196.93 60.6102 196.93C58.5402 196.93 56.4602 196.77 54.4402 196.57C52.1202 196.35 49.7702 196.01 47.4402 195.57C46.2902 195.37 45.1702 195.14 44.1302 194.89C40.3858 194.038 36.7092 192.912 33.1302 191.52C31.1302 190.74 29.1302 189.88 27.2802 188.99C21.5686 186.252 16.1985 182.852 11.2802 178.86C11.1642 178.766 11.0707 178.647 11.0067 178.512C10.9427 178.377 10.9097 178.229 10.9102 178.08V159.84C10.9102 136.84 26.6702 118.14 46.0502 118.14H78.6702C98.0502 118.14 113.81 136.85 113.81 159.84V178.05C113.811 178.199 113.778 178.347 113.714 178.482C113.649 178.617 113.556 178.736 113.44 178.83C108.522 182.822 103.152 186.222 97.4402 188.96C95.5902 189.85 93.6202 190.71 91.5902 191.49C88.0106 192.883 84.3342 194.012 80.5902 194.87C79.5202 195.12 78.4302 195.35 77.2802 195.55C74.9902 195.98 72.6402 196.32 70.2802 196.55C68.3302 196.75 66.2802 196.87 64.0202 196.91C63.5302 196.92 63.0002 196.93 62.4002 196.93ZM13.0002 177.57C17.6932 181.334 22.7994 184.551 28.2202 187.16C30.0302 188.03 31.9502 188.86 33.9302 189.63C37.4239 190.981 41.0097 192.081 44.6602 192.92C45.6602 193.16 46.7402 193.38 47.8702 193.57C50.1302 194.01 52.4202 194.33 54.6802 194.57C56.6802 194.77 58.6802 194.89 60.6802 194.93C61.8102 194.93 62.9302 194.93 64.0502 194.93C66.2702 194.93 68.2702 194.77 70.1802 194.58C72.4502 194.36 74.7402 194.04 76.9802 193.58C78.1102 193.38 79.1602 193.17 80.2002 192.92C83.8544 192.082 87.4436 190.983 90.9402 189.63C92.9402 188.86 94.8402 188.03 96.6502 187.16C102.071 184.551 107.177 181.334 111.87 177.57V159.84C111.87 137.95 97.0002 120.14 78.7302 120.14H46.0902C27.8202 120.14 12.9502 137.95 12.9502 159.84L13.0002 177.57Z" fill="#093F68"/>
<path d="M30.3116 189.06C30.0464 189.06 29.792 188.955 29.6045 188.767C29.417 188.58 29.3116 188.325 29.3116 188.06V161.34C28.8616 159.81 25.4916 147.84 28.2616 140.34C28.3076 140.217 28.3774 140.103 28.4671 140.007C28.5568 139.91 28.6646 139.833 28.7844 139.778C28.9042 139.723 29.0336 139.692 29.1652 139.688C29.2969 139.683 29.4282 139.704 29.5516 139.75C29.675 139.796 29.7882 139.866 29.8847 139.955C29.9811 140.045 30.059 140.153 30.1138 140.273C30.1686 140.393 30.1992 140.522 30.204 140.654C30.2088 140.785 30.1876 140.917 30.1416 141.04C27.4716 148.22 31.2316 160.73 31.2716 160.86C31.282 160.956 31.282 161.054 31.2716 161.15V188.01C31.2783 188.142 31.2587 188.274 31.214 188.399C31.1692 188.523 31.1002 188.638 31.0109 188.736C30.9216 188.833 30.8138 188.912 30.6938 188.968C30.5737 189.024 30.4438 189.055 30.3116 189.06Z" fill="#093F68"/>
<path d="M93.6914 189.06C93.4262 189.06 93.1718 188.955 92.9843 188.767C92.7968 188.58 92.6914 188.325 92.6914 188.06V161.2C92.681 161.104 92.681 161.006 92.6914 160.91C92.6914 160.78 96.4914 148.26 93.8214 141.09C93.7286 140.841 93.7386 140.565 93.8492 140.323C93.9599 140.081 94.1621 139.893 94.4114 139.8C94.6607 139.707 94.9367 139.717 95.1786 139.828C95.4205 139.938 95.6086 140.141 95.7014 140.39C98.4714 147.84 95.1014 159.81 94.6514 161.39V188.11C94.6391 188.36 94.5337 188.596 94.356 188.772C94.1783 188.947 93.9412 189.05 93.6914 189.06Z" fill="#093F68"/>
<path d="M76.0006 119.14V194.56C73.9089 195 71.7962 195.334 69.6706 195.56C67.7906 195.77 65.9006 195.88 63.9806 195.92C63.4606 195.92 62.9806 195.92 62.4406 195.92H60.8206C58.9306 195.92 57.0706 195.76 55.2206 195.56C53.0949 195.335 50.9822 195.001 48.8906 194.56V119.14H76.0006Z" fill="white"/>
<path d="M62.4409 196.93C61.8909 196.93 61.3309 196.93 60.7909 196.93C58.8909 196.93 56.9709 196.77 55.1109 196.56C52.9521 196.335 50.806 196.001 48.6809 195.56C48.4535 195.511 48.2502 195.385 48.106 195.202C47.9618 195.02 47.8857 194.793 47.8909 194.56V119.14C47.8909 118.875 47.9963 118.62 48.1838 118.433C48.3713 118.245 48.6257 118.14 48.8909 118.14H76.0009C76.2661 118.14 76.5205 118.245 76.708 118.433C76.8955 118.62 77.0009 118.875 77.0009 119.14V194.56C77.0056 194.794 76.9281 195.022 76.782 195.205C76.6358 195.388 76.4302 195.513 76.2009 195.56C74.0758 196.001 71.9297 196.335 69.7709 196.56C67.9609 196.77 66.0709 196.89 64.0009 196.93C63.4942 196.93 62.9742 196.93 62.4409 196.93ZM49.8909 193.74C51.6909 194.09 53.5109 194.36 55.3209 194.55C57.1309 194.74 58.9909 194.86 60.8509 194.9C61.8509 194.9 62.9109 194.9 63.9409 194.9C65.9409 194.9 67.8009 194.74 69.5509 194.55C71.3009 194.36 73.2009 194.09 75.0009 193.74V120.14H49.8909V193.74Z" fill="#093F68"/>
<path d="M48.8913 176.09C48.7087 176.091 48.5292 176.043 48.3722 175.949C48.2153 175.856 48.0871 175.721 48.0013 175.56L36.8213 154.56C36.7335 154.408 36.6873 154.236 36.6873 154.06C36.6873 153.884 36.7335 153.712 36.8213 153.56L42.8213 143.08L35.8213 134.61C35.6742 134.431 35.5938 134.207 35.5938 133.975C35.5938 133.743 35.6742 133.519 35.8213 133.34L48.1113 118.5C48.1953 118.398 48.2985 118.314 48.4151 118.252C48.5317 118.19 48.6594 118.152 48.7908 118.139C48.9222 118.127 49.0548 118.14 49.181 118.179C49.3071 118.218 49.4245 118.281 49.5263 118.365C49.6281 118.449 49.7123 118.552 49.7742 118.669C49.836 118.786 49.8743 118.913 49.8869 119.045C49.8994 119.176 49.8859 119.309 49.8472 119.435C49.8085 119.561 49.7453 119.678 49.6613 119.78L38.0013 133.98L44.9013 142.35C45.0348 142.508 45.1161 142.703 45.134 142.909C45.1519 143.115 45.1055 143.321 45.0013 143.5L38.9013 154.09L49.8213 174.63C49.9023 174.782 49.9426 174.953 49.9383 175.125C49.934 175.297 49.8852 175.466 49.7966 175.614C49.7081 175.762 49.5828 175.884 49.4328 175.969C49.283 176.055 49.1136 176.1 48.9412 176.1L48.8913 176.09Z" fill="#093F68"/>
<path d="M76.9415 176.09C76.7774 176.089 76.6159 176.048 76.4715 175.97C76.2386 175.845 76.0647 175.633 75.9878 175.38C75.911 175.127 75.9375 174.854 76.0615 174.62L87.0015 154.08L80.8815 143.5C80.7782 143.324 80.7314 143.12 80.7475 142.916C80.7636 142.712 80.8417 142.518 80.9715 142.36L87.8715 133.99L76.1715 119.79C76.0874 119.688 76.0243 119.571 75.9856 119.445C75.9469 119.319 75.9334 119.186 75.9459 119.055C75.9585 118.923 75.9968 118.796 76.0586 118.679C76.1205 118.562 76.2047 118.459 76.3065 118.375C76.4083 118.291 76.5256 118.228 76.6518 118.189C76.778 118.15 76.9106 118.137 77.042 118.149C77.1734 118.162 77.301 118.2 77.4176 118.262C77.5342 118.324 77.6375 118.408 77.7215 118.51L89.9415 133.36C90.0886 133.539 90.169 133.763 90.169 133.995C90.169 134.227 90.0886 134.451 89.9415 134.63L82.9415 143.1L88.9415 153.58C89.0293 153.732 89.0755 153.904 89.0755 154.08C89.0755 154.256 89.0293 154.428 88.9415 154.58L77.7615 175.58C77.679 175.727 77.5605 175.851 77.4171 175.941C77.2737 176.03 77.1101 176.081 76.9415 176.09Z" fill="#093F68"/>
<path d="M75.2097 119.14C73.8297 125.42 62.4397 138.2 62.4397 138.2C62.4397 138.2 51.0597 125.42 49.6797 119.14H75.2097Z" fill="#FFC9B0"/>
<path d="M62.4383 139.2C62.2988 139.2 62.1608 139.17 62.0334 139.113C61.9059 139.056 61.7918 138.974 61.6983 138.87C61.2183 138.34 50.1183 125.82 48.6983 119.35C48.6668 119.204 48.6684 119.053 48.703 118.907C48.7376 118.762 48.8043 118.626 48.8983 118.51C48.9924 118.394 49.1113 118.301 49.2463 118.237C49.3813 118.172 49.5289 118.139 49.6783 118.14H75.2083C75.3577 118.139 75.5053 118.172 75.6403 118.237C75.7753 118.301 75.8942 118.394 75.9883 118.51C76.0806 118.627 76.1455 118.763 76.1784 118.908C76.2112 119.054 76.2112 119.205 76.1783 119.35C74.7583 125.82 63.6583 138.35 63.1783 138.87C63.0848 138.974 62.9707 139.056 62.8432 139.113C62.7158 139.17 62.5779 139.2 62.4383 139.2ZM50.9983 120.14C52.9383 125.4 60.0783 133.96 62.4183 136.68C64.7583 133.96 71.9083 125.4 73.8483 120.14H50.9983Z" fill="#093F68"/>
<path d="M56 122.16V110.1H68.8V122.16" fill="#FFC9B0"/>
<path d="M68.8 123.16C68.5348 123.16 68.2804 123.055 68.0929 122.867C67.9054 122.68 67.8 122.425 67.8 122.16V111.1H57V122.16C57 122.425 56.8946 122.68 56.7071 122.867C56.5196 123.055 56.2652 123.16 56 123.16C55.7348 123.16 55.4804 123.055 55.2929 122.867C55.1054 122.68 55 122.425 55 122.16V110.1C55 109.835 55.1054 109.58 55.2929 109.393C55.4804 109.205 55.7348 109.1 56 109.1H68.8C69.0652 109.1 69.3196 109.205 69.5071 109.393C69.6946 109.58 69.8 109.835 69.8 110.1V122.16C69.8 122.425 69.6946 122.68 69.5071 122.867C69.3196 123.055 69.0652 123.16 68.8 123.16Z" fill="#093F68"/>
<path d="M25.8111 87.5601C32.6815 87.5601 38.2511 82.7606 38.2511 76.8401C38.2511 70.9196 32.6815 66.1201 25.8111 66.1201C18.9407 66.1201 13.3711 70.9196 13.3711 76.8401C13.3711 82.7606 18.9407 87.5601 25.8111 87.5601Z" fill="#FFC9B0"/>
<path d="M25.8111 88.5601C18.4011 88.5601 12.3711 83.3001 12.3711 76.8401C12.3711 70.3801 18.3711 65.1201 25.8111 65.1201C33.2511 65.1201 39.2511 70.3801 39.2511 76.8401C39.2511 83.3001 33.2211 88.5601 25.8111 88.5601ZM25.8111 67.1201C19.5111 67.1201 14.3711 71.4801 14.3711 76.8401C14.3711 82.2001 19.5111 86.5601 25.8111 86.5601C32.1111 86.5601 37.2511 82.2001 37.2511 76.8401C37.2511 71.4801 32.1211 67.1201 25.8111 67.1201Z" fill="#093F68"/>
<path d="M98.3189 87.5601C105.189 87.5601 110.759 82.7606 110.759 76.8401C110.759 70.9196 105.189 66.1201 98.3189 66.1201C91.4485 66.1201 85.8789 70.9196 85.8789 76.8401C85.8789 82.7606 91.4485 87.5601 98.3189 87.5601Z" fill="#FFC9B0"/>
<path d="M98.3306 88.5601C90.9206 88.5601 84.8906 83.3001 84.8906 76.8401C84.8906 70.3801 90.8906 65.1201 98.3306 65.1201C105.771 65.1201 111.761 70.3801 111.761 76.8401C111.761 83.3001 105.731 88.5601 98.3306 88.5601ZM98.3306 67.1201C92.0206 67.1201 86.8906 71.4801 86.8906 76.8401C86.8906 82.2001 92.0206 86.5601 98.3306 86.5601C104.641 86.5601 109.761 82.2001 109.761 76.8401C109.761 71.4801 104.631 67.1201 98.3306 67.1201Z" fill="#093F68"/>
<path d="M85.2094 45.05L73.0794 29.5C73.0794 29.5 70.3494 39.1 68.6694 45.05H49.5394L44.9994 31.02L39.6994 44.92H24.8594V74.31C24.8581 79.2367 25.8273 84.1154 27.7118 88.6675C29.5963 93.2196 32.359 97.3559 35.8423 100.84C39.3256 104.324 43.4611 107.088 48.0126 108.974C52.5642 110.859 57.4427 111.83 62.3694 111.83C67.2961 111.83 72.1746 110.859 76.7262 108.974C81.2777 107.088 85.4133 104.324 88.8965 100.84C92.3798 97.3559 95.1425 93.2196 97.027 88.6675C98.9115 84.1154 99.8807 79.2367 99.8794 74.31V45.09L85.2094 45.05Z" fill="#FFC9B0"/>
<path d="M62.4006 112.78C52.1894 112.767 42.4005 108.704 35.181 101.483C27.9616 94.2611 23.9012 84.4711 23.8906 74.2599V44.8699C23.8917 44.6076 23.9958 44.3562 24.1806 44.1699C24.2732 44.0754 24.3837 44.0002 24.5055 43.9487C24.6274 43.8972 24.7583 43.8704 24.8906 43.8699H39.0406L44.1006 30.6099C44.1707 30.4168 44.2985 30.25 44.4666 30.1322C44.6348 30.0143 44.8352 29.9511 45.0406 29.9511C45.246 29.9511 45.4464 30.0143 45.6145 30.1322C45.7827 30.25 45.9105 30.4168 45.9806 30.6099L50.2706 43.8499H67.9206C69.6006 37.8499 72.1206 29.0199 72.1206 29.0199C72.1723 28.8438 72.2716 28.6853 72.4074 28.5618C72.5432 28.4384 72.7104 28.3547 72.8906 28.3199C73.0743 28.2798 73.2655 28.2924 73.4424 28.356C73.6193 28.4197 73.7746 28.532 73.8906 28.6799L85.7006 44.0499H99.9206C100.186 44.0499 100.441 44.1552 100.628 44.3428C100.816 44.5303 100.921 44.7847 100.921 45.0499V74.2199C100.921 84.4397 96.8635 94.2415 89.6408 101.472C82.418 108.702 72.6204 112.769 62.4006 112.78ZM25.8906 45.8799V74.2599C25.7767 79.125 26.6366 83.9638 28.4197 88.4919C30.2028 93.0199 32.8732 97.1458 36.2738 100.627C39.6744 104.108 43.7366 106.874 48.2217 108.763C52.7068 110.652 57.5241 111.624 62.3906 111.624C67.2571 111.624 72.0744 110.652 76.5595 108.763C81.0446 106.874 85.1068 104.108 88.5074 100.627C91.908 97.1458 94.5784 93.0199 96.3615 88.4919C98.1446 83.9638 99.0045 79.125 98.8906 74.2599V46.0899H85.1906C85.0387 46.0907 84.8886 46.0569 84.7517 45.9911C84.6149 45.9252 84.4948 45.8291 84.4006 45.7099L73.4806 31.7099L69.6106 45.3599C69.5501 45.5762 69.4186 45.7658 69.2372 45.8983C69.0558 46.0307 68.835 46.0982 68.6106 46.0899H49.4806C49.2685 46.0891 49.0621 46.0208 48.8913 45.895C48.7206 45.7691 48.5942 45.5922 48.5306 45.3899L45.0006 34.0199L40.7106 45.2699C40.6397 45.4597 40.5128 45.6235 40.3467 45.7396C40.1806 45.8556 39.9832 45.9185 39.7806 45.9199L25.8906 45.8799Z" fill="#093F68"/>
<path d="M43.6984 75.3695C45.659 75.3695 47.2484 73.7801 47.2484 71.8195C47.2484 69.8589 45.659 68.2695 43.6984 68.2695C41.7378 68.2695 40.1484 69.8589 40.1484 71.8195C40.1484 73.7801 41.7378 75.3695 43.6984 75.3695Z" fill="#093F68"/>
<path d="M80.3 75.3695C82.2606 75.3695 83.85 73.7801 83.85 71.8195C83.85 69.8589 82.2606 68.2695 80.3 68.2695C78.3394 68.2695 76.75 69.8589 76.75 71.8195C76.75 73.7801 78.3394 75.3695 80.3 75.3695Z" fill="#093F68"/>
<path d="M61.9999 84.7499C60.8479 84.7413 59.6981 84.6477 58.5599 84.4699C58.4305 84.447 58.3069 84.3988 58.1962 84.328C58.0855 84.2573 57.9897 84.1655 57.9145 84.0578C57.8393 83.95 57.786 83.8285 57.7578 83.7002C57.7295 83.5719 57.7269 83.4392 57.7499 83.3099C57.7728 83.1805 57.821 83.0569 57.8917 82.9462C57.9625 82.8354 58.0543 82.7397 58.162 82.6645C58.2698 82.5893 58.3913 82.536 58.5196 82.5078C58.6479 82.4795 58.7805 82.4769 58.9099 82.4999C60.6884 82.7868 62.5014 82.7868 64.2799 82.4999C64.5899 81.5799 63.2799 77.6799 61.2799 73.9799C61.2152 73.8634 61.1743 73.7351 61.1599 73.6026C61.1454 73.4701 61.1576 73.336 61.1957 73.2083C61.2338 73.0805 61.2971 72.9617 61.3818 72.8588C61.4665 72.7558 61.5709 72.6709 61.6889 72.6089C61.8069 72.5469 61.9361 72.5091 62.0689 72.4978C62.2017 72.4864 62.3354 72.5017 62.4622 72.5428C62.5891 72.5839 62.7064 72.6499 62.8073 72.737C62.9082 72.8241 62.9907 72.9305 63.0499 73.0499C64.0499 74.8999 67.0499 81.1099 66.0499 83.3899C65.9371 83.6391 65.7683 83.859 65.5567 84.0324C65.3451 84.2059 65.0964 84.3282 64.8299 84.3899C63.9045 84.6236 62.9543 84.7445 61.9999 84.7499Z" fill="#093F68"/>
<path d="M62.3997 96.57C57.6976 96.6357 53.0026 96.183 48.3997 95.22C48.2652 95.1962 48.1371 95.1451 48.0231 95.0698C47.9092 94.9945 47.8118 94.8967 47.7371 94.7824C47.6624 94.6681 47.6119 94.5397 47.5887 94.4051C47.5655 94.2705 47.5702 94.1326 47.6023 93.9999C47.6345 93.8672 47.6935 93.7424 47.7757 93.6334C47.8579 93.5243 47.9616 93.4333 48.0803 93.3658C48.199 93.2984 48.3304 93.256 48.4661 93.2412C48.6019 93.2264 48.7392 93.2396 48.8697 93.28C53.3179 94.1879 57.8501 94.6204 62.3897 94.57C66.6529 94.6659 70.9117 94.236 75.0697 93.29C75.1981 93.2458 75.3341 93.2282 75.4695 93.2382C75.6048 93.2483 75.7368 93.2858 75.8572 93.3485C75.9776 93.4112 76.084 93.4978 76.1699 93.6029C76.2557 93.7081 76.3193 93.8296 76.3567 93.9601C76.3941 94.0906 76.4045 94.2274 76.3873 94.362C76.3701 94.4967 76.3257 94.6265 76.2568 94.7434C76.1878 94.8603 76.0958 94.962 75.9862 95.0422C75.8767 95.1225 75.752 95.1795 75.6197 95.21C75.4297 95.27 70.7797 96.57 62.3997 96.57Z" fill="#093F68"/>
<path d="M49.7514 62.0999H33.2814C32.8597 62.0999 32.4553 61.9324 32.1571 61.6342C31.8589 61.336 31.6914 60.9316 31.6914 60.5099C31.6914 60.0882 31.8589 59.6838 32.1571 59.3856C32.4553 59.0874 32.8597 58.9199 33.2814 58.9199H49.7514C50.1731 58.9199 50.5775 59.0874 50.8757 59.3856C51.1739 59.6838 51.3414 60.0882 51.3414 60.5099C51.3414 60.9316 51.1739 61.336 50.8757 61.6342C50.5775 61.9324 50.1731 62.0999 49.7514 62.0999Z" fill="#093F68"/>
<path d="M90.7202 62.0999H74.2502C73.8285 62.0999 73.4241 61.9324 73.1259 61.6342C72.8277 61.336 72.6602 60.9316 72.6602 60.5099C72.6602 60.0882 72.8277 59.6838 73.1259 59.3856C73.4241 59.0874 73.8285 58.9199 74.2502 58.9199H90.7202C91.1419 58.9199 91.5463 59.0874 91.8445 59.3856C92.1427 59.6838 92.3102 60.0882 92.3102 60.5099C92.3102 60.9316 92.1427 61.336 91.8445 61.6342C91.5463 61.9324 91.1419 62.0999 90.7202 62.0999Z" fill="#093F68"/>
<path d="M57.4902 144.69C57.3491 144.687 57.2103 144.655 57.0828 144.594C56.9552 144.534 56.8419 144.447 56.7502 144.34C47.9102 133.93 47.9102 133.59 47.9102 133.14C47.9119 132.908 47.9944 132.684 48.1434 132.506C48.2923 132.328 48.4986 132.207 48.7268 132.164C48.955 132.122 49.1909 132.16 49.394 132.272C49.5972 132.385 49.7549 132.564 49.8402 132.78C50.3102 133.54 53.9902 137.99 57.5302 142.18L61.7002 137.5C61.8822 137.321 62.1256 137.219 62.3805 137.214C62.6354 137.209 62.8827 137.301 63.0717 137.473C63.2607 137.644 63.3772 137.881 63.3974 138.135C63.4175 138.389 63.3398 138.641 63.1802 138.84L58.1802 144.33C58.0951 144.433 57.9902 144.518 57.8717 144.58C57.7531 144.642 57.6234 144.679 57.4902 144.69Z" fill="#093F68"/>
<path d="M66.9994 142.69C66.8599 142.69 66.7219 142.66 66.5945 142.603C66.467 142.546 66.3529 142.464 66.2594 142.36L61.2594 136.87C61.0997 136.671 61.0221 136.419 61.0422 136.165C61.0624 135.911 61.1789 135.674 61.3679 135.503C61.5569 135.331 61.8042 135.239 62.0591 135.244C62.314 135.249 62.5574 135.351 62.7394 135.53L66.9294 140.18C70.4694 135.99 74.1494 131.54 74.6194 130.78C74.7047 130.564 74.8624 130.385 75.0656 130.272C75.2687 130.16 75.5046 130.122 75.7328 130.164C75.961 130.207 76.1672 130.328 76.3162 130.506C76.4652 130.684 76.5477 130.908 76.5494 131.14C76.5494 131.59 76.5494 131.93 67.7094 142.34C67.6177 142.447 67.5044 142.534 67.3769 142.594C67.2493 142.655 67.1105 142.687 66.9694 142.69H66.9994Z" fill="#093F68"/>
<path d="M62.3984 196.93C62.1332 196.93 61.8788 196.825 61.6913 196.637C61.5037 196.45 61.3984 196.195 61.3984 195.93V140.74C61.3984 140.475 61.5037 140.22 61.6913 140.033C61.8788 139.845 62.1332 139.74 62.3984 139.74C62.6636 139.74 62.918 139.845 63.1055 140.033C63.293 140.22 63.3984 140.475 63.3984 140.74V195.93C63.3984 196.195 63.293 196.45 63.1055 196.637C62.918 196.825 62.6636 196.93 62.3984 196.93Z" fill="#093F68"/>
</g>
<defs>
<clipPath id="clip0_227_2163">
<rect width="125" height="197" fill="white" transform="translate(0 0.5)"/>
</clipPath>
</defs>
</svg>
