<svg width="41" height="41" viewBox="0 0 41 41" fill="none" xmlns="http://www.w3.org/2000/svg">
<path fill-rule="evenodd" clip-rule="evenodd" d="M20.4975 40.4983C15.156 40.4983 10.1334 38.4181 6.35588 34.641C2.58 30.8635 0.5 25.8415 0.5 20.5001C0.5 15.1587 2.58 10.1368 6.35588 6.35926C10.1334 2.58215 15.156 0.501953 20.4975 0.501953C25.8391 0.501953 30.8633 2.58215 34.6409 6.35926C38.4184 10.1378 40.5 15.1598 40.5 20.5001C40.5 25.8407 38.4184 30.8626 34.6409 34.641C30.8634 38.4181 25.8391 40.4983 20.4976 40.4983H20.4975ZM26.864 30.4014C27.2545 30.792 27.8876 30.792 28.2782 30.4014L30.3995 28.2801C30.79 27.8896 30.79 27.2564 30.3995 26.8659L24.0355 20.502L30.3995 14.138C30.79 13.7475 30.79 13.1143 30.3995 12.7238L28.2782 10.6025C27.8876 10.2119 27.2545 10.2119 26.864 10.6025L20.5 16.9664L14.136 10.6025C13.7455 10.2119 13.1123 10.2119 12.7218 10.6025L10.6005 12.7238C10.21 13.1143 10.21 13.7475 10.6005 14.138L16.9645 20.502L10.6005 26.8659C10.21 27.2564 10.21 27.8896 10.6005 28.2801L12.7218 30.4014C13.1123 30.792 13.7455 30.792 14.136 30.4014L20.5 24.0375L26.864 30.4014Z" fill="#951D37"/>
</svg>
