<svg width="41" height="41" viewBox="0 0 41 41" fill="none" xmlns="http://www.w3.org/2000/svg">
<path fill-rule="evenodd" clip-rule="evenodd" d="M20.4975 40.4983C15.156 40.4983 10.1334 38.4181 6.35588 34.641C2.58 30.8635 0.5 25.8415 0.5 20.5001C0.5 15.1587 2.58 10.1368 6.35588 6.35926C10.1334 2.58215 15.156 0.501953 20.4975 0.501953C25.8391 0.501953 30.8633 2.58215 34.6409 6.35926C38.4184 10.1378 40.5 15.1598 40.5 20.5001C40.5 25.8407 38.4184 30.8626 34.6409 34.641C30.8634 38.4181 25.8391 40.4983 20.4976 40.4983H20.4975ZM12.1385 17.9984C11.8293 17.9984 11.5363 18.119 11.3134 18.3381L9.66466 19.9915C9.44332 20.2106 9.32125 20.5032 9.32125 20.8154C9.32125 21.1279 9.44332 21.4207 9.66466 21.6398L17.2457 29.2249C17.4638 29.4447 17.7584 29.5657 18.0741 29.5657C18.3866 29.5657 18.6796 29.4447 18.8977 29.2249L32.3135 15.8047C32.5332 15.5864 32.6553 15.2955 32.6569 14.9854C32.6569 14.6731 32.5348 14.3787 32.3135 14.1564L30.6648 12.5081C30.4434 12.2867 30.1505 12.1647 29.838 12.1647C29.5271 12.1647 29.2342 12.2867 29.0112 12.5081L18.0741 23.4508L12.9621 18.3381C12.7423 18.119 12.451 17.9984 12.1385 17.9984Z" fill="#498055"/>
</svg>
